<?xml version="1.0" encoding="UTF-8" standalone="no"?>
<!-- Created with Inkscape (http://www.inkscape.org/) -->
<svg
   xmlns:dc="http://purl.org/dc/elements/1.1/"
   xmlns:cc="http://web.resource.org/cc/"
   xmlns:rdf="http://www.w3.org/1999/02/22-rdf-syntax-ns#"
   xmlns:svg="http://www.w3.org/2000/svg"
   xmlns="http://www.w3.org/2000/svg"
   xmlns:xlink="http://www.w3.org/1999/xlink"
   xmlns:sodipodi="http://inkscape.sourceforge.net/DTD/sodipodi-0.dtd"
   xmlns:inkscape="http://www.inkscape.org/namespaces/inkscape"
   width="128"
   height="58"
   id="svg1363"
   sodipodi:version="0.32"
   inkscape:version="0.43"
   version="1.0"
   sodipodi:docbase="C:\Documents and Settings\miles\Desktop"
   sodipodi:docname="web_button_get_legal_border_caps1_sl.svg"
   inkscape:export-filename="C:\Documents and Settings\miles\Desktop\web_button_get_legal_border_caps2_sl.png"
   inkscape:export-xdpi="89.74041"
   inkscape:export-ydpi="89.74041">
  <defs
     id="defs1365">
    <linearGradient
       id="linearGradient2580">
      <stop
         id="stop2582"
         offset="0.00000000"
         style="stop-color:#06348c;stop-opacity:1.0000000;" />
      <stop
         id="stop2584"
         offset="1.0000000"
         style="stop-color:#06348c;stop-opacity:0.00000000;" />
    </linearGradient>
    <linearGradient
       inkscape:collect="always"
       xlink:href="#linearGradient2580"
       id="linearGradient3868"
       gradientUnits="userSpaceOnUse"
       gradientTransform="matrix(3.40834e-2,0,0,1.658017e-2,49.27332,23.85978)"
       x1="440"
       y1="17.767578"
       x2="443.92371"
       y2="1592.2659" />
    <radialGradient
       inkscape:collect="always"
       xlink:href="#linearGradient10559"
       id="radialGradient12042"
       gradientUnits="userSpaceOnUse"
       gradientTransform="matrix(1.493155,-0.164596,7.321247e-2,0.764379,-114.9739,48.80185)"
       cx="182.76889"
       cy="115.69424"
       fx="182.76889"
       fy="115.69424"
       r="401.72833" />
    <linearGradient
       inkscape:collect="always"
       xlink:href="#linearGradient10559"
       id="linearGradient12040"
       gradientUnits="userSpaceOnUse"
       x1="-173.69395"
       y1="78.814842"
       x2="766.24139"
       y2="41.03046" />
    <radialGradient
       inkscape:collect="always"
       xlink:href="#linearGradient10559"
       id="radialGradient12038"
       gradientUnits="userSpaceOnUse"
       gradientTransform="matrix(1.493155,-0.164596,7.321247e-2,0.764379,-114.9739,48.80185)"
       cx="182.76889"
       cy="115.69424"
       fx="182.76889"
       fy="115.69424"
       r="401.72833" />
    <linearGradient
       inkscape:collect="always"
       xlink:href="#linearGradient10559"
       id="linearGradient10557"
       x1="-173.69395"
       y1="78.814842"
       x2="766.24139"
       y2="41.03046"
       gradientUnits="userSpaceOnUse" />
    <linearGradient
       id="linearGradient10559">
      <stop
         style="stop-color:#ffffff;stop-opacity:1.0000000;"
         offset="0.00000000"
         id="stop10561" />
      <stop
         id="stop10581"
         offset="0.88596493"
         style="stop-color:#8299c5;stop-opacity:1.0000000;" />
      <stop
         style="stop-color:#06348c;stop-opacity:1.0000000;"
         offset="1.0000000"
         id="stop10563" />
    </linearGradient>
    <radialGradient
       inkscape:collect="always"
       xlink:href="#linearGradient10559"
       id="radialGradient10579"
       cx="182.76889"
       cy="115.69424"
       fx="182.76889"
       fy="115.69424"
       r="401.72833"
       gradientTransform="matrix(1.493155,-0.164596,7.321247e-2,0.764379,-114.9739,48.80185)"
       gradientUnits="userSpaceOnUse" />
  </defs>
  <sodipodi:namedview
     id="base"
     pagecolor="#ffffff"
     bordercolor="#666666"
     borderopacity="1.0"
     inkscape:pageopacity="0.0"
     inkscape:pageshadow="2"
     inkscape:zoom="3.2133333"
     inkscape:cx="85.5"
     inkscape:cy="24.5"
     inkscape:document-units="px"
     inkscape:current-layer="layer1"
     inkscape:window-width="814"
     inkscape:window-height="584"
     inkscape:window-x="127"
     inkscape:window-y="164" />
  <metadata
     id="metadata1368">
    <rdf:RDF>
      <cc:Work
         rdf:about="">
        <dc:format>image/svg+xml</dc:format>
        <dc:type
           rdf:resource="http://purl.org/dc/dcmitype/StillImage" />
      </cc:Work>
    </rdf:RDF>
  </metadata>
  <g
     inkscape:label="Layer 1"
     inkscape:groupmode="layer"
     id="layer1">
    <g
       id="g1500"
       inkscape:export-filename="C:\Eigene Dateien\OpenOffice.org\Art\Web buttons\web_button_get_legal_border_caps.png"
       inkscape:export-xdpi="12.150000"
       inkscape:export-ydpi="12.150000"
       style="fill:url(#radialGradient10579);fill-opacity:1;stroke:url(#linearGradient10557);stroke-width:4.38150787;stroke-miterlimit:4;stroke-dasharray:none;stroke-opacity:1"
       transform="matrix(0.184263,0,0,0.147341,32.20541,17.3729)">
      <rect
         ry="79.785378"
         rx="68.443222"
         inkscape:export-ydpi="15.000000"
         inkscape:export-xdpi="15.000000"
         inkscape:export-filename="C:\Eigene Dateien\OpenOffice.org\Art\Web buttons\web_button_get_legal.png"
         style="fill:url(#radialGradient12038);fill-opacity:1;stroke:url(#linearGradient12040);stroke-width:4.38150787;stroke-miterlimit:4;stroke-dasharray:none;stroke-opacity:1"
         id="rect5329"
         width="798.89667"
         height="386.11246"
         x="-171.41396"
         y="-114.24139" />
      <rect
         ry="81.624214"
         rx="69.404022"
         inkscape:export-ydpi="18.706505"
         inkscape:export-xdpi="18.706505"
         inkscape:export-filename="C:\Eigene Dateien\OpenOffice.org\Art\Web buttons\web_button_powered_by.png"
         style="fill:url(#radialGradient12042);fill-opacity:1;stroke:#06348c;stroke-width:8.76301479;stroke-miterlimit:4;stroke-dasharray:none;stroke-opacity:1"
         id="rect3873"
         width="797.68713"
         height="384.52579"
         x="-170.40538"
         y="-113.55014" />
    </g>
    <rect
       y="24.16264"
       x="50.636654"
       height="31.751118"
       width="94.922691"
       id="rect1465"
       style="fill:#ffffff;fill-opacity:1;stroke:none;stroke-width:0.20869645;stroke-miterlimit:4;stroke-dasharray:none;stroke-opacity:1"
       inkscape:export-filename="C:\Eigene Dateien\OpenOffice.org\Art\Web buttons\web_button_get_legal_border_caps.png"
       inkscape:export-xdpi="12.150000"
       inkscape:export-ydpi="12.150000"
       rx="10.019622"
       ry="10.019624" />
    <text
       id="text2900"
       y="98.047409"
       x="388.84064"
       style="font-size:4.66390514px;font-style:normal;font-weight:normal;fill:#000000;fill-opacity:1;stroke:none;stroke-width:1px;stroke-linecap:butt;stroke-linejoin:miter;stroke-opacity:1;font-family:Bitstream Vera Sans"
       xml:space="preserve"
       transform="matrix(0.274701,0,0,0.151047,0,12.94447)"
       inkscape:export-filename="C:\Eigene Dateien\OpenOffice.org\Art\Web buttons\web_button_get_legal_border_caps.png"
       inkscape:export-xdpi="12.150000"
       inkscape:export-ydpi="12.150000"><tspan
         y="98.047409"
         x="388.84064"
         id="tspan2902"
         sodipodi:role="line"> </tspan></text>
    <text
       id="text6036"
       y="284.58282"
       x="282.21259"
       style="font-size:1.16847813px;font-style:normal;font-weight:normal;fill:#000000;fill-opacity:1;stroke:none;stroke-width:1px;stroke-linecap:butt;stroke-linejoin:miter;stroke-opacity:1;font-family:Bitstream Vera Sans"
       xml:space="preserve"
       inkscape:export-filename="C:\Eigene Dateien\OpenOffice.org\Art\Web buttons\web_button_get_legal_border_caps.png"
       inkscape:export-xdpi="12.150000"
       inkscape:export-ydpi="12.150000"
       transform="matrix(0.274701,0,0,0.151047,0,12.94447)"><tspan
         y="284.58282"
         x="282.21259"
         id="tspan6038"
         sodipodi:role="line"> </tspan></text>
    <text
       id="text2144"
       y="213.01776"
       x="319.99551"
       style="font-size:5.84203863px;font-style:normal;font-weight:normal;fill:#000000;fill-opacity:1;stroke:none;stroke-width:1px;stroke-linecap:butt;stroke-linejoin:miter;stroke-opacity:1;font-family:Bitstream Vera Sans"
       xml:space="preserve"
       transform="matrix(0.274701,0,0,0.151047,0,12.94447)"
       inkscape:export-filename="C:\Eigene Dateien\OpenOffice.org\Art\Web buttons\web_button_get_legal_border_caps.png"
       inkscape:export-xdpi="12.150000"
       inkscape:export-ydpi="12.150000"><tspan
         y="213.01776"
         x="319.99551"
         id="tspan2146"
         sodipodi:role="line"> </tspan></text>
    <rect
       y="24.162642"
       x="50.636654"
       height="31.751127"
       width="94.922691"
       id="rect2477"
       style="fill:url(#linearGradient3868);fill-opacity:1;stroke:#ffffff;stroke-width:0.02282776;stroke-miterlimit:4;stroke-dasharray:none;stroke-opacity:1"
       inkscape:export-filename="C:\Eigene Dateien\OpenOffice.org\Art\Web buttons\web_button_get_legal_border_caps.png"
       inkscape:export-xdpi="12.150000"
       inkscape:export-ydpi="12.150000"
       rx="10.019622"
       ry="10.019626" />
    <rect
       y="24.170504"
       x="50.95945"
       height="31.751127"
       width="94.922691"
       id="rect3829"
       style="fill:none;fill-opacity:1;stroke:#06348c;stroke-width:0.95227611;stroke-miterlimit:4;stroke-dasharray:none;stroke-opacity:1"
       inkscape:export-filename="C:\Eigene Dateien\OpenOffice.org\Art\Web buttons\web_button_get_legal_border_caps.png"
       inkscape:export-xdpi="12.150000"
       inkscape:export-ydpi="12.150000"
       rx="10.019622"
       ry="10.019626" />
    <rect
       y="24.529278"
       x="51.65358"
       height="31.018877"
       width="93.588524"
       id="rect6747"
       style="fill:none;fill-opacity:1;stroke:#fefefe;stroke-width:0.13403507;stroke-miterlimit:4;stroke-dasharray:none;stroke-opacity:1"
       inkscape:export-filename="C:\Eigene Dateien\OpenOffice.org\Art\Web buttons\web_button_get_legal_border_caps.png"
       inkscape:export-xdpi="12.150000"
       inkscape:export-ydpi="12.150000"
       rx="9.8787937"
       ry="9.7885513" />
    <rect
       y="23.804171"
       x="50.359478"
       height="32.482899"
       width="96.255203"
       id="rect7477"
       style="fill:none;fill-opacity:1;stroke:#fefefe;stroke-width:0.19398485;stroke-miterlimit:4;stroke-dasharray:none;stroke-opacity:1"
       inkscape:export-filename="C:\Eigene Dateien\OpenOffice.org\Art\Web buttons\web_button_get_legal_border_caps.png"
       inkscape:export-xdpi="12.150000"
       inkscape:export-ydpi="12.150000"
       rx="10.160277"
       ry="10.25055" />
    <text
       xml:space="preserve"
       style="font-size:13.0810833px;font-style:normal;font-variant:normal;font-weight:bold;font-stretch:normal;text-align:center;line-height:100%;writing-mode:lr-tb;text-anchor:middle;fill:#000000;fill-opacity:1;stroke:none;stroke-width:2.31697631;stroke-linecap:butt;stroke-linejoin:miter;stroke-miterlimit:4;stroke-dasharray:none;stroke-opacity:1;font-family:Bitstream Vera Sans"
       x="84.848763"
       y="16.873983"
       id="text2151"
       sodipodi:linespacing="100%"
       transform="scale(0.881189,1.13483)"
       inkscape:export-filename="C:\Eigene Dateien\OpenOffice.org\Art\Web buttons\web_button_get_legal_border_caps.png"
       inkscape:export-xdpi="12.150000"
       inkscape:export-ydpi="12.150000"><tspan
         sodipodi:role="line"
         x="84.848766"
         y="16.873983"
         id="tspan1645">Zaustavite piratstvo!</tspan></text>
    <text
       xml:space="preserve"
       style="font-size:12.02382851px;font-style:normal;font-variant:normal;font-weight:bold;font-stretch:normal;text-align:center;line-height:100%;writing-mode:lr-tb;text-anchor:middle;fill:#000000;fill-opacity:1;stroke:none;stroke-width:2.31697631;stroke-linecap:butt;stroke-linejoin:miter;stroke-miterlimit:4;stroke-dasharray:none;stroke-opacity:1;font-family:Bitstream Vera Sans"
       x="28.896042"
       y="36.726845"
       id="text1504"
       sodipodi:linespacing="100%"
       transform="scale(0.881189,1.13483)"
       inkscape:export-filename="C:\Eigene Dateien\OpenOffice.org\Art\Web buttons\web_button_get_legal_border_caps.png"
       inkscape:export-xdpi="12.150000"
       inkscape:export-ydpi="12.150000"><tspan
         sodipodi:role="line"
         x="28.896041"
         y="36.726845"
         id="tspan1506">Izberite</tspan></text>
    <g
       id="g1850"
       transform="matrix(0.284244,0,0,0.314338,43.49904,20.24296)">
      <path
         transform="matrix(0.706212,0,0,0.654398,11.16848,-32.52786)"
         sodipodi:nodetypes="ccccc"
         id="path1194"
         d="M 81.92481,119.37356 C 103.70089,114.00844 126.30214,109.76375 147.13657,126.06936 C 158.81874,115.54938 180.63143,106.11877 204.66892,108.23844 C 183.10288,97.103108 155.30522,100.14345 145.67956,110.85784 C 140.47224,106.26587 99.313809,100.74851 81.92481,119.37356 z "
         style="fill:#000000;fill-opacity:1;fill-rule:evenodd;stroke:none;stroke-width:1pt;stroke-linecap:butt;stroke-linejoin:miter;stroke-opacity:1" />
      <path
         transform="matrix(0.706212,0,0,0.654398,11.16848,-32.52786)"
         sodipodi:nodetypes="ccccc"
         id="path1816"
         d="M 156.0964,84.445513 C 173.82394,82.680825 190.95751,82.635675 205.18395,92.93313 C 215.54704,87.856674 231.62801,84.535295 250.17077,87.308762 C 232.03098,80.659267 213.54343,78.997946 204.6432,84.196384 C 197.37519,79.808618 172.56918,74.10924 156.0964,84.445513 z "
         style="fill:#000000;fill-opacity:1;fill-rule:evenodd;stroke:none;stroke-width:1pt;stroke-linecap:butt;stroke-linejoin:miter;stroke-opacity:1" />
      <path
         id="text1817"
         d="M 41.285167,38.550488 L 41.285167,42.546581 L 39.175792,42.546581 L 39.175792,41.896191 L 39.175792,39.487988 C 39.175786,38.921585 39.162114,38.53096 39.134776,38.316113 C 39.111333,38.101273 39.068364,37.94307 39.00587,37.841503 C 38.923833,37.704789 38.812505,37.599321 38.671885,37.525097 C 38.531256,37.446977 38.3711,37.407915 38.191417,37.407909 C 37.753913,37.407915 37.410163,37.577836 37.160167,37.917675 C 36.910164,38.253617 36.785164,38.720413 36.785167,39.318066 L 36.785167,42.546581 L 34.68751,42.546581 L 34.68751,35.984081 L 36.785167,35.984081 L 36.785167,36.945019 C 37.10157,36.562212 37.437507,36.280963 37.792979,36.101269 C 38.148444,35.917682 38.541021,35.825885 38.970714,35.825878 C 39.72852,35.825885 40.302738,36.058307 40.69337,36.523144 C 41.087894,36.987993 41.285159,37.663774 41.285167,38.550488 M 33.082042,39.247753 L 33.082042,39.845409 L 28.177745,39.845409 C 28.228523,40.337599 28.406258,40.706739 28.710948,40.952831 C 29.015632,41.198926 29.441413,41.321973 29.988292,41.321972 C 30.429693,41.321973 30.880865,41.25752 31.341807,41.128613 C 31.806645,40.995802 32.283207,40.796583 32.771495,40.530956 L 32.771495,42.148144 C 32.275394,42.335644 31.779301,42.476269 31.283214,42.570019 C 30.787115,42.667675 30.291021,42.716503 29.794932,42.716503 C 28.607429,42.716503 27.683602,42.415722 27.023448,41.814159 C 26.367197,41.208692 26.039072,40.361037 26.039073,39.271191 C 26.039072,38.200882 26.361338,37.359086 27.00587,36.7458 C 27.654305,36.132525 28.544929,35.825885 29.677745,35.825878 C 30.70899,35.825885 31.533208,36.136431 32.150401,36.757519 C 32.771488,37.378618 33.082034,38.208695 33.082042,39.247753 M 30.925792,38.550488 C 30.925786,38.152054 30.808599,37.831742 30.574229,37.58955 C 30.343756,37.343461 30.041022,37.220415 29.666026,37.220409 C 29.259772,37.220415 28.929695,37.335649 28.675792,37.566113 C 28.421883,37.79268 28.26368,38.120804 28.201182,38.550488 L 30.925792,38.550488 M 20.027354,41.597363 L 20.027354,45.042675 L 17.929698,45.042675 L 17.929698,35.984081 L 20.027354,35.984081 L 20.027354,36.945019 C 20.316413,36.562212 20.636726,36.280963 20.988292,36.101269 C 21.33985,35.917682 21.744146,35.825885 22.201182,35.825878 C 23.00977,35.825885 23.673832,36.14815 24.19337,36.792675 C 24.712893,37.433305 24.972659,38.259476 24.972667,39.271191 C 24.972659,40.282912 24.712893,41.111036 24.19337,41.755566 C 23.673832,42.396191 23.00977,42.716503 22.201182,42.716503 C 21.744146,42.716503 21.33985,42.626659 20.988292,42.446972 C 20.636726,42.263378 20.316413,41.980176 20.027354,41.597363 M 21.421885,37.349316 C 20.972663,37.349321 20.62696,37.515336 20.384776,37.847363 C 20.146492,38.175492 20.027351,38.650101 20.027354,39.271191 C 20.027351,39.892287 20.146492,40.368849 20.384776,40.700878 C 20.62696,41.029005 20.972663,41.193067 21.421885,41.193066 C 21.871099,41.193067 22.212896,41.029005 22.447276,40.700878 C 22.685552,40.372755 22.804692,39.896193 22.804698,39.271191 C 22.804692,38.646195 22.685552,38.169633 22.447276,37.841503 C 22.212896,37.513383 21.871099,37.349321 21.421885,37.349316 M 11.824229,35.275097 C 11.136725,35.275104 10.603522,35.52901 10.22462,36.036816 C 9.8457105,36.544634 9.6562576,37.259477 9.6562605,38.181347 C 9.6562576,39.099319 9.8457105,39.812209 10.22462,40.320019 C 10.603522,40.827833 11.136725,41.081739 11.824229,41.081738 C 12.51563,41.081739 13.050785,40.827833 13.429698,40.320019 C 13.808597,39.812209 13.99805,39.099319 13.998057,38.181347 C 13.99805,37.259477 13.808597,36.544634 13.429698,36.036816 C 13.050785,35.52901 12.51563,35.275104 11.824229,35.275097 M 11.824229,33.640331 C 13.230473,33.64034 14.332034,34.042684 15.128917,34.847363 C 15.925783,35.652057 16.32422,36.763384 16.324229,38.181347 C 16.32422,39.595412 15.925783,40.704786 15.128917,41.509472 C 14.332034,42.31416 13.230473,42.716503 11.824229,42.716503 C 10.421882,42.716503 9.3203204,42.31416 8.5195417,41.509472 C 7.7226657,40.704786 7.3242286,39.595412 7.3242292,38.181347 C 7.3242286,36.763384 7.7226657,35.652057 8.5195417,34.847363 C 9.3203204,34.042684 10.421882,33.64034 11.824229,33.640331"
         style="font-size:12px;font-style:normal;font-variant:normal;font-weight:bold;font-stretch:normal;writing-mode:lr-tb;text-anchor:start;fill:#000000;fill-opacity:1;stroke:none;stroke-width:1pt;stroke-linecap:butt;stroke-linejoin:miter;stroke-opacity:1;font-family:Bitstream Vera Sans"
         transform="matrix(3.335184,0,0,4.323929,13.34256,-88.26436)" />
      <path
         id="text1823"
         d="M 116.0616,52.553215 C 116.06159,51.771969 115.89949,51.166501 115.57527,50.736809 C 115.25495,50.307127 114.80378,50.092283 114.22176,50.092278 C 113.64363,50.092283 113.19246,50.307127 112.86824,50.736809 C 112.54793,51.166501 112.38777,51.771969 112.38777,52.553215 C 112.38777,53.330561 112.54793,53.934076 112.86824,54.363762 C 113.19246,54.793451 113.64363,55.008294 114.22176,55.008293 C 114.80378,55.008294 115.25495,54.793451 115.57527,54.363762 C 115.89949,53.934076 116.06159,53.330561 116.0616,52.553215 M 117.13972,55.096184 C 117.13972,56.213371 116.89167,57.043448 116.39558,57.586418 C 115.89949,58.133291 115.13972,58.406728 114.11629,58.406731 C 113.73738,58.406728 113.37996,58.377431 113.04402,58.31884 C 112.70808,58.26415 112.38191,58.178213 112.06551,58.061028 L 112.06551,57.012199 C 112.38191,57.184073 112.69441,57.311026 113.00301,57.393059 C 113.3116,57.475088 113.62605,57.516104 113.94637,57.516106 C 114.65339,57.516104 115.18269,57.330557 115.53426,56.959465 C 115.88581,56.592277 116.06159,56.035637 116.0616,55.289543 L 116.0616,54.75634 C 115.83894,55.14306 115.55378,55.432122 115.20613,55.623528 C 114.85847,55.814934 114.44246,55.910637 113.95808,55.910637 C 113.15339,55.910637 112.50496,55.603997 112.01277,54.990715 C 111.52058,54.377435 111.27449,53.564936 111.27449,52.553215 C 111.27449,51.537594 111.52058,50.723142 112.01277,50.109856 C 112.50496,49.496581 113.15339,49.18994 113.95808,49.189934 C 114.44246,49.18994 114.85847,49.285644 115.20613,49.477043 C 115.55378,49.668456 115.83894,49.957518 116.0616,50.344231 L 116.0616,49.348137 L 117.13972,49.348137 L 117.13972,55.096184 M 110.83504,50.355949 C 110.71394,50.285643 110.58113,50.234861 110.4366,50.203606 C 110.29597,50.168455 110.13972,50.150877 109.96785,50.150871 C 109.35847,50.150877 108.88972,50.350096 108.5616,50.748528 C 108.23738,51.143064 108.07527,51.711422 108.07527,52.453606 L 108.07527,55.910637 L 106.99129,55.910637 L 106.99129,49.348137 L 108.07527,49.348137 L 108.07527,50.367668 C 108.30183,49.969237 108.59675,49.674315 108.96004,49.482903 C 109.32332,49.287597 109.76472,49.18994 110.28426,49.189934 C 110.35847,49.18994 110.4405,49.1958 110.53035,49.207512 C 110.62019,49.215331 110.7198,49.229003 110.82918,49.248528 L 110.83504,50.355949 M 102.23933,50.103996 C 101.66121,50.104002 101.20418,50.330564 100.86824,50.783684 C 100.5323,51.232907 100.36433,51.850094 100.36433,52.635246 C 100.36433,53.420405 100.53035,54.039545 100.86238,54.492668 C 101.19832,54.941888 101.6573,55.166497 102.23933,55.166496 C 102.81355,55.166497 103.26863,54.939935 103.60457,54.486809 C 103.9405,54.033686 104.10847,53.416499 104.10847,52.635246 C 104.10847,51.857907 103.9405,51.242673 103.60457,50.789543 C 103.26863,50.332517 102.81355,50.104002 102.23933,50.103996 M 102.23933,49.189934 C 103.17683,49.18994 103.91316,49.494628 104.44832,50.103996 C 104.98347,50.713376 105.25105,51.557126 105.25105,52.635246 C 105.25105,53.709467 104.98347,54.553216 104.44832,55.166496 C 103.91316,55.775871 103.17683,56.080559 102.23933,56.080559 C 101.29793,56.080559 100.55964,55.775871 100.02449,55.166496 C 99.493239,54.553216 99.227615,53.709467 99.227615,52.635246 C 99.227615,51.557126 99.493239,50.713376 100.02449,50.103996 C 100.55964,49.494628 101.29793,49.18994 102.23933,49.189934"
         style="font-size:12px;font-style:normal;font-weight:normal;fill:#06348c;fill-opacity:1;stroke:none;stroke-width:1pt;stroke-linecap:butt;stroke-linejoin:miter;stroke-opacity:1;font-family:Bitstream Vera Sans"
         transform="matrix(2.827263,0,0,3.301058,13.34256,-88.26436)" />
      <path
         transform="matrix(0.733333,0,0,0.7,74.38669,10.62877)"
         d="M 299.40346 118.42229 A 4.3857927 4.3857927 0 1 1  290.63188,118.42229 A 4.3857927 4.3857927 0 1 1  299.40346 118.42229 z"
         sodipodi:ry="4.3857927"
         sodipodi:rx="4.3857927"
         sodipodi:cy="118.42229"
         sodipodi:cx="295.01767"
         id="path1215"
         style="fill:#06348c;fill-opacity:1;fill-rule:evenodd;stroke:none;stroke-width:1pt;stroke-linecap:butt;stroke-linejoin:miter;stroke-opacity:1"
         sodipodi:type="arc" />
      <g
         id="g1847">
        <path
           sodipodi:nodetypes="cccccccccccccccccccccccccccccccccccccccccccccccccccccccccccccccccccccccccccccccccccccccccccccccccccccc"
           id="text1820"
           d="M 80.50441,39.662514 L 80.50441,40.26017 L 75.600113,40.26017 C 75.650891,40.75236 75.828626,41.1215 76.133316,41.367592 C 76.438,41.613687 76.863781,41.736734 77.41066,41.736732 C 77.852061,41.736734 78.303233,41.672281 78.764175,41.543373 C 79.229013,41.410562 79.705575,41.211344 80.193863,40.945717 L 80.193863,42.562904 C 79.697762,42.750405 79.201669,42.891029 78.705582,42.984779 C 78.209483,43.082435 77.713389,43.131264 77.2173,43.131264 C 76.029797,43.131264 75.10597,42.830483 74.445816,42.22892 C 73.789565,41.623453 73.461441,40.775797 73.461441,39.685951 C 73.461441,38.615643 73.783706,37.773847 74.428238,37.160561 C 75.076673,36.547286 75.967297,36.240645 77.100113,36.240639 C 78.131358,36.240645 78.955576,36.551192 79.572769,37.172279 C 80.193856,37.793378 80.504402,38.623456 80.50441,39.662514 M 78.34816,38.965248 C 78.348154,38.566815 78.230967,38.246503 77.996597,38.004311 C 77.766124,37.758222 77.46339,37.635175 77.088394,37.63517 C 76.68214,37.635175 76.352063,37.75041 76.09816,37.980873 C 75.844251,38.20744 75.686048,38.535565 75.62355,38.965248 L 78.34816,38.965248 M 72.131363,36.60392 L 72.131363,38.314857 C 71.846201,38.11955 71.559092,37.975019 71.270035,37.881264 C 70.984873,37.787519 70.687999,37.740644 70.37941,37.740639 C 69.793468,37.740644 69.336438,37.912519 69.008316,38.256264 C 68.684094,38.596112 68.521985,39.072674 68.521988,39.685951 C 68.521985,40.299235 68.684094,40.77775 69.008316,41.121498 C 69.336438,41.461343 69.793468,41.631265 70.37941,41.631264 C 70.70753,41.631265 71.018076,41.582437 71.31105,41.484779 C 71.60792,41.387125 71.881357,41.242594 72.131363,41.051186 L 72.131363,42.767982 C 71.803232,42.889076 71.469248,42.97892 71.12941,43.037514 C 70.793467,43.100014 70.455577,43.131264 70.115738,43.131264 C 68.932141,43.131264 68.006361,42.828529 67.338394,42.223061 C 66.670425,41.613687 66.336441,40.767985 66.336441,39.685951 C 66.336441,38.603924 66.670425,37.760175 67.338394,37.154701 C 68.006361,36.545333 68.932141,36.240645 70.115738,36.240639 C 70.459483,36.240645 70.797374,36.271895 71.12941,36.334389 C 71.465342,36.392989 71.799326,36.482833 72.131363,36.60392 M 62.703629,36.398842 L 64.801285,36.398842 L 64.801285,42.961342 L 62.703629,42.961342 L 62.703629,36.398842 M 61.795425,33.844154 L 61.795425,35.221107 L 60.635269,35.221107 C 60.33839,35.221115 60.131359,35.275803 60.014175,35.38517 C 59.896984,35.490646 59.838391,35.676193 59.838394,35.941811 L 59.838394,36.398842 L 61.631363,36.398842 L 61.631363,37.898842 L 59.838394,37.898842 L 59.838394,42.961342 L 57.740738,42.961342 L 57.740738,37.898842 L 56.697769,37.898842 L 56.697769,36.398842 L 57.740738,36.398842 L 57.740738,35.941811 C 57.740737,35.226975 57.939955,34.699631 58.338394,34.359779 C 58.736829,34.016038 59.354016,33.844163 60.189957,33.844154 L 61.795425,33.844154 M 56.568863,33.844154 L 56.568863,35.221107 L 55.408707,35.221107 C 55.111828,35.221115 54.904797,35.275803 54.787613,35.38517 C 54.670422,35.490646 54.611828,35.676193 54.611832,35.941811 L 54.611832,36.398842 L 56.4048,36.398842 L 56.4048,37.898842 L 54.611832,37.898842 L 54.611832,42.961342 L 52.514175,42.961342 L 52.514175,37.898842 L 51.471207,37.898842 L 51.471207,36.398842 L 52.514175,36.398842 L 52.514175,35.941811 C 52.514174,35.226975 52.713393,34.699631 53.111832,34.359779 C 53.510267,34.016038 54.127454,33.844163 54.963394,33.844154 L 56.568863,33.844154 M 46.145035,35.689857 C 45.45753,35.689865 44.924328,35.943771 44.545425,36.451576 C 44.166516,36.959395 43.977063,37.674238 43.977066,38.596107 C 43.977063,39.51408 44.166516,40.22697 44.545425,40.734779 C 44.924328,41.242594 45.45753,41.4965 46.145035,41.496498 C 46.836435,41.4965 47.371591,41.242594 47.750504,40.734779 C 48.129403,40.22697 48.318856,39.51408 48.318863,38.596107 C 48.318856,37.674238 48.129403,36.959395 47.750504,36.451576 C 47.371591,35.943771 46.836435,35.689865 46.145035,35.689857 M 46.145035,34.055092 C 47.551278,34.055101 48.65284,34.457444 49.449722,35.262123 C 50.246588,36.066818 50.645025,37.178145 50.645035,38.596107 C 50.645025,40.010173 50.246588,41.119547 49.449722,41.924232 C 48.65284,42.72892 47.551278,43.131264 46.145035,43.131264 C 44.742687,43.131264 43.641126,42.72892 42.840347,41.924232 C 42.043471,41.119547 41.645034,40.010173 41.645035,38.596107 C 41.645034,37.178145 42.043471,36.066818 42.840347,35.262123 C 43.641126,34.457444 44.742687,34.055101 46.145035,34.055092"
           style="font-size:12px;font-style:normal;font-variant:normal;font-weight:bold;font-stretch:normal;writing-mode:lr-tb;text-anchor:start;fill:#06348c;fill-opacity:1;stroke:none;stroke-width:1pt;stroke-linecap:butt;stroke-linejoin:miter;stroke-opacity:1;font-family:Bitstream Vera Sans"
           transform="matrix(3.396432,0,0,4.273006,13.34256,-88.26436)" />
        <path
           transform="matrix(0.912773,0,0,0.83458,-39.09015,-39.13983)"
           d="M 299.40346 118.42229 A 4.3857927 4.3857927 0 1 1  290.63188,118.42229 A 4.3857927 4.3857927 0 1 1  299.40346 118.42229 z"
           sodipodi:ry="4.3857927"
           sodipodi:rx="4.3857927"
           sodipodi:cy="118.42229"
           sodipodi:cx="295.01767"
           id="path1843"
           style="fill:#06348c;fill-opacity:1;fill-rule:evenodd;stroke:none;stroke-width:1pt;stroke-linecap:butt;stroke-linejoin:miter;stroke-opacity:1"
           sodipodi:type="arc" />
      </g>
    </g>
  </g>
</svg>
