<?xml version="1.0" encoding="utf-8"?>
<!-- Generator: Adobe Illustrator 14.0.0, SVG Export Plug-In . SVG Version: 6.00 Build 43363)  -->
<!DOCTYPE svg PUBLIC "-//W3C//DTD SVG 1.1//EN" "http://www.w3.org/Graphics/SVG/1.1/DTD/svg11.dtd">
<svg version="1.1" id="Ebene_7" xmlns="http://www.w3.org/2000/svg" xmlns:xlink="http://www.w3.org/1999/xlink" x="0px" y="0px"
	 width="841.89px" height="595.28px" viewBox="0 0 841.89 595.28" enable-background="new 0 0 841.89 595.28" xml:space="preserve">
<g>
	<g>
		<path fill="#0E85CD" d="M425.375,225.694c-44.75,0-81.021,36.251-81.021,80.98c0,5.697,0.595,11.254,1.715,16.62
			c7.119-1.935,14.609-2.97,22.342-2.97c12.394,0,24.163,2.65,34.783,7.418C417.103,317.83,434.126,312,452.508,312
			c11.508,0,22.484,2.29,32.488,6.434c0.053,0.02,0.102,0.041,0.154,0.062c0.414,0.204,0.705,0.628,0.705,1.129
			c0,0.692-0.564,1.258-1.264,1.258c-0.025,0-1.23-0.093-1.807-0.131c-1.992-0.143-4.018-0.219-6.043-0.219
			c-28.408,0-53.935,10.432-69.416,31.594c-0.247,0.335-0.732,1.018-0.738,1.018c-0.226,0.285-0.578,0.468-0.968,0.468
			c-0.32,0-0.604-0.118-0.821-0.318c-0.039-0.024-0.076-0.061-0.108-0.096c-14.688-13.81-34.036-19.276-55.753-19.657
			c11.088,31.517,41.113,54.121,76.437,54.121c44.75,0,81.031-36.262,81.031-80.986
			C506.406,261.945,470.125,225.694,425.375,225.694z M488.811,274.159c-0.283-0.029-0.768-0.108-1.082-0.15
			c-0.9-0.142-1.814-0.257-2.732-0.345c-16.525-1.558-31.9,3.03-41.934,14.653c-0.42,0.43-0.789,0.45-1.203,0.022
			c-7.977-9.045-19.337-13.059-32.375-14.294c-4.645-0.441-9.208-0.211-13.578,0.602c-0.017,0-0.037,0-0.057,0.009
			c-0.042,0-0.088,0.011-0.138,0.011c-0.467,0-0.84-0.379-0.84-0.845c0-0.271,0.134-0.509,0.328-0.659
			c0.08-0.045,0.16-0.096,0.238-0.133c8.134-4.256,17.536-6.293,27.349-5.363c7.117,0.674,13.738,2.832,19.574,6.145
			c8.525-4.939,18.623-7.363,29.18-6.366c5.977,0.566,11.602,2.187,16.711,4.645c0.312,0.16,0.637,0.313,0.951,0.484
			c0.312,0.155,0.453,0.423,0.453,0.747C489.656,273.786,489.357,274.225,488.811,274.159z"/>
		<path fill="#FFFFFF" d="M489.203,272.574c-0.314-0.171-0.639-0.324-0.951-0.484c-5.109-2.458-10.734-4.078-16.711-4.645
			c-10.557-0.997-20.654,1.427-29.18,6.366c-5.836-3.312-12.457-5.471-19.574-6.145c-9.813-0.93-19.215,1.107-27.349,5.363
			c-0.078,0.037-0.159,0.088-0.238,0.133c-0.194,0.15-0.328,0.389-0.328,0.659c0,0.466,0.373,0.845,0.84,0.845
			c0.049,0,0.095-0.011,0.138-0.011c0.02-0.009,0.04-0.009,0.057-0.009c4.37-0.812,8.933-1.043,13.578-0.602
			c13.039,1.235,24.399,5.249,32.375,14.294c0.414,0.428,0.783,0.407,1.203-0.022c10.033-11.623,25.408-16.211,41.934-14.653
			c0.918,0.088,1.832,0.203,2.732,0.345c0.314,0.042,0.799,0.121,1.082,0.15c0.547,0.065,0.846-0.373,0.846-0.838
			C489.656,272.997,489.516,272.729,489.203,272.574z"/>
		<path fill="#FFFFFF" d="M404.8,353.293c0.217,0.2,0.501,0.318,0.821,0.318c0.39,0,0.742-0.183,0.968-0.468
			c0.006,0,0.491-0.683,0.738-1.018c15.481-21.162,41.007-31.594,69.416-31.594c2.025,0,4.051,0.076,6.043,0.219
			c0.576,0.038,1.781,0.131,1.807,0.131c0.699,0,1.264-0.565,1.264-1.258c0-0.501-0.291-0.925-0.705-1.129
			c-0.053-0.021-0.102-0.042-0.154-0.062c-10.004-4.144-20.98-6.434-32.488-6.434c-18.382,0-35.405,5.83-49.314,15.743
			c-10.62-4.768-22.389-7.418-34.783-7.418c-7.733,0-15.223,1.035-22.342,2.97c0.731,3.505,1.701,6.922,2.87,10.245
			c21.718,0.381,41.065,5.848,55.753,19.657C404.724,353.232,404.761,353.269,404.8,353.293z"/>
	</g>
	<g>
		<path fill="#0E85CD" d="M477.714,377.106v7.526h-1.432v-7.526h-2.721v-1.158h6.873v1.158H477.714z M489.321,384.633v-7.251h-0.041
			l-2.848,7.251h-0.905l-2.846-7.251h-0.043v7.251h-1.434v-8.685h2.214l2.594,6.598l2.551-6.598h2.191v8.685H489.321z"/>
	</g>
</g>
<rect x="706.449" y="262.65" fill="none" width="22" height="14.324"/>
<text transform="matrix(1 0 0 1 706.4492 272.6465)" fill="#FFFFFF" font-family="'HelveticaNeue'" font-size="14">™</text>
</svg>
