<?xml version="1.0" encoding="UTF-8" standalone="no"?>
<svg
   xmlns:dc="http://purl.org/dc/elements/1.1/"
   xmlns:cc="http://creativecommons.org/ns#"
   xmlns:rdf="http://www.w3.org/1999/02/22-rdf-syntax-ns#"
   xmlns:svg="http://www.w3.org/2000/svg"
   xmlns="http://www.w3.org/2000/svg"
   xmlns:sodipodi="http://sodipodi.sourceforge.net/DTD/sodipodi-0.dtd"
   xmlns:inkscape="http://www.inkscape.org/namespaces/inkscape"
   version="1.1"
   id="svg3870"
   height="297mm"
   width="210mm"
   inkscape:version="0.91 r13725"
   sodipodi:docname="20-Splashscreen-Element-wiregulls_vectorised.svg">
  <sodipodi:namedview
     pagecolor="#ffffff"
     bordercolor="#666666"
     borderopacity="1"
     objecttolerance="10"
     gridtolerance="10"
     guidetolerance="10"
     inkscape:pageopacity="0"
     inkscape:pageshadow="2"
     inkscape:window-width="1366"
     inkscape:window-height="744"
     id="namedview106"
     showgrid="false"
     inkscape:zoom="0.22425739"
     inkscape:cx="372.04724"
     inkscape:cy="526.1811"
     inkscape:window-x="0"
     inkscape:window-y="24"
     inkscape:window-maximized="1"
     inkscape:current-layer="svg3870" />
  <defs
     id="defs3" />
  <metadata
     id="metadata4">
    <rdf:RDF>
      <cc:Work
         rdf:about="">
        <dc:format>image/svg+xml</dc:format>
        <dc:type
           rdf:resource="http://purl.org/dc/dcmitype/StillImage" />
        <cc:license
           rdf:resource="http://creativecommons.org/licenses/GPL/2.0/" />
        <dc:title></dc:title>
        <dc:creator>
          <cc:Agent>
            <dc:title />
          </cc:Agent>
        </dc:creator>
        <dc:rights>
          <cc:Agent>
            <dc:title />
          </cc:Agent>
        </dc:rights>
        <dc:coverage>illustration for OOo 2.0</dc:coverage>
        <dc:description>OpenOffice.org 2.0 wireframe gulls re-designed as 2D vector graphics with Inkscape 0.41 by Christophe Combelles, based on the Brendan Whelan splashscreen.</dc:description>
        <dc:date>2005-03-15</dc:date>
      </cc:Work>
      <cc:License
         rdf:about="http://creativecommons.org/licenses/GPL/2.0/">
        <cc:permits
           rdf:resource="http://web.resource.org/cc/Reproduction" />
        <cc:permits
           rdf:resource="http://web.resource.org/cc/Distribution" />
        <cc:requires
           rdf:resource="http://web.resource.org/cc/Notice" />
        <cc:permits
           rdf:resource="http://web.resource.org/cc/DerivativeWorks" />
        <cc:requires
           rdf:resource="http://web.resource.org/cc/ShareAlike" />
        <cc:requires
           rdf:resource="http://web.resource.org/cc/SourceCode" />
      </cc:License>
    </rdf:RDF>
  </metadata>
  <g
     id="layer1">
    <path
       id="path22642"
       d="M 723.31224,215.38406 C 650.08757,156.37645 515.32577,50.799378 520.58969,153.45916 C 516.27646,53.455538 385.65694,72.931001 252.99167,100.63092"
       style="stroke-opacity:1.0;stroke-miterlimit:4.0000000;stroke-linejoin:round;stroke-linecap:round;stroke-width:1.0;stroke:#000000;fill-rule:evenodd;fill-opacity:1.0000000;fill:none" />
    <path
       id="path24184"
       d="M 716.76547,231.00786 C 646.33994,171.62307 506.28924,49.912756 512.52891,159.19032 C 508.83269,36.706303 314.39664,102.70566 244.08366,121.33528"
       style="stroke-opacity:0.99;stroke-miterlimit:4.0000000;stroke-linejoin:round;stroke-linecap:round;stroke-width:0.99;stroke:#000000;fill-rule:evenodd;fill-opacity:1.0000000;fill:none" />
    <path
       id="path24186"
       d="M 710.14925,246.02500 C 632.71851,174.08753 497.29900,54.437587 504.61163,164.40858 C 504.81631,47.546309 338.61390,106.82714 235.14749,141.29528"
       style="stroke-opacity:0.98;stroke-miterlimit:4.0000000;stroke-linejoin:round;stroke-linecap:round;stroke-width:0.98;stroke:#000000;fill-rule:evenodd;fill-opacity:1.0000000;fill:none" />
    <path
       id="path24188"
       d="M 703.96706,260.57523 C 632.46478,190.49329 492.86454,54.264623 496.95145,170.18723 C 491.01758,54.922348 354.37073,108.04042 227.53897,160.05584"
       style="stroke-opacity:0.97;stroke-miterlimit:4.0000000;stroke-linejoin:round;stroke-linecap:round;stroke-width:0.97;stroke:#000000;fill-rule:evenodd;fill-opacity:1.0000000;fill:none" />
    <path
       id="path24190"
       d="M 697.80056,274.40416 C 615.10413,188.97264 485.45427,60.404787 489.51684,175.25087 C 485.61426,60.798502 354.77867,113.81836 218.73953,178.59439"
       style="stroke-opacity:0.96;stroke-miterlimit:4.0000000;stroke-linejoin:round;stroke-linecap:round;stroke-width:0.96;stroke:#000000;fill-rule:evenodd;fill-opacity:1.0000000;fill:none" />
    <path
       id="path24210"
       d="M 691.41021,287.06293 C 589.18898,174.36173 476.18712,71.591645 482.20985,180.29517 C 480.83417,72.387595 367.94986,111.18780 210.30791,195.98527"
       style="stroke-opacity:0.95;stroke-miterlimit:4.0000000;stroke-linejoin:round;stroke-linecap:round;stroke-width:0.95;stroke:#000000;fill-rule:evenodd;fill-opacity:1.0000000;fill:none" />
    <path
       id="path24212"
       d="M 685.07651,298.67278 C 581.19499,181.61660 470.69314,74.379520 475.16197,184.75677 C 474.36481,69.230267 343.59627,128.49517 202.51038,211.77748"
       style="stroke-opacity:0.94;stroke-miterlimit:4.0000000;stroke-linejoin:round;stroke-linecap:round;stroke-width:0.94;stroke:#000000;fill-rule:evenodd;fill-opacity:1.0000000;fill:none" />
    <path
       id="path24216"
       d="M 679.23107,309.53880 C 566.17719,178.62504 465.82479,81.439315 468.26233,190.19154 C 464.76600,74.520404 347.88825,130.06484 195.72246,225.58339"
       style="stroke-opacity:0.93;stroke-miterlimit:4.0000000;stroke-linejoin:round;stroke-linecap:round;stroke-width:0.93;stroke:#000000;fill-rule:evenodd;fill-opacity:1.0000000;fill:none" />
    <path
       id="path24218"
       d="M 666.86049,327.53480 C 552.15555,187.69062 450.52668,89.106181 454.99551,199.48344 C 453.53047,84.624811 342.08413,139.25690 180.46563,249.66387"
       style="stroke-opacity:0.92;stroke-miterlimit:4.0000000;stroke-linejoin:round;stroke-linecap:round;stroke-width:0.92;stroke:#000000;fill-rule:evenodd;fill-opacity:1.0000000;fill:none" />
    <path
       id="path3861"
       d="M 660.76846,334.50170 C 545.65721,193.03249 443.29177,93.308426 448.57311,204.09194 C 447.10807,89.233313 340.66942,144.18391 173.85001,258.72472"
       style="stroke-opacity:0.91;stroke-miterlimit:4.0000000;stroke-linejoin:round;stroke-linecap:round;stroke-width:0.91;stroke:#000000;fill-rule:evenodd;fill-opacity:1.0000000;fill:none" />
    <path
       id="path4688"
       d="M 673.10237,319.19586 C 560.86101,185.03204 458.30903,84.181550 461.55909,194.96506 C 457.65651,79.293924 347.19596,134.83836 187.34951,238.37152"
       style="stroke-opacity:0.90;stroke-miterlimit:4.0000000;stroke-linejoin:round;stroke-linecap:round;stroke-width:0.90;stroke:#000000;fill-rule:evenodd;fill-opacity:1.0000000;fill:none" />
    <path
       id="path4690"
       d="M 654.62382,340.30530 C 543.16889,201.67989 440.28019,96.195286 442.42847,208.45920 C 441.77385,93.330436 328.71573,150.60564 167.13931,266.51587"
       style="stroke-opacity:0.89;stroke-miterlimit:4.0000000;stroke-linejoin:round;stroke-linecap:round;stroke-width:0.89;stroke:#000000;fill-rule:evenodd;fill-opacity:1.0000000;fill:none" />
    <path
       id="path4692"
       d="M 648.47918,344.33451 C 535.80548,203.67781 433.03377,102.39842 436.28383,212.77568 C 435.62921,90.082991 308.52380,168.29405 160.45439,272.58826"
       style="stroke-opacity:0.88;stroke-miterlimit:4.0000000;stroke-linejoin:round;stroke-linecap:round;stroke-width:0.88;stroke:#000000;fill-rule:evenodd;fill-opacity:1.0000000;fill:none" />
    <path
       id="path4694"
       d="M 642.68130,347.15516 C 527.97631,207.71723 427.90478,106.91803 430.34232,216.88903 C 430.90228,93.796373 296.36907,178.08035 154.51288,276.70161"
       style="stroke-opacity:0.87;stroke-miterlimit:4.0000000;stroke-linejoin:round;stroke-linecap:round;stroke-width:0.87;stroke:#000000;fill-rule:evenodd;fill-opacity:1.0000000;fill:none" />
    <path
       id="path4696"
       d="M 636.35967,348.58154 C 522.87345,212.39367 421.20153,111.74233 424.45159,220.90082 C 425.96228,102.67486 299.52804,176.68933 148.48709,279.09256"
       style="stroke-opacity:0.86;stroke-miterlimit:4.0000000;stroke-linejoin:round;stroke-linecap:round;stroke-width:0.86;stroke:#000000;fill-rule:evenodd;fill-opacity:1.0000000;fill:none" />
    <path
       id="path1306"
       d="M 630.63001,348.89222 C 516.73754,213.11061 418.86556,120.78155 418.86556,224.65870 C 417.40052,109.80008 292.59130,178.28610 143.17119,279.33862"
       style="stroke-opacity:0.85;stroke-miterlimit:4.0000000;stroke-linejoin:round;stroke-linecap:round;stroke-width:0.85;stroke:#000000;fill-rule:evenodd;fill-opacity:1.0000000;fill:none" />
    <path
       id="path1308"
       d="M 624.61308,347.58957 C 507.06430,212.21422 412.87327,128.04340 413.27953,228.67049 C 414.24575,113.54173 280.52192,186.48505 137.85531,278.08267"
       style="stroke-opacity:0.84;stroke-miterlimit:4.0000000;stroke-linejoin:round;stroke-linecap:round;stroke-width:0.84;stroke:#000000;fill-rule:evenodd;fill-opacity:1.0000000;fill:none" />
    <path
       id="path1310"
       d="M 618.60485,344.69823 C 492.11841,204.44779 405.00204,139.62172 407.84584,232.52993 C 409.62248,123.61439 282.92228,184.53648 132.96189,274.78340"
       style="stroke-opacity:0.83;stroke-miterlimit:4.0000000;stroke-linejoin:round;stroke-linecap:round;stroke-width:0.83;stroke:#000000;fill-rule:evenodd;fill-opacity:1.0000000;fill:none" />
    <path
       id="path1312"
       d="M 612.55456,340.81018 C 481.59929,200.55974 398.04489,150.13362 402.51372,236.54172 C 406.99176,115.74002 231.66634,214.34666 128.44019,270.01563"
       style="stroke-opacity:0.82;stroke-miterlimit:4.0000000;stroke-linejoin:round;stroke-linecap:round;stroke-width:0.82;stroke:#000000;fill-rule:evenodd;fill-opacity:1.0000000;fill:none" />
    <path
       id="path1314"
       d="M 606.80025,335.46837 C 475.84498,203.34307 395.30265,157.90329 397.33394,240.24882 C 398.84044,121.60824 217.97714,217.78363 123.93577,263.72755"
       style="stroke-opacity:0.81;stroke-miterlimit:4.0000000;stroke-linejoin:round;stroke-linecap:round;stroke-width:0.81;stroke:#000000;fill-rule:evenodd;fill-opacity:1.0000000;fill:none" />
    <path
       id="path1316"
       d="M 600.57297,328.61329 C 457.54052,195.35858 390.50313,172.02683 392.25573,243.44809 C 394.58145,132.87069 219.51736,213.14883 120.07318,255.58093"
       style="stroke-opacity:0.80;stroke-miterlimit:4.0000000;stroke-linejoin:round;stroke-linecap:round;stroke-width:0.80;stroke:#000000;fill-rule:evenodd;fill-opacity:1.0000000;fill:none" />
    <path
       id="path1318"
       d="M 595.16542,321.34474 C 544.03966,279.40849 386.39425,142.74097 387.27908,246.95206 C 391.75712,138.84694 200.89863,216.78787 116.31217,245.98310"
       style="stroke-opacity:0.79;stroke-miterlimit:4.0000000;stroke-linejoin:round;stroke-linecap:round;stroke-width:0.79;stroke:#000000;fill-rule:evenodd;fill-opacity:1.0000000;fill:none" />
    <path
       id="path1348"
       d="M 588.95220,312.15997 C 529.45209,267.79246 378.83033,155.16742 382.68670,250.73402 C 388.24530,149.38240 193.87499,212.46562 112.80035,235.44763"
       style="stroke-opacity:0.78;stroke-miterlimit:4.0000000;stroke-linejoin:round;stroke-linecap:round;stroke-width:0.78;stroke:#000000;fill-rule:evenodd;fill-opacity:1.0000000;fill:none" />
    <path
       id="path1350"
       d="M 583.81954,303.24534 C 518.10621,259.14797 378.29005,169.21471 377.82418,252.62500 C 379.06054,160.18801 184.42009,208.14338 109.28853,223.56146"
       style="stroke-opacity:0.77;stroke-miterlimit:4.0000000;stroke-linejoin:round;stroke-linecap:round;stroke-width:0.77;stroke:#000000;fill-rule:evenodd;fill-opacity:1.0000000;fill:none" />
    <path
       id="path1352"
       d="M 578.41674,292.70987 C 494.33388,244.56040 374.50809,185.15298 372.96166,255.59654 C 373.11746,176.39642 204.14033,198.41833 106.58713,210.32459"
       style="stroke-opacity:0.76;stroke-miterlimit:4.0000000;stroke-linejoin:round;stroke-linecap:round;stroke-width:0.76;stroke:#000000;fill-rule:evenodd;fill-opacity:1.0000000;fill:none" />
    <path
       id="path1354"
       d="M 572.47366,281.09384 C 479.47617,237.53675 367.48445,198.93013 368.63942,258.83822 C 369.60564,185.85132 192.25416,194.63636 103.61559,196.81758"
       style="stroke-opacity:0.75;stroke-miterlimit:4.0000000;stroke-linejoin:round;stroke-linecap:round;stroke-width:0.75;stroke:#000000;fill-rule:evenodd;fill-opacity:1.0000000;fill:none" />
    <path
       id="path1356"
       d="M 568.15142,269.47781 C 474.07337,235.64577 364.24277,209.73574 364.04704,260.72920 C 365.01326,198.81805 190.09304,188.15299 100.91419,181.95987"
       style="stroke-opacity:0.74;stroke-miterlimit:4.0000000;stroke-linejoin:round;stroke-linecap:round;stroke-width:0.74;stroke:#000000;fill-rule:evenodd;fill-opacity:1.0000000;fill:none" />
    <path
       id="path1358"
       d="M 562.20834,257.05136 C 474.34351,236.72633 362.35179,218.38022 359.72480,264.78130 C 358.25976,209.08337 178.74715,181.12934 98.482928,166.83202"
       style="stroke-opacity:0.73;stroke-miterlimit:4.0000000;stroke-linejoin:round;stroke-linecap:round;stroke-width:0.73;stroke:#000000;fill-rule:evenodd;fill-opacity:1.0000000;fill:none" />
    <path
       id="path1360"
       d="M 557.07568,243.81449 C 480.82688,235.37563 359.11011,227.83513 355.40256,267.21256 C 351.23612,219.61883 170.37281,172.21471 96.051666,150.89375"
       style="stroke-opacity:0.72;stroke-miterlimit:4.0000000;stroke-linejoin:round;stroke-linecap:round;stroke-width:0.72;stroke:#000000;fill-rule:evenodd;fill-opacity:1.0000000;fill:none" />
    <path
       id="path1362"
       d="M 552.48330,230.57762 C 505.13950,231.05338 349.92535,236.47961 351.08032,271.80494 C 352.58682,233.39598 166.59085,163.57022 93.890545,134.68533"
       style="stroke-opacity:0.71;stroke-miterlimit:4.0000000;stroke-linejoin:round;stroke-linecap:round;stroke-width:0.71;stroke:#000000;fill-rule:evenodd;fill-opacity:1.0000000;fill:none" />
    <path
       id="path1364"
       d="M 546.81036,216.80047 C 499.46656,224.02973 349.11493,247.28522 347.02822,273.69592 C 343.40206,243.66131 162.53875,154.11531 92.539844,118.47692"
       style="stroke-opacity:0.70;stroke-miterlimit:4.0000000;stroke-linejoin:round;stroke-linecap:round;stroke-width:0.70;stroke:#000000;fill-rule:evenodd;fill-opacity:1.0000000;fill:none" />
    <path
       id="path1366"
       d="M 543.02840,203.02332 C 490.01166,221.32832 343.44199,259.98181 342.97612,278.28830 C 342.86178,258.78916 159.02693,148.17222 90.378722,101.45808"
       style="stroke-opacity:0.69;stroke-miterlimit:4.0000000;stroke-linejoin:round;stroke-linecap:round;stroke-width:0.69;stroke:#000000;fill-rule:evenodd;fill-opacity:1.0000000;fill:none" />
    <path
       id="path1368"
       d="M 537.62560,189.51631 C 484.87900,213.76439 338.84961,271.86798 339.19416,280.98970 C 339.07982,271.75589 157.94637,138.98745 88.757881,84.979526"
       style="stroke-opacity:0.68;stroke-miterlimit:4.0000000;stroke-linejoin:round;stroke-linecap:round;stroke-width:0.68;stroke:#000000;fill-rule:evenodd;fill-opacity:1.0000000;fill:none" />
    <path
       id="path1370"
       d="M 532.76308,176.00930 C 481.63732,205.39004 335.60793,282.94373 335.14206,283.69110 C 332.59646,282.02122 162.26862,133.58464 87.677320,69.041254"
       style="stroke-opacity:0.67;stroke-miterlimit:4.0000000;stroke-linejoin:round;stroke-linecap:round;stroke-width:0.67;stroke:#000000;fill-rule:evenodd;fill-opacity:1.0000000;fill:none" />
    <path
       id="path1372"
       d="M 528.71098,162.23215 C 477.85536,195.39485 340.20032,291.31807 331.08996,287.20292 C 322.87142,289.31500 157.13596,121.42833 86.326619,52.832843"
       style="stroke-opacity:0.66;stroke-miterlimit:4.0000000;stroke-linejoin:round;stroke-linecap:round;stroke-width:0.66;stroke:#000000;fill-rule:evenodd;fill-opacity:1.0000000;fill:none" />
    <path
       id="path1374"
       d="M 524.38874,148.99528 C 473.80326,187.29064 332.09612,308.06676 327.30800,289.63418 C 324.49226,309.57551 179.52936,138.51838 85.487961,37.975132"
       style="stroke-opacity:0.65;stroke-miterlimit:4.0000000;stroke-linejoin:round;stroke-linecap:round;stroke-width:0.65;stroke:#000000;fill-rule:evenodd;fill-opacity:1.0000000;fill:none" />
    <path
       id="path1376"
       d="M 520.06650,136.29869 C 471.91228,176.48503 327.23360,320.76335 323.79618,292.60572 C 318.81932,319.57070 177.93676,132.77421 105.50657,48.510599"
       style="stroke-opacity:0.64;stroke-miterlimit:4.0000000;stroke-linejoin:round;stroke-linecap:round;stroke-width:0.64;stroke:#000000;fill-rule:evenodd;fill-opacity:1.0000000;fill:none" />
    <path
       id="path1378"
       d="M 514.93384,124.41252 C 474.88382,168.92110 322.64122,330.21825 320.01422,295.84740 C 316.92834,327.40476 175.50550,136.55617 112.80036,48.510599"
       style="stroke-opacity:0.63;stroke-miterlimit:4.0000000;stroke-linejoin:round;stroke-linecap:round;stroke-width:0.63;stroke:#000000;fill-rule:evenodd;fill-opacity:1.0000000;fill:none" />
    <path
       id="path1380"
       d="M 512.50258,111.44579 C 444.62812,191.88302 315.61758,341.02386 316.50240,297.19810 C 315.84778,344.15345 179.55761,137.63673 117.66289,47.970319"
       style="stroke-opacity:0.62;stroke-miterlimit:4.0000000;stroke-linejoin:round;stroke-linecap:round;stroke-width:0.62;stroke:#000000;fill-rule:evenodd;fill-opacity:1.0000000;fill:none" />
    <path
       id="path1330"
       d="M 508.18034,100.09990 C 448.95037,181.88783 312.64604,354.26073 313.26072,299.35922 C 311.79568,354.41878 179.01733,141.95897 121.71500,47.700179"
       style="stroke-opacity:0.61;stroke-miterlimit:4.0000000;stroke-linejoin:round;stroke-linecap:round;stroke-width:0.61;stroke:#000000;fill-rule:evenodd;fill-opacity:1.0000000;fill:none" />
    <path
       id="path1332"
       d="M 504.12824,89.834570 C 424.09747,205.39002 309.94464,357.50241 309.74890,302.87104 C 306.88463,359.76092 185.26355,150.95374 124.85623,47.944527"
       style="stroke-opacity:0.60;stroke-miterlimit:4.0000000;stroke-linejoin:round;stroke-linecap:round;stroke-width:0.60;stroke:#000000;fill-rule:evenodd;fill-opacity:1.0000000;fill:none" />
    <path
       id="path1334"
       d="M 500.74098,79.672792 C 425.22656,197.20414 305.14603,367.66418 306.36164,305.41148 C 305.19100,369.07588 183.60396,153.84596 127.14844,48.014031"
       style="stroke-opacity:0.59;stroke-miterlimit:4.0000000;stroke-linejoin:round;stroke-linecap:round;stroke-width:0.59;stroke:#000000;fill-rule:evenodd;fill-opacity:1.0000000;fill:none" />
    <path
       id="path1336"
       d="M 497.63599,69.793286 C 426.35565,189.58280 300.62968,378.10823 302.97438,307.66965 C 300.39238,369.92269 210.10486,203.47895 128.52717,47.684951"
       style="stroke-opacity:0.58;stroke-miterlimit:4.0000000;stroke-linejoin:round;stroke-linecap:round;stroke-width:0.58;stroke:#000000;fill-rule:evenodd;fill-opacity:1.0000000;fill:none" />
    <path
       id="path1338"
       d="M 494.24873,61.607410 C 425.22656,183.09055 299.21832,388.55228 299.86939,309.36328 C 295.59376,378.67311 204.77328,203.15616 128.38111,46.727717"
       style="stroke-opacity:0.57;stroke-miterlimit:4.0000000;stroke-linejoin:round;stroke-linecap:round;stroke-width:0.57;stroke:#000000;fill-rule:evenodd;fill-opacity:1.0000000;fill:none" />
    <path
       id="path1340"
       d="M 490.64143,54.392819 C 423.58688,178.49945 294.62722,398.06243 296.59003,311.33090 C 294.28202,387.52739 201.62081,202.99797 127.96419,46.239933"
       style="stroke-opacity:0.56;stroke-miterlimit:4.0000000;stroke-linejoin:round;stroke-linecap:round;stroke-width:0.56;stroke:#000000;fill-rule:evenodd;fill-opacity:1.0000000;fill:none" />
    <path
       id="path1342"
       d="M 487.03414,49.145844 C 422.60308,173.58041 289.05231,406.91670 293.63861,312.97058 C 291.98647,395.39785 199.14949,204.88538 127.98782,46.751887"
       style="stroke-opacity:0.55;stroke-miterlimit:4.0000000;stroke-linejoin:round;stroke-linecap:round;stroke-width:0.55;stroke:#000000;fill-rule:evenodd;fill-opacity:1.0000000;fill:none" />
    <path
       id="path1344"
       d="M 481.13129,49.145844 C 418.01198,174.23628 286.42882,412.81955 290.35925,315.26613 C 290.01885,400.97276 197.32469,206.81729 127.79941,47.956516"
       style="stroke-opacity:0.54;stroke-miterlimit:4.0000000;stroke-linejoin:round;stroke-linecap:round;stroke-width:0.54;stroke:#000000;fill-rule:evenodd;fill-opacity:1.0000000;fill:none" />
    <path
       id="path1346"
       d="M 475.65083,49.270626 C 415.10285,175.13247 284.61061,418.81963 287.45012,317.44798 C 284.01877,406.24556 193.38703,207.71347 126.43308,48.595563"
       style="stroke-opacity:0.53;stroke-miterlimit:4.0000000;stroke-linejoin:round;stroke-linecap:round;stroke-width:0.53;stroke:#000000;fill-rule:evenodd;fill-opacity:1.0000000;fill:none" />
    <path
       id="path1349"
       d="M 471.27957,49.013493 C 413.30292,174.87534 279.21082,425.24795 284.62166,319.24791 C 281.44744,411.90248 190.30144,207.45634 124.63315,48.081297"
       style="stroke-opacity:0.52;stroke-miterlimit:4.0000000;stroke-linejoin:round;stroke-linecap:round;stroke-width:0.52;stroke:#000000;fill-rule:evenodd;fill-opacity:1.0000000;fill:none" />
    <path
       id="path1351"
       d="M 467.67970,49.013493 C 409.70305,174.87534 277.66802,429.36208 281.53606,321.81924 C 278.87610,416.53088 187.47297,208.74201 122.83321,48.338430"
       style="stroke-opacity:0.51;stroke-miterlimit:4.0000000;stroke-linejoin:round;stroke-linecap:round;stroke-width:0.51;stroke:#000000;fill-rule:evenodd;fill-opacity:1.0000000;fill:none" />
    <path
       id="path1353"
       d="M 464.59411,49.013493 C 406.10319,174.87534 273.55390,433.99047 278.70760,323.61917 C 276.81904,420.90214 184.90164,209.25628 120.26188,48.081297"
       style="stroke-opacity:0.50;stroke-miterlimit:4.0000000;stroke-linejoin:round;stroke-linecap:round;stroke-width:0.50;stroke:#000000;fill-rule:evenodd;fill-opacity:1.0000000;fill:none" />
    <path
       id="path1355"
       d="M 462.79417,47.727828 C 405.33179,174.36107 272.52536,438.10460 275.62200,325.41910 C 271.93351,424.75913 180.27324,209.77055 116.91915,48.081297"
       style="stroke-opacity:0.49;stroke-miterlimit:4.0000000;stroke-linejoin:round;stroke-linecap:round;stroke-width:0.49;stroke:#000000;fill-rule:evenodd;fill-opacity:1.0000000;fill:none" />
    <path
       id="path1357"
       d="M 460.47997,48.242093 C 403.01759,174.87533 269.18263,441.19019 273.05067,327.47616 C 269.61931,427.84472 177.70191,210.54195 114.34782,48.852695"
       style="stroke-opacity:0.48;stroke-miterlimit:4.0000000;stroke-linejoin:round;stroke-linecap:round;stroke-width:0.48;stroke:#000000;fill-rule:evenodd;fill-opacity:1.0000000;fill:none" />
    <path
       id="path1359"
       d="M 459.27657,48.144322 C 401.55706,174.52043 265.58277,443.76152 270.22221,329.01896 C 267.56225,431.18745 173.33065,208.74202 109.97656,47.052765"
       style="stroke-opacity:0.47;stroke-miterlimit:4.0000000;stroke-linejoin:round;stroke-linecap:round;stroke-width:0.47;stroke:#000000;fill-rule:evenodd;fill-opacity:1.0000000;fill:none" />
    <path
       id="path1361"
       d="M 458.56590,48.184378 C 400.33212,173.78909 261.98291,444.53292 267.65088,331.33316 C 264.99092,432.21599 169.47366,208.74202 106.11957,47.052765"
       style="stroke-opacity:0.46;stroke-miterlimit:4.0000000;stroke-linejoin:round;stroke-linecap:round;stroke-width:0.46;stroke:#000000;fill-rule:evenodd;fill-opacity:1.0000000;fill:none" />
    <path
       id="path1363"
       d="M 460.17487,45.569231 C 401.94109,171.17394 261.60393,447.15617 264.82242,333.13309 C 260.60848,433.75320 165.35954,210.02768 101.74831,48.338429"
       style="stroke-opacity:0.45;stroke-miterlimit:4.0000000;stroke-linejoin:round;stroke-linecap:round;stroke-width:0.45;stroke:#000000;fill-rule:evenodd;fill-opacity:1.0000000;fill:none" />
    <path
       id="path1365"
       d="M 459.33588,46.890762 C 401.10210,172.49548 258.46543,447.27272 262.10000,334.86554 C 258.62854,434.24819 161.11662,208.71913 96.745141,48.296957"
       style="stroke-opacity:0.44;stroke-miterlimit:4.0000000;stroke-linejoin:round;stroke-linecap:round;stroke-width:0.44;stroke:#000000;fill-rule:evenodd;fill-opacity:1.0000000;fill:none" />
    <path
       id="path1389"
       d="M 457.15751,56.067024 C 419.26808,131.29303 255.05870,453.74681 259.65615,336.95427 C 256.12996,440.10997 143.22940,174.92083 90.224310,46.579793"
       style="stroke-opacity:0.43;stroke-miterlimit:4.0000000;stroke-linejoin:round;stroke-linecap:round;stroke-width:0.43;stroke:#000000;fill-rule:evenodd;fill-opacity:1.0000000;fill:none" />
    <path
       id="path1387"
       d="M 454.93866,65.113113 C 417.21991,139.99776 250.79168,450.67455 257.26662,339.00244 C 254.59383,438.74452 138.79170,175.94491 84.591839,48.457283"
       style="stroke-opacity:0.42;stroke-miterlimit:4.0000000;stroke-linejoin:round;stroke-linecap:round;stroke-width:0.42;stroke:#000000;fill-rule:evenodd;fill-opacity:1.0000000;fill:none" />
    <path
       id="path1385"
       d="M 453.23185,75.183287 C 414.83038,149.72658 250.96236,447.26093 254.70641,340.36789 C 250.15613,437.20840 132.47651,175.09151 76.740516,48.286602"
       style="stroke-opacity:0.41;stroke-miterlimit:4.0000000;stroke-linejoin:round;stroke-linecap:round;stroke-width:0.41;stroke:#000000;fill-rule:evenodd;fill-opacity:1.0000000;fill:none" />
    <path
       id="path1383"
       d="M 451.35436,86.618909 C 411.41677,160.47948 248.91419,442.48186 252.14620,342.24538 C 248.79068,434.98955 125.64928,173.38470 68.035789,46.750473"
       style="stroke-opacity:0.40;stroke-miterlimit:4.0000000;stroke-linejoin:round;stroke-linecap:round;stroke-width:0.40;stroke:#000000;fill-rule:evenodd;fill-opacity:1.0000000;fill:none" />
    <path
       id="path1381"
       d="M 449.30619,99.761340 C 407.32043,172.59783 244.81785,437.02007 249.75667,343.95219 C 246.23047,430.38117 120.18749,174.40879 59.501743,48.457282"
       style="stroke-opacity:0.39;stroke-miterlimit:4.0000000;stroke-linejoin:round;stroke-linecap:round;stroke-width:0.39;stroke:#000000;fill-rule:evenodd;fill-opacity:1.0000000;fill:none" />
    <path
       id="path1552"
       d="M 447.59938,114.43990 C 402.20001,187.27639 243.62309,429.33943 247.36714,345.65900 C 245.71843,428.84504 111.65345,170.99517 47.554078,46.579792"
       style="stroke-opacity:0.38;stroke-miterlimit:4.0000000;stroke-linejoin:round;stroke-linecap:round;stroke-width:0.38;stroke:#000000;fill-rule:evenodd;fill-opacity:1.0000000;fill:none" />
    <path
       id="path1550"
       d="M 445.72189,129.80118 C 397.93299,200.58950 243.96445,421.82947 244.97761,347.70717 C 240.76869,421.84712 102.09532,171.67789 35.094370,47.774558"
       style="stroke-opacity:0.37;stroke-miterlimit:4.0000000;stroke-linejoin:round;stroke-linecap:round;stroke-width:0.37;stroke:#000000;fill-rule:evenodd;fill-opacity:1.0000000;fill:none" />
    <path
       id="path1548"
       d="M 444.01508,146.86927 C 394.00733,215.60942 239.86811,415.51427 242.58808,348.56057 C 239.91529,417.75077 91.001062,169.80040 20.245129,48.627963"
       style="stroke-opacity:0.36;stroke-miterlimit:4.0000000;stroke-linejoin:round;stroke-linecap:round;stroke-width:0.36;stroke:#000000;fill-rule:evenodd;fill-opacity:1.0000000;fill:none" />
    <path
       id="path1546"
       d="M 441.62555,165.98553 C 386.66805,231.82411 237.81994,405.95614 240.36923,350.77942 C 237.52576,405.63242 94.926723,194.03709 20.074448,77.131678"
       style="stroke-opacity:0.35;stroke-miterlimit:4.0000000;stroke-linejoin:round;stroke-linecap:round;stroke-width:0.35;stroke:#000000;fill-rule:evenodd;fill-opacity:1.0000000;fill:none" />
    <path
       id="path1544"
       d="M 439.40670,185.95520 C 380.01150,250.08697 234.91837,396.73937 238.15038,351.80351 C 238.03781,397.95178 101.41260,216.90834 19.903767,106.14744"
       style="stroke-opacity:0.34;stroke-miterlimit:4.0000000;stroke-linejoin:round;stroke-linecap:round;stroke-width:0.34;stroke:#000000;fill-rule:evenodd;fill-opacity:1.0000000;fill:none" />
    <path
       id="path1542"
       d="M 438.89466,205.58351 C 370.11201,268.69119 234.40633,387.86396 235.93153,353.33964 C 233.25875,386.17480 108.06916,241.31571 20.074448,135.84592"
       style="stroke-opacity:0.33;stroke-miterlimit:4.0000000;stroke-linejoin:round;stroke-linecap:round;stroke-width:0.33;stroke:#000000;fill-rule:evenodd;fill-opacity:1.0000000;fill:none" />
    <path
       id="path1379"
       d="M 436.21302,228.31892 C 359.50786,282.83269 233.45683,377.41944 233.65273,354.85884 C 231.00578,378.28160 118.94978,260.02272 20.212681,164.22108"
       style="stroke-opacity:0.32;stroke-miterlimit:4.0000000;stroke-linejoin:round;stroke-linecap:round;stroke-width:0.32;stroke:#000000;fill-rule:evenodd;fill-opacity:1.0000000;fill:none" />
    <path
       id="path1377"
       d="M 435.84996,251.09021 C 327.69924,310.65482 231.06836,367.05075 231.33451,356.12332 C 229.82583,366.66631 128.17994,280.77257 20.012560,193.50959"
       style="stroke-opacity:0.31;stroke-miterlimit:4.0000000;stroke-linejoin:round;stroke-linecap:round;stroke-width:0.31;stroke:#000000;fill-rule:evenodd;fill-opacity:1.0000000;fill:none" />
    <path
       id="path1375"
       d="M 434.05773,275.69269 C 339.10437,314.07635 242.16327,351.74208 229.54228,357.91555 C 223.42019,352.21126 106.67313,279.14326 20.175490,222.51119"
       style="stroke-opacity:0.30;stroke-miterlimit:4.0000000;stroke-linejoin:round;stroke-linecap:round;stroke-width:0.30;stroke:#000000;fill-rule:evenodd;fill-opacity:1.0000000;fill:none" />
    <path
       id="path1373"
       d="M 432.52760,301.42506 C 319.65190,328.40360 225.23622,347.57319 227.41356,359.86717 C 227.39782,345.46382 112.31194,295.91446 19.948805,251.17631"
       style="stroke-opacity:0.29;stroke-miterlimit:4.0000000;stroke-linejoin:round;stroke-linecap:round;stroke-width:0.29;stroke:#000000;fill-rule:evenodd;fill-opacity:1.0000000;fill:none" />
    <path
       id="path1371"
       d="M 431.51634,328.41206 C 344.54657,329.64760 224.19893,336.75763 225.26179,361.27410 C 229.06857,333.62145 65.872067,291.59586 20.141368,277.76715"
       style="stroke-opacity:0.28;stroke-miterlimit:4.0000000;stroke-linejoin:round;stroke-linecap:round;stroke-width:0.28;stroke:#000000;fill-rule:evenodd;fill-opacity:1.0000000;fill:none" />
    <path
       id="path1393"
       d="M 429.98292,356.22123 C 316.56219,335.12040 222.95941,330.91530 223.28752,361.89756 C 224.31613,330.22890 130.38834,314.48643 20.202560,304.23194"
       style="stroke-opacity:0.27;stroke-miterlimit:4.0000000;stroke-linejoin:round;stroke-linecap:round;stroke-width:0.27;stroke:#000000;fill-rule:evenodd;fill-opacity:1.0000000;fill:none" />
    <path
       id="path1367"
       d="M 427.84798,384.94057 C 315.31421,341.15893 222.59839,320.98856 221.40600,362.61433 C 223.89890,320.49936 126.91827,321.27775 20.169178,329.57107"
       style="stroke-opacity:0.26;stroke-miterlimit:4.0000000;stroke-linejoin:round;stroke-linecap:round;stroke-width:0.26;stroke:#000000;fill-rule:evenodd;fill-opacity:1.0000000;fill:none" />
    <path
       id="path1391"
       d="M 427.16526,415.32177 C 306.95085,341.84165 220.72090,313.64928 219.18715,364.83318 C 222.87482,312.81872 130.50257,324.86205 19.827816,353.80776"
       style="stroke-opacity:0.25;stroke-miterlimit:4.0000000;stroke-linejoin:round;stroke-linecap:round;stroke-width:0.25;stroke:#000000;fill-rule:evenodd;fill-opacity:1.0000000;fill:none" />
    <path
       id="path1394"
       d="M 425.62913,446.21502 C 305.07336,346.96208 219.35545,303.23775 217.30966,366.02795 C 221.85073,305.13808 135.62300,327.76363 20.339859,377.02037"
       style="stroke-opacity:0.24;stroke-miterlimit:4.0000000;stroke-linejoin:round;stroke-linecap:round;stroke-width:0.24;stroke:#000000;fill-rule:evenodd;fill-opacity:1.0000000;fill:none" />
    <path
       id="path1396"
       d="M 424.26368,477.44963 C 300.29429,348.83957 218.16068,294.87439 215.43217,367.22272 C 220.48528,297.11608 134.94028,330.15317 20.169178,399.37957"
       style="stroke-opacity:0.23;stroke-miterlimit:4.0000000;stroke-linejoin:round;stroke-linecap:round;stroke-width:0.23;stroke:#000000;fill-rule:evenodd;fill-opacity:1.0000000;fill:none" />
    <path
       id="path1398"
       d="M 422.55687,509.36697 C 300.46497,354.47204 215.77115,284.46286 213.55468,368.58817 C 220.31460,284.14433 125.04078,341.07675 19.827816,420.37333"
       style="stroke-opacity:0.22;stroke-miterlimit:4.0000000;stroke-linejoin:round;stroke-linecap:round;stroke-width:0.22;stroke:#000000;fill-rule:evenodd;fill-opacity:1.0000000;fill:none" />
    <path
       id="path1400"
       d="M 421.02074,541.62567 C 291.76024,347.64481 216.28319,279.51312 211.67719,369.95362 C 217.97906,271.97027 117.87218,350.56348 19.998497,439.48960"
       style="stroke-opacity:0.21;stroke-miterlimit:4.0000000;stroke-linejoin:round;stroke-linecap:round;stroke-width:0.21;stroke:#000000;fill-rule:evenodd;fill-opacity:1.0000000;fill:none" />
    <path
       id="path1402"
       d="M 419.67272,574.87698 C 297.60170,363.37178 214.03649,265.35884 209.87983,371.07697 C 217.08038,271.52092 132.92515,338.65591 19.998497,458.13729"
       style="stroke-opacity:0.20;stroke-miterlimit:4.0000000;stroke-linejoin:round;stroke-linecap:round;stroke-width:0.20;stroke:#000000;fill-rule:evenodd;fill-opacity:1.0000000;fill:none" />
    <path
       id="path1404"
       d="M 403.72108,580.04441 C 287.26684,360.45105 214.26117,259.06804 208.08247,372.42499 C 215.28302,258.04065 124.61233,351.68683 19.998497,475.66163"
       style="stroke-opacity:0.19;stroke-miterlimit:4.0000000;stroke-linejoin:round;stroke-linecap:round;stroke-width:0.19;stroke:#000000;fill-rule:evenodd;fill-opacity:1.0000000;fill:none" />
    <path
       id="path1406"
       d="M 388.21879,580.26907 C 281.42541,359.55236 212.68848,253.67593 206.06044,373.99768 C 215.73237,246.58242 117.19819,362.92037 19.773826,491.61327"
       style="stroke-opacity:0.18;stroke-miterlimit:4.0000000;stroke-linejoin:round;stroke-linecap:round;stroke-width:0.18;stroke:#000000;fill-rule:evenodd;fill-opacity:1.0000000;fill:none" />
    <path
       id="path1408"
       d="M 375.18788,580.26906 C 277.38134,356.40696 211.34046,248.50849 204.48775,375.12103 C 214.38435,236.24755 111.58142,371.45786 19.998497,505.31820"
       style="stroke-opacity:0.17;stroke-miterlimit:4.0000000;stroke-linejoin:round;stroke-linecap:round;stroke-width:0.17;stroke:#000000;fill-rule:evenodd;fill-opacity:1.0000000;fill:none" />
    <path
       id="path1410"
       d="M 364.17901,580.26906 C 271.31523,353.71090 210.89113,244.46441 202.69039,376.01971 C 212.58699,225.46334 107.53735,382.01740 20.223168,518.79846"
       style="stroke-opacity:0.16;stroke-miterlimit:4.0000000;stroke-linejoin:round;stroke-linecap:round;stroke-width:0.16;stroke:#000000;fill-rule:evenodd;fill-opacity:1.0000000;fill:none" />
    <path
       id="path1412"
       d="M 354.06882,579.37037 C 269.06853,351.68885 207.52107,239.74631 200.89303,377.36773 C 213.26101,215.80248 104.16729,390.55489 20.223168,530.93069"
       style="stroke-opacity:0.15;stroke-miterlimit:4.0000000;stroke-linejoin:round;stroke-linecap:round;stroke-width:0.15;stroke:#000000;fill-rule:evenodd;fill-opacity:1.0000000;fill:none" />
    <path
       id="path1414"
       d="M 345.75600,580.26905 C 264.57512,351.91352 206.39772,234.80354 199.09567,378.49108 C 211.01431,205.91695 101.02191,401.11443 19.998497,543.06292"
       style="stroke-opacity:0.14;stroke-miterlimit:4.0000000;stroke-linejoin:round;stroke-linecap:round;stroke-width:0.14;stroke:#000000;fill-rule:evenodd;fill-opacity:1.0000000;fill:none" />
    <path
       id="path1416"
       d="M 339.01588,580.49372 C 262.55308,352.36286 206.84707,229.86077 197.52298,379.61443 C 209.21695,197.82879 98.101190,407.40522 19.998497,551.60041"
       style="stroke-opacity:0.13;stroke-miterlimit:4.0000000;stroke-linejoin:round;stroke-linecap:round;stroke-width:0.13;stroke:#000000;fill-rule:evenodd;fill-opacity:1.0000000;fill:none" />
    <path
       id="path1418"
       d="M 332.05108,580.26904 C 259.85703,350.34081 204.15102,226.26603 195.95029,380.73778 C 209.66630,189.74063 93.383098,416.84139 19.773826,560.81192"
       style="stroke-opacity:0.12;stroke-miterlimit:4.0000000;stroke-linejoin:round;stroke-linecap:round;stroke-width:0.12;stroke:#000000;fill-rule:evenodd;fill-opacity:1.0000000;fill:none" />
    <path
       id="path1420"
       d="M 326.20964,579.81969 C 256.08022,349.63338 202.86982,221.90624 194.15293,382.08580 C 208.85866,181.99240 90.911717,424.70487 19.773826,568.90007"
       style="stroke-opacity:0.11;stroke-miterlimit:4.0000000;stroke-linejoin:round;stroke-linecap:round;stroke-width:0.11;stroke:#000000;fill-rule:evenodd;fill-opacity:1.0000000;fill:none" />
    <path
       id="path1422"
       d="M 320.78997,580.59393 C 252.98326,350.14954 202.09558,217.77697 192.60445,383.11812 C 208.60058,176.57274 89.879402,428.57606 20.031907,575.61013"
       style="stroke-opacity:0.10;stroke-miterlimit:4.0000000;stroke-linejoin:round;stroke-linecap:round;stroke-width:0.10;stroke:#000000;fill-rule:evenodd;fill-opacity:1.0000000;fill:none" />
    <path
       id="path1424"
       d="M 317.17686,582.65857 C 251.58297,351.93757 202.48332,213.55384 191.05597,384.15044 C 205.66909,170.69000 88.496391,432.13360 20.031909,579.99748"
       style="stroke-opacity:0.09;stroke-miterlimit:4.0000000;stroke-linejoin:round;stroke-linecap:round;stroke-width:0.09;stroke:#000000;fill-rule:evenodd;fill-opacity:1.0000000;fill:none" />
    <path
       id="path1426"
       d="M 312.19803,581.27554 C 249.37016,349.72474 200.54712,211.89421 189.39637,385.53344 C 205.39250,169.03037 89.326196,429.92077 21.691521,580.55067"
       style="stroke-opacity:0.08;stroke-miterlimit:4.0000000;stroke-linejoin:round;stroke-linecap:round;stroke-width:0.08;stroke:#000000;fill-rule:evenodd;fill-opacity:1.0000000;fill:none" />
    <path
       id="path1428"
       d="M 307.77240,579.89252 C 246.32754,348.34172 198.33431,209.95798 188.01337,386.63984 C 204.28610,166.26433 90.709206,430.75057 23.074531,581.38047"
       style="stroke-opacity:0.07;stroke-miterlimit:4.0000000;stroke-linejoin:round;stroke-linecap:round;stroke-width:0.07;stroke:#000000;fill-rule:evenodd;fill-opacity:1.0000000;fill:none" />
    <path
       id="path1430"
       d="M 304.45318,580.99892 C 244.66794,349.44812 197.50452,207.19194 186.35377,387.74624 C 203.73291,162.94509 91.262408,432.13357 23.904336,582.21027"
       style="stroke-opacity:0.06;stroke-miterlimit:4.0000000;stroke-linejoin:round;stroke-linecap:round;stroke-width:0.06;stroke:#000000;fill-rule:evenodd;fill-opacity:1.0000000;fill:none" />
    <path
       id="path1432"
       d="M 301.68717,581.27551 C 243.28494,349.44811 196.12152,205.80892 184.97077,388.85264 C 200.41369,160.73226 92.092213,432.68676 24.734141,582.76346"
       style="stroke-opacity:0.05;stroke-miterlimit:4.0000000;stroke-linejoin:round;stroke-linecap:round;stroke-width:0.05;stroke:#000000;fill-rule:evenodd;fill-opacity:1.0000000;fill:none" />
    <path
       id="path1434"
       d="M 298.36795,581.55210 C 241.34873,349.72470 195.56833,204.42590 183.58777,389.95904 C 200.69031,158.24283 92.092211,432.96335 24.734139,583.04005"
       style="stroke-opacity:0.04;stroke-miterlimit:4.0000000;stroke-linejoin:round;stroke-linecap:round;stroke-width:0.04;stroke:#000000;fill-rule:evenodd;fill-opacity:1.0000000;fill:none" />
    <path
       id="path1436"
       d="M 295.32533,580.16908 C 239.41252,348.34168 194.73854,204.42589 182.20477,391.06544 C 199.58391,156.58320 92.092209,433.23994 24.734137,583.31664"
       style="stroke-opacity:0.03;stroke-miterlimit:4.0000000;stroke-linejoin:round;stroke-linecap:round;stroke-width:0.03;stroke:#000000;fill-rule:evenodd;fill-opacity:1.0000000;fill:none" />
    <path
       id="path1438"
       d="M 293.59840,580.74472 C 237.68559,348.91732 194.45073,203.56241 181.05349,391.92890 C 198.14481,155.14407 92.955681,434.39122 24.446315,583.60445"
       style="stroke-opacity:0.02;stroke-miterlimit:4.0000000;stroke-linejoin:round;stroke-linecap:round;stroke-width:0.02;stroke:#000000;fill-rule:evenodd;fill-opacity:1.0000000;fill:none" />
    <path
       id="path1440"
       d="M 292.73494,581.60818 C 236.82213,349.78078 193.58727,202.69893 180.19003,392.79236 C 197.28135,154.85624 94.106976,432.08862 24.446316,583.31662"
       style="stroke-opacity:0.01;stroke-miterlimit:4.0000000;stroke-linejoin:round;stroke-linecap:round;stroke-width:0.01;stroke:#000000;fill-rule:evenodd;fill-opacity:1.0000000;fill:none" />
  </g>
</svg>
