<?xml version="1.0" encoding="UTF-8" standalone="no"?>
<!-- Generator: Adobe Illustrator 12.0.0, SVG Export Plug-In . SVG Version: 6.00 Build 51448)  -->
<svg
   xmlns:ns0="http://ns.adobe.com/SaveForWeb/1.0/"
   xmlns:ns="http://ns.adobe.com/Variables/1.0/"
   xmlns:i="http://ns.adobe.com/AdobeIllustrator/10.0/"
   xmlns:dc="http://purl.org/dc/elements/1.1/"
   xmlns:cc="http://creativecommons.org/ns#"
   xmlns:rdf="http://www.w3.org/1999/02/22-rdf-syntax-ns#"
   xmlns:svg="http://www.w3.org/2000/svg"
   xmlns="http://www.w3.org/2000/svg"
   xmlns:sodipodi="http://sodipodi.sourceforge.net/DTD/sodipodi-0.dtd"
   xmlns:inkscape="http://www.inkscape.org/namespaces/inkscape"
   version="1.1"
   i:viewOrigin="25.3228 464.3589"
   i:rulerOrigin="18 -288"
   i:pageBounds="-18 504 630 288"
   width="563.625"
   height="157.656"
   viewBox="0 0 563.625 157.656"
   overflow="visible"
   enable-background="new 0 0 563.625 157.656"
   xml:space="preserve"
   id="svg2"
   sodipodi:version="0.32"
   inkscape:version="0.46"
   sodipodi:docname="ooo-3-logo-col-rgb.svg"
   inkscape:output_extension="org.inkscape.output.svg.inkscape"><defs
   id="defs49"><inkscape:perspective
   sodipodi:type="inkscape:persp3d"
   inkscape:vp_x="0 : 78.828003 : 1"
   inkscape:vp_y="0 : 1000 : 0"
   inkscape:vp_z="563.625 : 78.828003 : 1"
   inkscape:persp3d-origin="281.8125 : 52.552002 : 1"
   id="perspective51" />
	
	
</defs><sodipodi:namedview
   inkscape:window-height="1125"
   inkscape:window-width="1920"
   inkscape:pageshadow="2"
   inkscape:pageopacity="0.0"
   guidetolerance="10.0"
   gridtolerance="10.0"
   objecttolerance="10.0"
   borderopacity="1.0"
   bordercolor="#666666"
   pagecolor="#ffffff"
   id="base"
   showgrid="false"
   inkscape:zoom="1"
   inkscape:cx="-17.083569"
   inkscape:cy="73.906097"
   inkscape:window-x="0"
   inkscape:window-y="25"
   inkscape:current-layer="g43" />
<metadata
   id="metadata4">
	<ns:variableSets>
		<ns:variableSet
   locked="none"
   varSetName="binding1">
			<ns:variables />
			<ns:sampleDataSets>
				</ns:sampleDataSets>
		</ns:variableSet>
	</ns:variableSets>
	<ns0:sfw>
		<ns0:slices />
		<ns0:sliceSourceBounds
   y="306.703"
   x="25.323"
   width="563.625"
   height="157.656"
   bottomLeftOrigin="true" />
	</ns0:sfw>
<rdf:RDF><cc:Work
     rdf:about=""><dc:format>image/svg+xml</dc:format><dc:type
       rdf:resource="http://purl.org/dc/dcmitype/StillImage" /><cc:license
       rdf:resource="http://artlibre.org/licence.php/lalgb.html" /><dc:title>OpenOffice Logo version 3</dc:title><dc:creator><cc:Agent><dc:title>mallow</dc:title></cc:Agent></dc:creator></cc:Work><cc:License
     rdf:about="http://artlibre.org/licence.php/lalgb.html"><cc:permits
       rdf:resource="http://creativecommons.org/ns#Reproduction" /><cc:permits
       rdf:resource="http://creativecommons.org/ns#Distribution" /><cc:permits
       rdf:resource="http://creativecommons.org/ns#DerivativeWorks" /><cc:requires
       rdf:resource="http://creativecommons.org/ns#ShareAlike" /><cc:requires
       rdf:resource="http://creativecommons.org/ns#Notice" /><cc:requires
       rdf:resource="http://creativecommons.org/ns#Attribution" /></cc:License></rdf:RDF></metadata>
<g
   id="g7">
		<path
   id="path9"
   d="M 12.854,102.637 C 12.854,83.941 19.184,77.222 27.071,77.222 C 34.958,77.222 41.288,83.941 41.288,102.637 C 41.288,121.333 34.958,128.054 27.071,128.054 C 19.184,128.054 12.854,121.333 12.854,102.637 z M 0,102.637 C 0,127.079 12.951,137.596 27.071,137.596 C 41.191,137.596 54.142,127.079 54.142,102.637 C 54.142,78.196 41.191,67.679 27.071,67.679 C 12.951,67.679 0,78.196 0,102.637 z"
   i:knockout="Off" />
		<path
   id="path11"
   d="M 70.5,111.694 C 70.5,102.248 72.935,94.555 80.043,94.555 C 87.054,94.555 88.904,100.398 88.904,111.986 C 88.904,122.016 86.567,128.541 79.848,128.541 C 73.228,128.541 70.5,121.432 70.5,111.694 z M 58.426,157.656 L 70.5,157.656 L 70.5,129.417 L 70.695,129.417 C 72.448,133.313 76.441,137.402 83.646,137.402 C 94.456,137.402 100.979,127.859 100.979,111.5 C 100.979,97.574 95.818,85.693 83.354,85.693 C 75.563,85.693 71.961,89.979 70.013,94.263 L 69.721,94.263 C 69.721,90.855 69.527,87.933 69.332,86.473 L 58.036,86.473 C 58.328,88.324 58.426,91.439 58.426,95.041 L 58.426,157.656 z"
   i:knockout="Off" />
		<path
   id="path13"
   d="M 115.975,107.214 C 115.975,100.592 118.604,93.873 124.934,93.873 C 130.387,93.873 133.308,98.352 133.308,107.214 L 115.975,107.214 z M 141.877,124.645 C 139.637,126.3 136.131,128.541 128.731,128.541 C 119.383,128.541 115.975,123.38 115.975,114.811 L 144.994,114.811 L 144.994,112.473 C 144.994,92.024 135.743,85.694 124.934,85.694 C 112.177,85.694 104.29,97.283 104.29,112.28 C 104.29,125.815 111.301,137.403 127.466,137.403 C 134.672,137.403 139.93,135.26 142.462,134.189 L 141.877,124.645 z"
   i:knockout="Off" />
		<path
   id="path15"
   d="M 148.499,94.75 C 148.499,91.634 148.402,88.713 148.109,86.474 L 159.405,86.474 C 159.502,89.005 159.794,91.634 159.794,94.166 L 160.086,94.166 L 159.988,94.166 C 161.741,91.147 165.15,85.693 173.329,85.693 C 184.722,85.693 188.13,94.166 188.13,104.294 L 188.13,136.623 L 176.055,136.623 L 176.055,106.533 C 176.055,98.84 174.108,95.627 169.141,95.627 C 162.811,95.627 160.572,100.982 160.572,107.409 L 160.572,136.623 L 148.497,136.623 L 148.497,94.75 L 148.499,94.75 z"
   i:knockout="Off" />
		<path
   style="fill:#000000"
   id="path17"
   d="M 205.075,102.637 C 205.075,83.941 211.405,77.222 219.292,77.222 C 227.18,77.222 233.509,83.941 233.509,102.637 C 233.509,121.333 227.18,128.054 219.292,128.054 C 211.404,128.054 205.075,121.333 205.075,102.637 z M 192.221,102.637 C 192.221,127.079 205.172,137.596 219.292,137.596 C 233.412,137.596 246.364,127.079 246.364,102.637 C 246.364,78.196 233.412,67.679 219.292,67.679 C 205.172,67.679 192.221,78.196 192.221,102.637 z"
   i:knockout="Off" />
		<path
   style="fill:#000000"
   id="path19"
   d="M 254.347,95.333 L 245.972,95.333 L 245.972,86.473 L 254.347,86.473 L 254.347,76.248 C 254.347,69.043 257.755,62.421 268.758,62.421 C 271.973,62.421 275.088,63.103 277.425,63.589 L 276.939,72.353 C 275.478,71.963 273.92,71.574 272.168,71.574 C 268.661,71.574 266.422,74.009 266.422,77.806 L 266.422,86.473 L 275.576,86.473 L 275.576,95.333 L 266.422,95.333 L 266.422,136.622 L 254.348,136.622 L 254.348,95.333 L 254.347,95.333 z"
   i:knockout="Off" />
		<path
   style="fill:#000000"
   id="path21"
   d="M 285.798,95.333 L 277.424,95.333 L 277.424,86.473 L 285.798,86.473 L 285.798,76.248 C 285.798,69.043 289.206,62.421 300.21,62.421 C 303.424,62.421 306.54,63.103 308.877,63.589 L 308.39,72.353 C 306.93,71.963 305.371,71.574 303.619,71.574 C 300.114,71.574 297.875,74.009 297.875,77.806 L 297.875,86.473 L 307.027,86.473 L 307.027,95.333 L 297.875,95.333 L 297.875,136.622 L 285.799,136.622 L 285.799,95.333 L 285.798,95.333 z"
   i:knockout="Off" />
		<path
   style="fill:#000000"
   id="path23"
   d="M 314.525,86.473 L 326.599,86.473 L 326.599,136.622 L 314.525,136.622 L 314.525,86.473 z"
   i:knockout="Off" />
		<path
   style="fill:#000000"
   id="path25"
   d="M 366.912,135.357 C 364.09,136.428 359.902,137.402 355.033,137.402 C 338.478,137.402 331.469,125.814 331.469,111.596 C 331.469,97.282 338.869,85.693 355.715,85.693 C 359.512,85.693 363.992,86.862 366.233,87.739 L 365.549,97.282 C 363.408,96.211 360.389,94.847 357.078,94.847 C 347.926,94.847 343.932,100.982 343.932,111.694 C 343.932,121.043 348.412,128.248 357.662,128.248 C 360.584,128.248 364.576,126.885 366.232,125.814 L 366.912,135.357 z"
   i:knockout="Off" />
		<path
   style="fill:#000000"
   id="path27"
   d="M 378.792,107.214 C 378.792,100.592 381.421,93.873 387.751,93.873 C 393.204,93.873 396.124,98.352 396.124,107.214 L 378.792,107.214 z M 404.695,124.645 C 402.455,126.3 398.951,128.541 391.549,128.541 C 382.201,128.541 378.793,123.38 378.793,114.811 L 407.813,114.811 L 407.813,112.473 C 407.813,92.024 398.561,85.694 387.752,85.694 C 374.994,85.694 367.107,97.283 367.107,112.28 C 367.107,125.815 374.117,137.403 390.283,137.403 C 397.488,137.403 402.748,135.26 405.279,134.189 L 404.695,124.645 z"
   i:knockout="Off" />
		<path
   style="fill:#000000"
   id="path29"
   d="M 419.949,132.333 C 419.949,136.097 419.123,137.15 415.207,137.15 C 411.219,137.15 410.389,136.096 410.389,132.333 C 410.389,128.645 411.219,127.439 415.207,127.439 C 419.197,127.439 419.949,128.493 419.949,132.333 z"
   i:knockout="Off" />
		<path
   style="fill:#000000"
   id="path31"
   d="M 327.394,70.977 C 327.394,76.32 326.22,77.815 320.665,77.815 C 315.003,77.815 313.825,76.32 313.825,70.977 C 313.825,65.743 315.003,64.033 320.665,64.033 C 326.327,64.033 327.394,65.528 327.394,70.977 z"
   i:knockout="Off" />
		<path
   style="fill:#000000"
   id="path33"
   d="M 426.65,117.427 C 426.65,107.791 429.433,102.823 435.457,102.823 C 441.478,102.823 444.264,107.791 444.264,117.427 C 444.264,127.062 441.479,132.031 435.457,132.031 C 429.433,132.031 426.65,127.062 426.65,117.427 z M 420.025,117.427 C 420.025,129.471 425.295,137.15 435.457,137.15 C 445.619,137.15 450.889,129.471 450.889,117.427 C 450.889,105.383 445.619,97.704 435.457,97.704 C 425.295,97.704 420.025,105.383 420.025,117.427 z"
   i:knockout="Off" />
		<path
   style="fill:#000000"
   id="path35"
   d="M 455.179,106.512 C 455.179,103.726 454.95,100.942 454.876,98.232 L 460.974,98.232 L 461.201,104.253 L 461.351,104.253 C 463.384,99.586 466.621,97.704 472.265,97.704 L 472.265,103.952 C 471.513,103.802 470.685,103.725 469.857,103.725 C 464.964,103.725 461.502,107.941 461.502,116.297 L 461.502,136.621 L 455.18,136.621 L 455.18,106.512 L 455.179,106.512 z"
   i:knockout="Off" />
		<path
   style="fill:#000000"
   id="path37"
   d="M 478.136,117.427 C 478.136,107.791 480.771,102.823 486.568,102.823 C 492.365,102.823 495,107.792 495,117.427 C 495,127.062 492.365,132.031 486.568,132.031 C 480.771,132.031 478.136,127.062 478.136,117.427 z M 501.322,105.232 C 501.322,102.898 501.549,100.49 501.625,98.232 L 495.525,98.232 L 495.3,103.802 L 495.148,103.802 C 493.043,100.113 489.58,97.704 485.74,97.704 C 477.158,97.704 471.814,104.178 471.814,117.427 C 471.814,130.675 477.158,137.15 485.062,137.15 C 489.279,137.15 492.666,135.042 495.148,130.675 L 495.3,130.675 L 495.3,136.698 C 495.3,143.321 492.288,147.913 484.534,147.913 C 481.073,147.913 476.706,146.408 473.995,144.6 L 473.695,151 C 476.48,152.129 481.675,153.333 484.912,153.333 C 493.344,153.333 501.322,148.892 501.322,138.278 L 501.322,105.232 z"
   i:knockout="Off" />
		<path
   id="path39"
   d="M 53.516,48.019 C 86.954,38.174 111.606,40.703 129.553,55.562 C 148.05,37.068 185.036,32.447 196.595,34.755 C 162.807,18.895 134.363,29.641 127.725,37.858 C 109.078,27.744 65.075,31.837 53.516,48.019 z"
   i:knockout="Off" />
		<path
   id="path41"
   d="M 139.493,7.311 C 163.438,4.356 183.929,6.824 197.191,17.144 C 212.318,8.301 240.833,8.501 249.542,10.643 C 218.766,-0.603 203.886,3.346 196.445,6.49 C 176.712,-1.017 157.118,-3.544 139.493,7.311 z"
   i:knockout="Off" />
	</g><g
   id="g43"
   i:knockout="Off">
		
	<path
   style="fill:#000000;fill-opacity:1;fill-rule:evenodd;stroke:none;stroke-width:0.1;stroke-linecap:butt;stroke-linejoin:miter;stroke-miterlimit:4;stroke-dasharray:none;stroke-opacity:1"
   d="M 525.52121,70.069063 C 525.52121,70.069063 540.488,64.618092 551.96772,68.645504 C 561.50199,71.990397 562.27401,80.3307 562.30888,84.29013 C 562.32427,86.037942 562.93013,96.957656 552.48477,99.948837 C 562.30557,103.41744 563.74693,112.32961 563.63474,118.34462 C 563.4195,129.92649 556.61178,136.54271 545.72958,137.9506 C 532.40701,139.6688 523.13482,134.89402 523.13482,134.89402 L 523.1907,121.16141 C 523.1907,121.16141 529.60591,126.27547 537.5125,126.29722 C 539.06125,126.30148 542.25042,126.28031 544.90548,125.13475 C 547.56054,123.98919 549.68147,121.71918 549.76263,117.05839 C 549.82153,113.67603 548.63646,110.76911 545.6065,108.99582 C 542.92941,107.42905 539.20671,107.25178 532.38773,107.40063 C 532.38773,104.89997 532.41546,100.77444 532.41546,96.013039 C 537.67668,95.9399 548.97936,97.572632 548.56219,87.359487 C 548.26464,80.074898 542.21591,79.120076 537.97019,79.293813 C 531.48637,79.561773 525.52121,83.08968 525.52121,83.08968 L 525.52121,70.069063 z"
   id="path2450"
   sodipodi:nodetypes="csscssccssssccsscc" /></g>
<g
   id="Splash_Screen"
   i:layer="yes"
   i:dimmedPercent="3"
   i:rgbTrio="#4F00FFFF4F00">
</g>
</svg>