<?xml version="1.0" encoding="utf-8"?>

<!-- Generator: Adobe Illustrator 14.0.0, SVG Export Plug-In . SVG Version: 6.00 Build 43363)  -->

<!DOCTYPE svg PUBLIC "-//W3C//DTD SVG 1.1//EN" "http://www.w3.org/Graphics/SVG/1.1/DTD/svg11.dtd">

<svg version="1.1" id="Ebene_7" xmlns="http://www.w3.org/2000/svg" xmlns:xlink="http://www.w3.org/1999/xlink" x="0px" y="0px"

	 width="841.89px" height="595.281px" viewBox="0 0 841.89 595.281" enable-background="new 0 0 841.89 595.281"

	 xml:space="preserve">

<g>

	<g>

		<g>

			<path fill="#FFFFFF" d="M403.433,212.37v-0.006c-0.334-0.173-0.671-0.334-1.004-0.497c-5.357-2.586-11.257-4.287-17.526-4.88

				c-11.083-1.049-21.673,1.496-30.622,6.678c-6.13-3.477-13.073-5.742-20.542-6.449c-10.298-0.973-20.17,1.161-28.698,5.629

				c-0.084,0.044-0.17,0.095-0.251,0.135c-0.207,0.162-0.346,0.414-0.346,0.697c0,0.493,0.391,0.89,0.888,0.89

				c0.046,0,0.091-0.007,0.139-0.017c0.021-0.002,0.042-0.01,0.061-0.014c4.585-0.848,9.368-1.088,14.243-0.627

				c13.682,1.293,25.609,5.521,33.974,15.011c0.436,0.455,0.823,0.426,1.265-0.025c10.524-12.2,26.663-17.021,44.006-15.382

				c0.968,0.094,1.921,0.213,2.871,0.356c0.33,0.05,0.836,0.134,1.133,0.167c0.572,0.062,0.88-0.398,0.88-0.891

				C403.902,212.81,403.759,212.531,403.433,212.37z"/>

			<path fill="#FFFFFF" d="M383.325,255.298c-0.055-0.029-0.106-0.045-0.154-0.066c-10.516-4.349-22.019-6.758-34.093-6.758

				c-19.293,0-37.155,6.127-51.756,16.525c-11.147-4.994-23.498-7.777-36.497-7.777c-18.485,0-35.648,5.617-49.894,15.238

				c-0.047,0.029-0.095,0.066-0.149,0.104c-0.304,0.234-0.509,0.608-0.509,1.037c0,0.729,0.592,1.324,1.323,1.324

				c0.086,0,0.174-0.012,0.259-0.03c0.057-0.015,0.107-0.028,0.161-0.048c8.166-2.456,16.832-3.791,25.798-3.791

				c23.836,0,45.083,5.633,61.08,20.68c0.038,0.029,0.071,0.066,0.111,0.103c0.233,0.206,0.53,0.326,0.863,0.326

				c0.413,0,0.775-0.19,1.018-0.487c0.006,0.004,0.515-0.719,0.773-1.07c16.247-22.216,43.031-33.172,72.846-33.172

				c2.128,0,4.246,0.08,6.337,0.225c0.602,0.047,1.874,0.143,1.903,0.143c0.726,0,1.323-0.591,1.323-1.324

				C384.069,255.958,383.765,255.506,383.325,255.298z"/>

		</g>

		<g>

			<g>

				<g>

					<g>

						<path fill="#FFFFFF" d="M127.895,328.375c1.584-4.502,3.853-8.447,6.814-11.805c2.966-3.351,6.602-5.988,10.921-7.906

							c4.308-1.898,9.165-2.871,14.56-2.871c5.465,0,10.34,0.973,14.62,2.871c4.281,1.918,7.905,4.559,10.87,7.906

							c2.968,3.356,5.235,7.303,6.818,11.805c1.577,4.504,2.369,9.402,2.369,14.676c0,5.129-0.792,9.937-2.369,14.371

							c-1.583,4.435-3.85,8.32-6.818,11.605c-2.965,3.289-6.589,5.877-10.87,7.737c-4.28,1.884-9.155,2.82-14.62,2.82

							c-5.395,0-10.251-0.938-14.56-2.82c-4.319-1.86-7.955-4.448-10.921-7.737c-2.961-3.285-5.23-7.175-6.814-11.605

							c-1.579-4.436-2.372-9.242-2.372-14.371C125.522,337.777,126.316,332.878,127.895,328.375z M142.07,351.699

							c0.689,2.787,1.798,5.309,3.311,7.553c1.507,2.236,3.491,4.025,5.925,5.363c2.431,1.373,5.4,2.043,8.884,2.043

							c3.496,0,6.463-0.67,8.897-2.043c2.435-1.338,4.408-3.127,5.923-5.363c1.516-2.244,2.616-4.766,3.307-7.553

							c0.693-2.812,1.038-5.685,1.038-8.648c0-3.104-0.345-6.084-1.038-8.988c-0.691-2.897-1.791-5.475-3.307-7.762

							c-1.515-2.274-3.488-4.084-5.923-5.438c-2.435-1.332-5.401-2.009-8.897-2.009c-3.484,0-6.453,0.677-8.884,2.009

							c-2.434,1.354-4.418,3.164-5.925,5.438c-1.513,2.287-2.622,4.861-3.311,7.762c-0.691,2.904-1.04,5.888-1.04,8.988

							C141.03,346.017,141.378,348.89,142.07,351.699z"/>

						<path fill="#FFFFFF" d="M214.588,326.957v6.504h0.193c1.723-2.775,3.892-4.762,6.526-6.031

							c2.634-1.237,5.531-1.869,8.697-1.869c4.015,0,7.464,0.765,10.369,2.277c2.898,1.51,5.3,3.521,7.21,6.021

							c1.902,2.504,3.321,5.409,4.244,8.741c0.92,3.324,1.383,6.812,1.383,10.438c0,3.408-0.462,6.695-1.383,9.859

							c-0.922,3.157-2.322,5.969-4.196,8.397c-1.873,2.43-4.218,4.385-7.012,5.826c-2.801,1.451-6.076,2.162-9.83,2.162

							c-3.157,0-6.074-0.637-8.741-1.906c-2.676-1.287-4.856-3.182-6.576-5.684h-0.194v24.186h-14.021v-68.924L214.588,326.957

							L214.588,326.957z M232.815,367.447c1.547-0.92,2.794-2.119,3.749-3.601c0.955-1.494,1.626-3.211,2.033-5.2

							c0.392-1.976,0.586-3.982,0.586-6.015c0-2.043-0.216-4.045-0.64-6.031c-0.433-1.977-1.139-3.739-2.121-5.282

							c-0.996-1.554-2.265-2.785-3.807-3.761c-1.543-0.95-3.438-1.43-5.68-1.43c-2.31,0-4.231,0.479-5.778,1.43

							c-1.553,0.976-2.803,2.191-3.754,3.707c-0.955,1.521-1.633,3.271-2.03,5.232c-0.39,1.977-0.593,4.02-0.593,6.135

							c0,2.031,0.218,4.039,0.65,6.015c0.425,1.989,1.117,3.706,2.072,5.2c0.955,1.48,2.222,2.681,3.804,3.601

							c1.582,0.912,3.495,1.371,5.728,1.371C229.343,368.818,231.264,368.359,232.815,367.447z"/>

						<path fill="#FFFFFF" d="M273.926,365.767c2.101,2.039,5.135,3.052,9.085,3.052c2.825,0,5.265-0.693,7.306-2.111

							c2.042-1.418,3.294-2.922,3.762-4.492h12.345c-1.979,6.105-5.012,10.498-9.091,13.129c-4.086,2.635-9.029,3.943-14.824,3.943

							c-4.013,0-7.633-0.639-10.862-1.906c-3.222-1.287-5.949-3.127-8.199-5.492c-2.231-2.364-3.967-5.194-5.183-8.479

							c-1.219-3.306-1.833-6.922-1.833-10.879c0-3.816,0.631-7.369,1.883-10.67c1.243-3.285,3.03-6.14,5.334-8.543

							c2.301-2.398,5.053-4.306,8.246-5.685c3.192-1.375,6.736-2.072,10.613-2.072c4.353,0,8.142,0.843,11.361,2.521

							c3.228,1.69,5.88,3.938,7.965,6.77c2.067,2.834,3.566,6.062,4.485,9.688c0.922,3.615,1.247,7.397,0.986,11.354h-36.844

							C270.667,360.429,271.814,363.724,273.926,365.767z M289.777,338.892c-1.678-1.829-4.233-2.762-7.66-2.762

							c-2.232,0-4.097,0.381-5.575,1.133c-1.481,0.761-2.669,1.705-3.562,2.822c-0.887,1.131-1.505,2.307-1.868,3.547

							c-0.363,1.258-0.586,2.385-0.649,3.369h22.819C292.618,343.441,291.463,340.742,289.777,338.892z"/>

						<path fill="#FFFFFF" d="M326.239,326.957v7.104h0.306c1.769-2.957,4.079-5.118,6.904-6.479

							c2.831-1.342,5.738-2.023,8.694-2.023c3.752,0,6.836,0.521,9.239,1.533c2.404,1.019,4.296,2.437,5.678,4.242

							c1.384,1.811,2.353,4.02,2.917,6.619c0.56,2.606,0.841,5.488,0.841,8.646v31.404h-14.03v-28.83

							c0-4.221-0.665-7.365-1.978-9.44c-1.312-2.066-3.656-3.115-7.009-3.115c-3.822,0-6.594,1.137-8.297,3.406

							c-1.719,2.278-2.564,6.022-2.564,11.221v26.762h-14.034v-51.051h13.333V326.957L326.239,326.957z"/>

						<path fill="#FFFFFF" d="M369.572,328.375c1.579-4.502,3.857-8.447,6.811-11.805c2.971-3.351,6.609-5.988,10.921-7.906

							c4.316-1.898,9.174-2.871,14.571-2.871c5.463,0,10.339,0.973,14.614,2.871c4.287,1.918,7.917,4.559,10.87,7.906

							c2.969,3.356,5.236,7.303,6.822,11.805c1.582,4.504,2.367,9.402,2.367,14.676c0,5.129-0.785,9.937-2.367,14.371

							c-1.586,4.435-3.854,8.32-6.822,11.605c-2.953,3.289-6.583,5.877-10.87,7.737c-4.275,1.884-9.151,2.82-14.614,2.82

							c-5.397,0-10.255-0.938-14.571-2.82c-4.312-1.86-7.95-4.448-10.921-7.737c-2.953-3.285-5.232-7.175-6.811-11.605

							c-1.577-4.436-2.367-9.242-2.367-14.371C367.205,337.777,367.995,332.878,369.572,328.375z M383.743,351.699

							c0.693,2.787,1.8,5.309,3.314,7.553c1.507,2.236,3.49,4.025,5.933,5.363c2.427,1.373,5.39,2.043,8.884,2.043

							s6.453-0.67,8.895-2.043c2.435-1.338,4.404-3.127,5.918-5.363c1.525-2.244,2.618-4.766,3.307-7.553

							c0.697-2.812,1.045-5.685,1.045-8.648c0-3.104-0.348-6.084-1.045-8.988c-0.689-2.897-1.782-5.475-3.307-7.762

							c-1.514-2.274-3.483-4.084-5.918-5.438c-2.442-1.332-5.401-2.009-8.895-2.009c-3.495,0-6.458,0.677-8.884,2.009

							c-2.442,1.354-4.425,3.164-5.933,5.438c-1.514,2.287-2.621,4.861-3.314,7.762c-0.686,2.904-1.027,5.888-1.027,8.988

							C382.716,346.015,383.058,348.89,383.743,351.699z"/>

						<path fill="#FFFFFF" d="M495.078,319.396c0.814-0.896,2.195-1.343,4.102-1.343c1.775,0,3.486,0.097,5.133,0.281V307.89

							c-1.186-0.084-2.398-0.164-3.652-0.264c-1.25-0.092-2.504-0.146-3.754-0.146c-5.727,0-10.014,1.467-12.844,4.354

							c-2.834,2.895-4.236,6.607-4.236,11.156v3.967h-17.104v-3.074c0-2.094,0.412-3.59,1.244-4.483

							c0.816-0.896,2.188-1.343,4.084-1.343c1.797,0,3.498,0.097,5.15,0.281V307.89c-1.184-0.084-2.412-0.164-3.658-0.264

							c-1.25-0.092-2.504-0.146-3.754-0.146c-5.73,0-10.014,1.467-12.844,4.354c-2.836,2.895-4.254,6.607-4.254,11.156v3.967h-8.389

							v9.373h8.389v41.678h14.031V336.33h17.102v41.678h14.018V336.33h9.682v-9.373h-9.682v-3.074

							C493.841,321.787,494.248,320.291,495.078,319.396z"/>

						<path fill="#FFFFFF" d="M524.074,326.957v51.049h-14.037v-51.049H524.074z"/>

						<path fill="#FFFFFF" d="M555.63,336.13c-2.238,0-4.121,0.506-5.641,1.537c-1.521,1.025-2.742,2.324-3.695,3.941

							c-0.957,1.625-1.643,3.399-2.014,5.336c-0.41,1.942-0.607,3.868-0.607,5.787c0,1.838,0.197,3.715,0.607,5.633

							c0.371,1.895,1.021,3.637,1.904,5.184c0.898,1.543,2.09,2.812,3.605,3.795c1.516,0.978,3.363,1.476,5.541,1.476

							c3.365,0,5.943-0.92,7.752-2.806c1.818-1.881,2.957-4.396,3.406-7.561h13.531c-0.926,6.783-3.551,11.955-7.898,15.508

							c-4.355,3.557-9.912,5.324-16.695,5.324c-3.82,0-7.326-0.637-10.527-1.906c-3.189-1.287-5.902-3.088-8.143-5.395

							c-2.236-2.293-3.979-5.062-5.24-8.24c-1.234-3.205-1.857-6.697-1.857-10.525c0-3.94,0.557-7.621,1.715-11.004

							c1.156-3.397,2.855-6.328,5.084-8.803c2.246-2.457,4.975-4.4,8.193-5.779c3.227-1.375,6.926-2.072,11.076-2.072

							c3.021,0,5.93,0.396,8.732,1.187c2.797,0.799,5.311,1.998,7.518,3.615c2.195,1.604,3.994,3.629,5.369,6.014

							c1.389,2.404,2.191,5.254,2.383,8.557h-13.734C565.074,339.06,561.613,336.13,555.63,336.13z"/>

						<path fill="#FFFFFF" d="M601.777,365.767c2.123,2.039,5.154,3.052,9.096,3.052c2.836,0,5.262-0.693,7.314-2.111

							c2.031-1.418,3.297-2.922,3.752-4.492h12.346c-1.963,6.105-4.998,10.498-9.078,13.129c-4.088,2.635-9.025,3.943-14.816,3.943

							c-4.023,0-7.646-0.639-10.873-1.906c-3.225-1.287-5.955-3.127-8.209-5.492c-2.221-2.364-3.945-5.194-5.18-8.479

							c-1.217-3.306-1.826-6.922-1.826-10.879c0-3.816,0.639-7.369,1.881-10.67c1.264-3.285,3.027-6.14,5.346-8.543

							c2.301-2.398,5.041-4.306,8.238-5.685c3.197-1.375,6.74-2.072,10.623-2.072c4.334,0,8.127,0.843,11.355,2.521

							c3.238,1.69,5.883,3.938,7.949,6.77c2.066,2.834,3.568,6.062,4.482,9.688c0.938,3.615,1.271,7.397,1,11.354l-36.848,0.002

							C598.523,360.429,599.687,363.724,601.777,365.767z M617.634,338.892c-1.664-1.829-4.213-2.762-7.645-2.762

							c-2.23,0-4.105,0.381-5.576,1.133c-1.479,0.761-2.678,1.705-3.562,2.822c-0.887,1.131-1.52,2.307-1.885,3.547

							c-0.367,1.258-0.57,2.383-0.637,3.369h22.818C620.496,343.441,619.326,340.742,617.634,338.892z"/>

						<path fill="#FFFFFF" d="M651.011,351.31c0.793-2.42,1.967-4.518,3.518-6.284c1.555-1.787,3.502-3.195,5.797-4.224

							c2.289-1.035,4.936-1.545,7.912-1.545c3.033,0,5.68,0.51,7.938,1.545c2.275,1.027,4.203,2.437,5.758,4.224

							c1.572,1.768,2.732,3.864,3.52,6.284c0.781,2.421,1.182,5.021,1.182,7.806c0,2.77-0.4,5.365-1.182,7.76

							c-0.785,2.41-1.943,4.488-3.52,6.271c-1.555,1.78-3.48,3.184-5.758,4.18c-2.258,0.994-4.9,1.492-7.938,1.492

							c-2.977,0-5.623-0.498-7.912-1.492c-2.295-0.996-4.242-2.398-5.797-4.18c-1.549-1.783-2.725-3.861-3.518-6.271

							c-0.775-2.395-1.174-4.99-1.174-7.76C649.837,356.33,650.234,353.728,651.011,351.31z M657.359,365.232

							c0.611,1.778,1.451,3.266,2.525,4.473c1.074,1.191,2.328,2.102,3.771,2.746c1.447,0.635,2.973,0.965,4.58,0.965

							c1.621,0,3.139-0.33,4.57-0.965c1.436-0.646,2.695-1.555,3.773-2.746c1.082-1.207,1.906-2.691,2.529-4.473

							c0.607-1.769,0.92-3.828,0.92-6.119c0-2.285-0.312-4.338-0.92-6.113c-0.623-1.777-1.447-3.281-2.529-4.502

							c-1.078-1.221-2.34-2.152-3.773-2.783c-1.434-0.637-2.949-0.965-4.57-0.965c-1.607,0-3.131,0.328-4.58,0.965

							c-1.443,0.631-2.697,1.562-3.771,2.783s-1.914,2.725-2.525,4.502c-0.607,1.775-0.926,3.828-0.926,6.113

							C656.435,361.404,656.751,363.464,657.359,365.232z"/>

						<path fill="#FFFFFF" d="M695.896,340.142v7.992h0.145c1.498-3.088,3.367-5.354,5.559-6.813

							c2.195-1.479,4.977-2.156,8.352-2.062v6.605c-2.482,0-4.605,0.338-6.363,1.028c-1.764,0.679-3.182,1.687-4.26,2.986

							c-1.082,1.316-1.855,2.928-2.34,4.793c-0.486,1.9-0.73,4.045-0.73,6.49v16.844h-6.227v-37.863H695.896L695.896,340.142z"/>

						<path fill="#FFFFFF" d="M741.015,388.712c-2.855,3.068-7.281,4.619-13.326,4.619c-1.764,0-3.557-0.205-5.391-0.594

							c-1.834-0.388-3.498-1.037-4.994-1.906c-1.486-0.877-2.727-2.021-3.688-3.443c-0.988-1.426-1.521-3.143-1.605-5.203h6.207

							c0.041,1.119,0.41,2.08,1.07,2.853c0.646,0.791,1.471,1.422,2.424,1.91c0.939,0.506,1.969,0.854,3.105,1.061

							c1.117,0.219,2.203,0.324,3.227,0.324c2.035,0,3.771-0.342,5.207-1.041c1.396-0.725,2.578-1.695,3.508-2.945

							c0.922-1.237,1.592-2.746,2.014-4.496c0.41-1.752,0.617-3.688,0.617-5.801v-2.483h-0.145

							c-1.086,2.352-2.699,4.073-4.865,5.174c-2.168,1.09-4.479,1.639-6.924,1.639c-2.83,0-5.287-0.514-7.402-1.543

							c-2.094-1.02-3.859-2.408-5.279-4.129c-1.408-1.734-2.471-3.762-3.168-6.082c-0.723-2.322-1.078-4.777-1.078-7.355

							c0-2.252,0.301-4.561,0.893-6.93c0.594-2.365,1.549-4.518,2.93-6.445c1.367-1.926,3.184-3.512,5.414-4.743

							c2.248-1.267,5.002-1.89,8.283-1.89c2.387,0,4.588,0.521,6.586,1.576c2.01,1.057,3.562,2.625,4.693,4.723h0.064v-5.416h5.865

							v34.646C745.257,380.978,743.847,385.636,741.015,388.712z M733.062,371.677c1.441-0.856,2.59-1.973,3.477-3.381

							c0.885-1.389,1.525-2.955,1.939-4.715c0.418-1.76,0.615-3.508,0.615-5.273c0-1.657-0.189-3.291-0.574-4.916

							c-0.41-1.604-1.02-3.067-1.873-4.344c-0.861-1.299-1.959-2.344-3.334-3.121c-1.363-0.771-3.039-1.178-4.969-1.178

							c-2.006,0-3.717,0.393-5.145,1.141c-1.408,0.757-2.566,1.783-3.469,3.037c-0.898,1.275-1.564,2.746-1.99,4.402

							c-0.402,1.658-0.619,3.393-0.619,5.195c0,1.717,0.182,3.422,0.516,5.127c0.35,1.715,0.934,3.256,1.762,4.645

							c0.832,1.408,1.92,2.523,3.293,3.381c1.379,0.861,3.076,1.283,5.129,1.283C729.888,372.96,731.623,372.539,733.062,371.677z"

							/>

					</g>

					<path fill="#FFFFFF" d="M524.566,314.248c0,4.137-3.369,7.498-7.51,7.498c-4.143,0-7.502-3.361-7.502-7.498

						c0-4.146,3.359-7.504,7.502-7.504C521.197,306.744,524.566,310.101,524.566,314.248z"/>

				</g>

			</g>

		</g>

		<path fill="#FFFFFF" d="M647.55,373.136c0,3.021-2.445,5.467-5.471,5.467c-3.021,0-5.48-2.446-5.48-5.467

			c0-3.022,2.457-5.473,5.48-5.473C645.103,367.664,647.55,370.111,647.55,373.136z"/>

	</g>

	<g>

		<path fill="#FFFFFF" d="M749.427,332.724v7.527h-1.432v-7.527h-2.721v-1.155h6.869v1.155H749.427z M761.035,340.251V333h-0.041

			l-2.85,7.252h-0.904L754.394,333h-0.043v7.252h-1.434v-8.686h2.215l2.594,6.598l2.551-6.598h2.191v8.686L761.035,340.251

			L761.035,340.251z"/>

	</g>

</g>

</svg>

