<?xml version="1.0" encoding="utf-8"?>

<!-- Generator: Adobe Illustrator 14.0.0, SVG Export Plug-In . SVG Version: 6.00 Build 43363)  -->

<!DOCTYPE svg PUBLIC "-//W3C//DTD SVG 1.1//EN" "http://www.w3.org/Graphics/SVG/1.1/DTD/svg11.dtd">

<svg version="1.1" id="Ebene_7" xmlns="http://www.w3.org/2000/svg" xmlns:xlink="http://www.w3.org/1999/xlink" x="0px" y="0px"

	 width="841.89px" height="595.28px" viewBox="0 0 841.89 595.28" enable-background="new 0 0 841.89 595.28" xml:space="preserve">

<g>

	<g>

		<g>

			<path fill="#0E85CD" d="M403.433,212.37v-0.006c-0.334-0.173-0.671-0.334-1.004-0.497c-5.357-2.586-11.257-4.287-17.526-4.88

				c-11.083-1.049-21.673,1.496-30.622,6.678c-6.13-3.477-13.073-5.742-20.542-6.449c-10.298-0.973-20.17,1.161-28.698,5.629

				c-0.084,0.044-0.17,0.095-0.251,0.135c-0.207,0.162-0.346,0.414-0.346,0.697c0,0.493,0.391,0.89,0.888,0.89

				c0.046,0,0.091-0.007,0.139-0.017c0.021-0.002,0.042-0.01,0.061-0.014c4.585-0.848,9.368-1.088,14.243-0.627

				c13.682,1.293,25.609,5.521,33.974,15.011c0.436,0.455,0.823,0.426,1.265-0.025c10.524-12.2,26.663-17.021,44.006-15.382

				c0.968,0.094,1.921,0.213,2.871,0.356c0.33,0.05,0.836,0.134,1.133,0.167c0.572,0.062,0.88-0.398,0.88-0.891

				C403.902,212.81,403.759,212.531,403.433,212.37z"/>

			<path fill="#0E85CD" d="M383.325,255.298c-0.055-0.029-0.106-0.045-0.154-0.066c-10.516-4.349-22.019-6.758-34.093-6.758

				c-19.293,0-37.155,6.127-51.756,16.525c-11.147-4.994-23.498-7.777-36.497-7.777c-18.485,0-35.648,5.617-49.894,15.238

				c-0.047,0.029-0.095,0.066-0.149,0.104c-0.304,0.234-0.509,0.608-0.509,1.037c0,0.729,0.592,1.324,1.323,1.324

				c0.086,0,0.174-0.012,0.259-0.03c0.057-0.015,0.107-0.028,0.161-0.048c8.166-2.456,16.832-3.791,25.798-3.791

				c23.836,0,45.083,5.633,61.08,20.68c0.038,0.029,0.071,0.066,0.111,0.103c0.233,0.206,0.53,0.326,0.863,0.326

				c0.413,0,0.775-0.19,1.018-0.487c0.006,0.004,0.515-0.719,0.773-1.07c16.247-22.216,43.031-33.172,72.846-33.172

				c2.128,0,4.246,0.08,6.337,0.225c0.602,0.047,1.874,0.143,1.903,0.143c0.726,0,1.323-0.591,1.323-1.324

				C384.069,255.958,383.765,255.506,383.325,255.298z"/>

		</g>

		<g>

			<g>

				<g>

					<g>

						<path fill="#0E85CD" d="M127.895,328.375c1.584-4.502,3.853-8.447,6.814-11.806c2.966-3.348,6.602-5.988,10.921-7.905

							c4.308-1.899,9.165-2.871,14.56-2.871c5.465,0,10.34,0.972,14.62,2.871c4.281,1.917,7.905,4.558,10.87,7.905

							c2.968,3.358,5.235,7.304,6.818,11.806c1.577,4.504,2.369,9.401,2.369,14.675c0,5.129-0.792,9.936-2.369,14.372

							c-1.583,4.433-3.85,8.319-6.818,11.604c-2.965,3.289-6.589,5.877-10.87,7.74c-4.28,1.881-9.155,2.82-14.62,2.82

							c-5.395,0-10.251-0.939-14.56-2.82c-4.319-1.863-7.955-4.451-10.921-7.74c-2.961-3.285-5.23-7.172-6.814-11.604

							c-1.579-4.437-2.372-9.243-2.372-14.372C125.522,337.776,126.316,332.879,127.895,328.375z M142.07,351.698

							c0.689,2.787,1.798,5.309,3.311,7.553c1.507,2.237,3.491,4.026,5.925,5.364c2.431,1.372,5.4,2.042,8.884,2.042

							c3.496,0,6.463-0.67,8.897-2.042c2.435-1.338,4.408-3.127,5.923-5.364c1.516-2.244,2.616-4.766,3.307-7.553

							c0.693-2.809,1.038-5.682,1.038-8.648c0-3.103-0.345-6.083-1.038-8.988c-0.691-2.899-1.791-5.475-3.307-7.762

							c-1.515-2.276-3.488-4.084-5.923-5.44c-2.435-1.332-5.401-2.006-8.897-2.006c-3.484,0-6.453,0.674-8.884,2.006

							c-2.434,1.356-4.418,3.164-5.925,5.44c-1.513,2.287-2.622,4.862-3.311,7.762c-0.691,2.905-1.04,5.886-1.04,8.988

							C141.03,346.017,141.378,348.89,142.07,351.698z"/>

						<path fill="#0E85CD" d="M214.588,326.956v6.505h0.193c1.723-2.775,3.892-4.763,6.526-6.032

							c2.634-1.238,5.531-1.869,8.697-1.869c4.015,0,7.464,0.763,10.369,2.277c2.898,1.51,5.3,3.522,7.21,6.021

							c1.902,2.505,3.321,5.411,4.244,8.744c0.92,3.323,1.383,6.812,1.383,10.436c0,3.409-0.462,6.695-1.383,9.859

							c-0.922,3.16-2.322,5.969-4.196,8.4c-1.873,2.43-4.218,4.384-7.012,5.825c-2.801,1.452-6.076,2.163-9.83,2.163

							c-3.157,0-6.074-0.638-8.741-1.906c-2.676-1.287-4.856-3.183-6.576-5.684h-0.194v24.185h-14.021v-68.924H214.588z

							 M232.815,367.446c1.547-0.92,2.794-2.119,3.749-3.598c0.955-1.495,1.626-3.211,2.033-5.202

							c0.392-1.974,0.586-3.982,0.586-6.013c0-2.043-0.216-4.045-0.64-6.032c-0.433-1.976-1.139-3.74-2.121-5.283

							c-0.996-1.552-2.265-2.786-3.807-3.759c-1.543-0.953-3.438-1.43-5.68-1.43c-2.31,0-4.231,0.477-5.778,1.43

							c-1.553,0.973-2.803,2.19-3.754,3.707c-0.955,1.519-1.633,3.268-2.03,5.232c-0.39,1.977-0.593,4.019-0.593,6.135

							c0,2.03,0.218,4.039,0.65,6.013c0.425,1.991,1.117,3.707,2.072,5.202c0.955,1.479,2.222,2.678,3.804,3.598

							c1.582,0.913,3.495,1.371,5.728,1.371C229.343,368.817,231.264,368.359,232.815,367.446z"/>

						<path fill="#0E85CD" d="M273.926,365.768c2.101,2.038,5.135,3.05,9.085,3.05c2.825,0,5.265-0.693,7.306-2.112

							c2.042-1.418,3.294-2.922,3.762-4.491h12.345c-1.979,6.104-5.012,10.498-9.091,13.129c-4.086,2.634-9.029,3.942-14.824,3.942

							c-4.013,0-7.633-0.638-10.862-1.906c-3.222-1.287-5.949-3.127-8.199-5.492c-2.231-2.365-3.967-5.195-5.183-8.481

							c-1.219-3.303-1.833-6.922-1.833-10.878c0-3.816,0.631-7.369,1.883-10.67c1.243-3.285,3.03-6.138,5.334-8.543

							c2.301-2.398,5.053-4.305,8.246-5.683c3.192-1.375,6.736-2.072,10.613-2.072c4.353,0,8.142,0.84,11.361,2.519

							c3.228,1.691,5.88,3.938,7.965,6.769c2.067,2.834,3.566,6.062,4.485,9.688c0.922,3.615,1.247,7.399,0.986,11.355h-36.844

							C270.667,360.429,271.814,363.725,273.926,365.768z M289.777,338.892c-1.678-1.829-4.233-2.762-7.66-2.762

							c-2.232,0-4.097,0.382-5.575,1.133c-1.481,0.76-2.669,1.706-3.562,2.823c-0.887,1.131-1.505,2.306-1.868,3.546

							c-0.363,1.258-0.586,2.385-0.649,3.37h22.819C292.618,343.441,291.463,340.742,289.777,338.892z"/>

						<path fill="#0E85CD" d="M326.239,326.956v7.105h0.306c1.769-2.958,4.079-5.121,6.904-6.479

							c2.831-1.342,5.738-2.023,8.694-2.023c3.752,0,6.836,0.521,9.239,1.532c2.404,1.017,4.296,2.435,5.678,4.243

							c1.384,1.811,2.353,4.019,2.917,6.618c0.56,2.609,0.841,5.488,0.841,8.648v31.404h-14.03v-28.83

							c0-4.221-0.665-7.366-1.978-9.442c-1.312-2.066-3.656-3.115-7.009-3.115c-3.822,0-6.594,1.136-8.297,3.406

							c-1.719,2.28-2.564,6.023-2.564,11.22v26.762h-14.034v-51.05H326.239z"/>

						<path fill="#1A171B" d="M369.572,328.375c1.579-4.502,3.857-8.447,6.811-11.806c2.971-3.348,6.609-5.988,10.921-7.905

							c4.316-1.899,9.174-2.871,14.571-2.871c5.463,0,10.339,0.972,14.614,2.871c4.287,1.917,7.917,4.558,10.869,7.905

							c2.969,3.358,5.238,7.304,6.823,11.806c1.583,4.504,2.368,9.401,2.368,14.675c0,5.129-0.785,9.936-2.368,14.372

							c-1.585,4.433-3.854,8.319-6.823,11.604c-2.952,3.289-6.582,5.877-10.869,7.74c-4.275,1.881-9.151,2.819-14.614,2.819

							c-5.397,0-10.255-0.938-14.571-2.819c-4.312-1.863-7.95-4.451-10.921-7.74c-2.953-3.285-5.232-7.172-6.811-11.604

							c-1.577-4.437-2.367-9.243-2.367-14.372C367.205,337.776,367.995,332.879,369.572,328.375z M383.743,351.698

							c0.693,2.787,1.8,5.309,3.314,7.553c1.507,2.237,3.49,4.026,5.933,5.364c2.427,1.372,5.39,2.042,8.884,2.042

							c3.494,0,6.453-0.67,8.895-2.042c2.435-1.338,4.404-3.127,5.918-5.364c1.525-2.244,2.618-4.766,3.307-7.553

							c0.697-2.809,1.045-5.683,1.045-8.648c0-3.103-0.348-6.083-1.045-8.988c-0.689-2.899-1.782-5.475-3.307-7.762

							c-1.514-2.276-3.483-4.084-5.918-5.44c-2.442-1.332-5.401-2.006-8.895-2.006c-3.495,0-6.458,0.674-8.884,2.006

							c-2.442,1.356-4.425,3.164-5.933,5.44c-1.514,2.287-2.621,4.862-3.314,7.762c-0.686,2.905-1.027,5.886-1.027,8.988

							C382.716,346.016,383.058,348.89,383.743,351.698z"/>

						<path fill="#1A171B" d="M495.077,319.396c0.816-0.896,2.195-1.342,4.103-1.342c1.774,0,3.486,0.095,5.133,0.281V307.89

							c-1.186-0.084-2.402-0.164-3.656-0.264c-1.25-0.092-2.504-0.146-3.754-0.146c-5.724,0-10.01,1.467-12.841,4.353

							c-2.834,2.896-4.238,6.607-4.238,11.157v3.967h-17.101v-3.075c0-2.094,0.411-3.59,1.243-4.484

							c0.817-0.896,2.186-1.342,4.085-1.342c1.796,0,3.498,0.095,5.15,0.281V307.89c-1.184-0.084-2.413-0.164-3.658-0.264

							c-1.251-0.092-2.505-0.146-3.755-0.146c-5.73,0-10.014,1.467-12.844,4.353c-2.835,2.896-4.253,6.607-4.253,11.157v3.967

							h-8.389v9.372h8.389v41.678h14.031v-41.678h17.101v41.678h14.018v-41.678h9.68v-9.372h-9.68v-3.075

							C493.841,321.787,494.248,320.291,495.077,319.396z"/>

						<path fill="#1A171B" d="M524.074,326.956v51.05h-14.038v-51.05H524.074z"/>

						<path fill="#1A171B" d="M555.63,336.13c-2.237,0-4.121,0.507-5.64,1.537c-1.521,1.025-2.742,2.324-3.696,3.941

							c-0.957,1.625-1.643,3.402-2.013,5.337c-0.411,1.944-0.608,3.869-0.608,5.786c0,1.838,0.197,3.715,0.608,5.633

							c0.37,1.896,1.023,3.637,1.906,5.185c0.898,1.543,2.087,2.812,3.604,3.794c1.515,0.976,3.362,1.475,5.54,1.475

							c3.366,0,5.944-0.92,7.752-2.805c1.818-1.881,2.958-4.397,3.406-7.561h13.532c-0.923,6.783-3.549,11.956-7.898,15.509

							c-4.354,3.557-9.913,5.324-16.696,5.324c-3.821,0-7.325-0.638-10.527-1.906c-3.19-1.287-5.902-3.088-8.143-5.396

							c-2.236-2.292-3.979-5.061-5.239-8.239c-1.235-3.205-1.858-6.698-1.858-10.526c0-3.942,0.556-7.62,1.714-11.004

							c1.156-3.398,2.854-6.328,5.084-8.803c2.246-2.457,4.975-4.4,8.193-5.778c3.228-1.375,6.927-2.072,11.077-2.072

							c3.021,0,5.929,0.396,8.733,1.185c2.797,0.799,5.31,1.997,7.517,3.614c2.196,1.607,3.994,3.63,5.369,6.014

							c1.389,2.405,2.191,5.254,2.382,8.558h-13.734C565.074,339.061,561.613,336.13,555.63,336.13z"/>

						<path fill="#1A171B" d="M601.777,365.768c2.122,2.038,5.154,3.05,9.096,3.05c2.835,0,5.262-0.693,7.315-2.112

							c2.031-1.418,3.296-2.922,3.751-4.491h12.345c-1.962,6.104-4.997,10.498-9.078,13.129c-4.088,2.634-9.024,3.942-14.816,3.942

							c-4.026,0-7.648-0.638-10.872-1.906c-3.226-1.287-5.957-3.127-8.209-5.492c-2.221-2.365-3.948-5.195-5.181-8.481

							c-1.217-3.303-1.825-6.922-1.825-10.878c0-3.816,0.637-7.369,1.88-10.67c1.262-3.285,3.028-6.138,5.343-8.543

							c2.302-2.398,5.042-4.305,8.242-5.683c3.197-1.375,6.739-2.072,10.622-2.072c4.334,0,8.128,0.84,11.354,2.519

							c3.238,1.691,5.882,3.938,7.949,6.769c2.069,2.834,3.571,6.062,4.484,9.688c0.935,3.615,1.269,7.399,1.001,11.354

							l-36.849,0.001C598.523,360.429,599.687,363.725,601.777,365.768z M617.635,338.892c-1.665-1.829-4.213-2.762-7.645-2.762

							c-2.229,0-4.104,0.382-5.577,1.133c-1.475,0.76-2.677,1.706-3.561,2.823c-0.887,1.131-1.521,2.306-1.885,3.546

							c-0.367,1.258-0.571,2.384-0.638,3.37h22.821C620.495,343.441,619.325,340.742,617.635,338.892z"/>

						<path fill="#1A171B" d="M651.012,351.311c0.793-2.421,1.967-4.519,3.517-6.286c1.554-1.788,3.502-3.195,5.797-4.223

							c2.288-1.035,4.936-1.544,7.912-1.544c3.033,0,5.679,0.509,7.938,1.544c2.274,1.027,4.203,2.435,5.758,4.223

							c1.572,1.768,2.731,3.865,3.516,6.286c0.781,2.419,1.182,5.019,1.182,7.803c0,2.771-0.4,5.366-1.182,7.761

							c-0.784,2.409-1.943,4.487-3.516,6.271c-1.555,1.781-3.483,3.183-5.758,4.18c-2.259,0.994-4.904,1.491-7.938,1.491

							c-2.977,0-5.624-0.497-7.912-1.491c-2.295-0.997-4.243-2.398-5.797-4.18c-1.55-1.783-2.724-3.861-3.517-6.271

							c-0.777-2.395-1.174-4.99-1.174-7.761C649.838,356.329,650.234,353.729,651.012,351.311z M657.359,365.231

							c0.612,1.781,1.452,3.267,2.525,4.473c1.074,1.192,2.329,2.102,3.772,2.747c1.449,0.634,2.972,0.964,4.58,0.964

							c1.621,0,3.139-0.33,4.573-0.964c1.433-0.646,2.694-1.555,3.772-2.747c1.082-1.206,1.906-2.691,2.529-4.473

							c0.608-1.767,0.921-3.828,0.921-6.118c0-2.286-0.312-4.338-0.921-6.113c-0.623-1.778-1.447-3.282-2.529-4.503

							c-1.078-1.221-2.34-2.151-3.772-2.783c-1.435-0.637-2.952-0.964-4.573-0.964c-1.608,0-3.131,0.327-4.58,0.964

							c-1.443,0.632-2.698,1.562-3.772,2.783c-1.073,1.221-1.913,2.725-2.525,4.503c-0.608,1.775-0.925,3.827-0.925,6.113

							C656.435,361.403,656.751,363.465,657.359,365.231z"/>

						<path fill="#1A171B" d="M695.896,340.142v7.993h0.144c1.499-3.088,3.368-5.357,5.559-6.816

							c2.195-1.478,4.975-2.156,8.349-2.061v6.604c-2.482,0-4.605,0.338-6.362,1.03c-1.764,0.678-3.183,1.686-4.261,2.987

							c-1.081,1.316-1.852,2.927-2.339,4.792c-0.487,1.9-0.729,4.045-0.729,6.49v16.845h-6.226v-37.864H695.896z"/>

						<path fill="#1A171B" d="M741.016,388.712c-2.856,3.068-7.282,4.619-13.327,4.619c-1.763,0-3.557-0.204-5.39-0.594

							c-1.834-0.385-3.498-1.037-4.995-1.905c-1.487-0.878-2.727-2.021-3.688-3.443c-0.987-1.426-1.519-3.143-1.603-5.203h6.207

							c0.041,1.118,0.411,2.079,1.071,2.85c0.646,0.792,1.47,1.422,2.423,1.91c0.939,0.506,1.97,0.854,3.106,1.062

							c1.118,0.218,2.203,0.323,3.227,0.323c2.034,0,3.772-0.341,5.207-1.041c1.396-0.724,2.577-1.694,3.508-2.944

							c0.921-1.239,1.592-2.747,2.013-4.496c0.411-1.752,0.617-3.691,0.617-5.801v-2.485h-0.147

							c-1.086,2.351-2.698,4.074-4.865,5.173c-2.167,1.09-4.478,1.64-6.923,1.64c-2.83,0-5.287-0.514-7.402-1.544

							c-2.094-1.019-3.86-2.408-5.28-4.128c-1.408-1.734-2.471-3.762-3.168-6.083c-0.723-2.321-1.078-4.777-1.078-7.355

							c0-2.251,0.301-4.561,0.893-6.93c0.593-2.365,1.549-4.518,2.929-6.445c1.367-1.925,3.182-3.512,5.415-4.744

							c2.247-1.266,5.002-1.889,8.283-1.889c2.386,0,4.587,0.521,6.585,1.576c2.01,1.057,3.561,2.625,4.693,4.723h0.066v-5.415

							h5.865v34.646C745.258,380.979,743.847,385.636,741.016,388.712z M733.063,371.678c1.44-0.858,2.589-1.974,3.476-3.381

							c0.885-1.39,1.525-2.955,1.94-4.715c0.417-1.76,0.615-3.509,0.615-5.273c0-1.66-0.19-3.292-0.575-4.916

							c-0.41-1.606-1.019-3.069-1.873-4.345c-0.862-1.298-1.959-2.344-3.333-3.12c-1.365-0.773-3.04-1.178-4.97-1.178

							c-2.005,0-3.717,0.393-5.144,1.141c-1.408,0.755-2.566,1.782-3.469,3.036c-0.898,1.275-1.565,2.746-1.99,4.403

							c-0.403,1.657-0.62,3.392-0.62,5.195c0,1.716,0.183,3.421,0.517,5.126c0.349,1.716,0.932,3.256,1.76,4.646

							c0.833,1.407,1.921,2.522,3.293,3.381c1.379,0.861,3.077,1.283,5.13,1.283C729.888,372.961,731.622,372.539,733.063,371.678z"

							/>

					</g>

					<path fill="#1A171B" d="M524.566,314.248c0,4.136-3.37,7.498-7.509,7.498c-4.144,0-7.503-3.362-7.503-7.498

						c0-4.146,3.359-7.505,7.503-7.505C521.196,306.743,524.566,310.102,524.566,314.248z"/>

				</g>

			</g>

		</g>

		<path fill="#1A171B" d="M647.55,373.137c0,3.018-2.445,5.467-5.47,5.467c-3.021,0-5.479-2.449-5.479-5.467

			c0-3.025,2.457-5.474,5.479-5.474C645.104,367.663,647.55,370.111,647.55,373.137z"/>

	</g>

	<g>

		<path fill="#1A171B" d="M749.427,332.725v7.526h-1.432v-7.526h-2.721v-1.158h6.873v1.158H749.427z M761.034,340.251V333h-0.041

			l-2.848,7.251h-0.905L754.395,333h-0.043v7.251h-1.434v-8.685h2.214l2.594,6.598l2.55-6.598h2.192v8.685H761.034z"/>

	</g>

</g>

</svg>

