<?xml version="1.0" encoding="utf-8"?>
<!-- Generator: Adobe Illustrator 12.0.0, SVG Export Plug-In . SVG Version: 6.00 Build 51448)  -->
<!DOCTYPE svg PUBLIC "-//W3C//DTD SVG 1.1//EN" "http://www.w3.org/Graphics/SVG/1.1/DTD/svg11.dtd" [
	<!ENTITY ns_flows "http://ns.adobe.com/Flows/1.0/">
	<!ENTITY ns_extend "http://ns.adobe.com/Extensibility/1.0/">
	<!ENTITY ns_ai "http://ns.adobe.com/AdobeIllustrator/10.0/">
	<!ENTITY ns_graphs "http://ns.adobe.com/Graphs/1.0/">
	<!ENTITY ns_vars "http://ns.adobe.com/Variables/1.0/">
	<!ENTITY ns_imrep "http://ns.adobe.com/ImageReplacement/1.0/">
	<!ENTITY ns_sfw "http://ns.adobe.com/SaveForWeb/1.0/">
	<!ENTITY ns_custom "http://ns.adobe.com/GenericCustomNamespace/1.0/">
	<!ENTITY ns_adobe_xpath "http://ns.adobe.com/XPath/1.0/">
	<!ENTITY ns_svg "http://www.w3.org/2000/svg">
	<!ENTITY ns_xlink "http://www.w3.org/1999/xlink">
]>
<svg  version="1.1"
	 xmlns:x="&ns_extend;" xmlns:i="&ns_ai;" xmlns:graph="&ns_graphs;" i:viewOrigin="25.3228 464.3589" i:rulerOrigin="18 -288" i:pageBounds="-18 504 630 288"
	 xmlns="&ns_svg;" xmlns:xlink="&ns_xlink;" xmlns:a="http://ns.adobe.com/AdobeSVGViewerExtensions/3.0/"
	 width="563.625" height="157.656" viewBox="0 0 563.625 157.656" overflow="visible" enable-background="new 0 0 563.625 157.656"
	 xml:space="preserve">
<metadata>
	<variableSets  xmlns="http://ns.adobe.com/Variables/1.0/">
		<variableSet  locked="none" varSetName="binding1">
			<variables></variables>
			<v:sampleDataSets  xmlns:v="http://ns.adobe.com/Variables/1.0/" xmlns="http://ns.adobe.com/GenericCustomNamespace/1.0/">
				</v:sampleDataSets>
		</variableSet>
	</variableSets>
	<sfw  xmlns="&ns_sfw;">
		<slices></slices>
		<sliceSourceBounds  y="306.703" x="25.323" width="563.625" height="157.656" bottomLeftOrigin="true"></sliceSourceBounds>
	</sfw>
</metadata>
<g id="Layer_1" i:layer="yes" i:dimmedPercent="50" i:rgbTrio="#4F008000FFFF">
	<g>
		<path i:knockout="Off" d="M12.854,102.637c0-18.696,6.33-25.415,14.217-25.415s14.217,6.719,14.217,25.415
			s-6.33,25.417-14.217,25.417S12.854,121.333,12.854,102.637z M0,102.637c0,24.442,12.951,34.959,27.071,34.959
			s27.071-10.517,27.071-34.959c0-24.441-12.951-34.958-27.071-34.958S0,78.196,0,102.637z"/>
		<path i:knockout="Off" d="M70.5,111.694c0-9.446,2.435-17.139,9.543-17.139c7.011,0,8.861,5.843,8.861,17.431
			c0,10.03-2.337,16.555-9.056,16.555C73.228,128.541,70.5,121.432,70.5,111.694z M58.426,157.656H70.5v-28.239h0.195
			c1.753,3.896,5.746,7.985,12.951,7.985c10.81,0,17.333-9.543,17.333-25.902c0-13.926-5.161-25.807-17.625-25.807
			c-7.791,0-11.393,4.286-13.341,8.57h-0.292c0-3.408-0.194-6.33-0.389-7.79H58.036c0.292,1.851,0.39,4.966,0.39,8.568V157.656z"/>
		<path i:knockout="Off" d="M115.975,107.214c0-6.622,2.629-13.341,8.959-13.341c5.453,0,8.374,4.479,8.374,13.341H115.975z
			 M141.877,124.645c-2.24,1.655-5.746,3.896-13.146,3.896c-9.348,0-12.756-5.161-12.756-13.73h29.019v-2.338
			c0-20.449-9.251-26.779-20.06-26.779c-12.757,0-20.644,11.589-20.644,26.586c0,13.535,7.011,25.123,23.176,25.123
			c7.206,0,12.464-2.143,14.996-3.214L141.877,124.645z"/>
		<path i:knockout="Off" d="M148.499,94.75c0-3.116-0.097-6.037-0.39-8.276h11.296c0.097,2.531,0.389,5.16,0.389,7.692h0.292h-0.098
			c1.753-3.019,5.162-8.473,13.341-8.473c11.393,0,14.801,8.473,14.801,18.601v32.329h-12.075v-30.09
			c0-7.693-1.947-10.906-6.914-10.906c-6.33,0-8.569,5.355-8.569,11.782v29.214h-12.075V94.75z"/>
		<path i:knockout="Off" d="M205.075,102.637c0-18.696,6.33-25.415,14.217-25.415c7.888,0,14.217,6.719,14.217,25.415
			s-6.329,25.417-14.217,25.417C211.404,128.054,205.075,121.333,205.075,102.637z M192.221,102.637
			c0,24.442,12.951,34.959,27.071,34.959s27.072-10.517,27.072-34.959c0-24.441-12.952-34.958-27.072-34.958
			S192.221,78.196,192.221,102.637z"/>
		<path i:knockout="Off" d="M254.347,95.333h-8.375v-8.86h8.375V76.248c0-7.205,3.408-13.827,14.411-13.827
			c3.215,0,6.33,0.682,8.667,1.168l-0.486,8.764c-1.461-0.39-3.019-0.779-4.771-0.779c-3.507,0-5.746,2.435-5.746,6.232v8.667h9.154
			v8.86h-9.154v41.289h-12.074V95.333z"/>
		<path i:knockout="Off" d="M285.798,95.333h-8.374v-8.86h8.374V76.248c0-7.205,3.408-13.827,14.412-13.827
			c3.214,0,6.33,0.682,8.667,1.168l-0.487,8.764c-1.46-0.39-3.019-0.779-4.771-0.779c-3.505,0-5.744,2.435-5.744,6.232v8.667h9.152
			v8.86h-9.152v41.289h-12.076V95.333z"/>
		<path i:knockout="Off" d="M314.525,86.473h12.074v50.149h-12.074V86.473z"/>
		<path i:knockout="Off" d="M366.912,135.357c-2.822,1.071-7.01,2.045-11.879,2.045c-16.555,0-23.564-11.588-23.564-25.806
			c0-14.314,7.4-25.903,24.246-25.903c3.797,0,8.277,1.169,10.518,2.046l-0.684,9.543c-2.141-1.071-5.16-2.435-8.471-2.435
			c-9.152,0-13.146,6.135-13.146,16.847c0,9.349,4.48,16.554,13.73,16.554c2.922,0,6.914-1.363,8.57-2.434L366.912,135.357z"/>
		<path i:knockout="Off" d="M378.792,107.214c0-6.622,2.629-13.341,8.959-13.341c5.453,0,8.373,4.479,8.373,13.341H378.792z
			 M404.695,124.645c-2.24,1.655-5.744,3.896-13.146,3.896c-9.348,0-12.756-5.161-12.756-13.73h29.02v-2.338
			c0-20.449-9.252-26.779-20.061-26.779c-12.758,0-20.645,11.589-20.645,26.586c0,13.535,7.01,25.123,23.176,25.123
			c7.205,0,12.465-2.143,14.996-3.214L404.695,124.645z"/>
		<path i:knockout="Off" d="M419.949,132.333c0,3.764-0.826,4.817-4.742,4.817c-3.988,0-4.818-1.054-4.818-4.817
			c0-3.688,0.83-4.894,4.818-4.894C419.197,127.439,419.949,128.493,419.949,132.333z"/>
		<path i:knockout="Off" d="M327.394,70.977c0,5.343-1.174,6.838-6.729,6.838c-5.662,0-6.84-1.495-6.84-6.838
			c0-5.234,1.178-6.944,6.84-6.944S327.394,65.528,327.394,70.977z"/>
		<path i:knockout="Off" d="M426.65,117.427c0-9.636,2.783-14.604,8.807-14.604c6.021,0,8.807,4.968,8.807,14.604
			c0,9.635-2.785,14.604-8.807,14.604C429.433,132.031,426.65,127.062,426.65,117.427z M420.025,117.427
			c0,12.044,5.27,19.723,15.432,19.723s15.432-7.679,15.432-19.723s-5.27-19.723-15.432-19.723S420.025,105.383,420.025,117.427z"/>
		<path i:knockout="Off" d="M455.179,106.512c0-2.786-0.229-5.57-0.303-8.28h6.098l0.227,6.021h0.15
			c2.033-4.667,5.27-6.549,10.914-6.549v6.248c-0.752-0.15-1.58-0.227-2.408-0.227c-4.893,0-8.355,4.216-8.355,12.572v20.324h-6.322
			V106.512z"/>
		<path i:knockout="Off" d="M478.136,117.427c0-9.636,2.635-14.604,8.432-14.604S495,107.792,495,117.427
			c0,9.635-2.635,14.604-8.432,14.604S478.136,127.062,478.136,117.427z M501.322,105.232c0-2.334,0.227-4.742,0.303-7h-6.1
			l-0.225,5.57h-0.152c-2.105-3.689-5.568-6.098-9.408-6.098c-8.582,0-13.926,6.474-13.926,19.723
			c0,13.248,5.344,19.723,13.248,19.723c4.217,0,7.604-2.108,10.086-6.475h0.152v6.023c0,6.623-3.012,11.215-10.766,11.215
			c-3.461,0-7.828-1.505-10.539-3.313L473.695,151c2.785,1.129,7.98,2.333,11.217,2.333c8.432,0,16.41-4.441,16.41-15.055V105.232z"
			/>
		<path i:knockout="Off" d="M53.516,48.019c33.438-9.845,58.09-7.316,76.037,7.543c18.497-18.494,55.483-23.115,67.042-20.807
			c-33.788-15.86-62.232-5.114-68.87,3.103C109.078,27.744,65.075,31.837,53.516,48.019z"/>
		<path i:knockout="Off" d="M139.493,7.311c23.945-2.955,44.436-0.487,57.698,9.833c15.127-8.843,43.642-8.643,52.351-6.501
			c-30.776-11.246-45.656-7.297-53.097-4.153C176.712-1.017,157.118-3.544,139.493,7.311z"/>
	</g>
	<g i:knockout="Off">
		<path i:knockout="Off" d="M540.062,124.056h23.563v13H524.75v-13l19.503-22.116c1.743-2.025,3.032-4.005,3.868-5.938
			s1.254-3.943,1.254-6.031c0-3.223-0.842-5.815-2.525-7.78c-1.684-1.964-3.923-2.946-6.716-2.946c-2.149,0-4.502,0.593-7.057,1.777
			c-2.555,1.186-5.289,2.947-8.202,5.285V71.244c3.105-1.323,6.175-2.331,9.208-3.023s6.008-1.039,8.923-1.039
			c6.401,0,11.376,1.809,14.923,5.426s5.321,8.659,5.321,15.126c0,3.74-0.753,7.227-2.259,10.46
			c-1.506,3.234-4.673,7.563-9.501,12.988L540.062,124.056z"/>
	</g>
</g>
<g id="Splash_Screen" i:layer="yes" i:dimmedPercent="3" i:rgbTrio="#4F00FFFF4F00">
</g>
</svg>
