<?xml version="1.0" encoding="UTF-8" standalone="no"?>
<!-- Created with Inkscape (http://www.inkscape.org/) -->

<svg
   xmlns:dc="http://purl.org/dc/elements/1.1/"
   xmlns:cc="http://creativecommons.org/ns#"
   xmlns:rdf="http://www.w3.org/1999/02/22-rdf-syntax-ns#"
   xmlns:svg="http://www.w3.org/2000/svg"
   xmlns="http://www.w3.org/2000/svg"
   xmlns:xlink="http://www.w3.org/1999/xlink"
   xmlns:sodipodi="http://sodipodi.sourceforge.net/DTD/sodipodi-0.dtd"
   xmlns:inkscape="http://www.inkscape.org/namespaces/inkscape"
   width="1181.4792"
   height="314.73828"
   id="svg2"
   version="1.1"
   inkscape:version="0.48.1 r9760"
   sodipodi:docname="ApacheOpenOfficeTM.svg">
  <title
     id="title8031">Apache OpenOffice TM</title>
  <defs
     id="defs4">
    <filter
       color-interpolation-filters="sRGB"
       inkscape:menu-tooltip="Edges are partly feathered out"
       inkscape:menu="Blurs"
       height="1"
       width="1"
       y="0"
       x="0"
       inkscape:label="Apparition"
       id="filter3016">
      <feMorphology
         result="result0"
         in="SourceGraphic"
         radius="4"
         id="feMorphology3018" />
      <feGaussianBlur
         result="result91"
         stdDeviation="8"
         in="result0"
         id="feGaussianBlur3020" />
      <feComposite
         in="SourceGraphic"
         operator="in"
         in2="result91"
         id="feComposite3022" />
    </filter>
    <inkscape:perspective
       sodipodi:type="inkscape:persp3d"
       inkscape:vp_x="0 : 297.64001 : 1"
       inkscape:vp_y="0 : 1000 : 0"
       inkscape:vp_z="841.89001 : 297.64001 : 1"
       inkscape:persp3d-origin="420.94501 : 198.42668 : 1"
       id="perspective59" />
    <linearGradient
       id="linearGradient7895">
      <stop
         id="stop7897"
         offset="0"
         style="stop-color:#7eb2ec;stop-opacity:1;" />
      <stop
         id="stop7899"
         offset="1"
         style="stop-color:#2065ac;stop-opacity:1;" />
    </linearGradient>
    <linearGradient
       id="linearGradient7907"
       inkscape:collect="always">
      <stop
         id="stop7909"
         offset="0"
         style="stop-color:#e6f3fa;stop-opacity:1;" />
      <stop
         id="stop7911"
         offset="1"
         style="stop-color:#e6f3fa;stop-opacity:0;" />
    </linearGradient>
    <linearGradient
       id="linearGradient7927"
       inkscape:collect="always">
      <stop
         id="stop7929"
         offset="0"
         style="stop-color:#696969;stop-opacity:1;" />
      <stop
         id="stop7931"
         offset="1"
         style="stop-color:#696969;stop-opacity:0;" />
    </linearGradient>
    <radialGradient
       inkscape:collect="always"
       xlink:href="#linearGradient7927"
       id="radialGradient7779"
       gradientUnits="userSpaceOnUse"
       gradientTransform="matrix(0.7548551,-7.7757466e-4,1.1391408e-4,0.11058653,23.199159,173.31196)"
       cx="94.249657"
       cy="152.48552"
       fx="94.249657"
       fy="152.48552"
       r="65" />
    <radialGradient
       inkscape:collect="always"
       xlink:href="#linearGradient7895"
       id="radialGradient7781"
       gradientUnits="userSpaceOnUse"
       gradientTransform="matrix(47.24319,-4.5545251,3.8248069,39.673967,-18446.316,-2490.6292)"
       cx="97.295937"
       cy="118.36192"
       fx="97.295937"
       fy="118.36192"
       r="91.96875" />
    <linearGradient
       inkscape:collect="always"
       xlink:href="#linearGradient7907"
       id="linearGradient7783"
       gradientUnits="userSpaceOnUse"
       x1="102.13333"
       y1="10.927078"
       x2="103.10371"
       y2="91.927078" />
    <radialGradient
       inkscape:collect="always"
       xlink:href="#linearGradient7927"
       id="radialGradient8025"
       gradientUnits="userSpaceOnUse"
       gradientTransform="matrix(0.7548551,-7.7757466e-4,1.1391408e-4,0.11058653,23.199159,173.31196)"
       cx="94.249657"
       cy="152.48552"
       fx="94.249657"
       fy="152.48552"
       r="65" />
    <radialGradient
       inkscape:collect="always"
       xlink:href="#linearGradient7895"
       id="radialGradient8027"
       gradientUnits="userSpaceOnUse"
       gradientTransform="matrix(47.24319,-4.5545251,3.8248069,39.673967,-18446.316,-2490.6292)"
       cx="97.295937"
       cy="118.36192"
       fx="97.295937"
       fy="118.36192"
       r="91.96875" />
    <linearGradient
       inkscape:collect="always"
       xlink:href="#linearGradient7907"
       id="linearGradient8029"
       gradientUnits="userSpaceOnUse"
       x1="102.13333"
       y1="10.927078"
       x2="103.10371"
       y2="91.927078" />
  </defs>
  <sodipodi:namedview
     id="base"
     pagecolor="#ffffff"
     bordercolor="#666666"
     borderopacity="1.0"
     inkscape:pageopacity="0.0"
     inkscape:pageshadow="2"
     inkscape:zoom="1.4555344"
     inkscape:cx="436.41003"
     inkscape:cy="218.1999"
     inkscape:document-units="px"
     inkscape:current-layer="layer2"
     showgrid="false"
     showguides="true"
     inkscape:guide-bbox="true"
     fit-margin-top="10"
     fit-margin-left="10"
     fit-margin-right="100"
     fit-margin-bottom="10"
     inkscape:window-width="1366"
     inkscape:window-height="748"
     inkscape:window-x="-2"
     inkscape:window-y="-3"
     inkscape:window-maximized="1" />
  <metadata
     id="metadata7">
    <rdf:RDF>
      <cc:Work
         rdf:about="">
        <dc:format>image/svg+xml</dc:format>
        <dc:type
           rdf:resource="http://purl.org/dc/dcmitype/StillImage" />
        <dc:title>Apache OpenOffice TM</dc:title>
        <dc:date>2012-10-05</dc:date>
        <dc:creator>
          <cc:Agent>
            <dc:title>Michael Carrazo</dc:title>
          </cc:Agent>
        </dc:creator>
        <dc:rights>
          <cc:Agent>
            <dc:title>CC-BY-SA</dc:title>
          </cc:Agent>
        </dc:rights>
        <dc:publisher>
          <cc:Agent>
            <dc:title>Inkscape</dc:title>
          </cc:Agent>
        </dc:publisher>
        <dc:language>English</dc:language>
        <dc:subject>
          <rdf:Bag>
            <rdf:li>apache openoffice</rdf:li>
            <rdf:li>openoffice</rdf:li>
            <rdf:li>apache foundation</rdf:li>
            <rdf:li>asf</rdf:li>
            <rdf:li>aoo</rdf:li>
          </rdf:Bag>
        </dc:subject>
        <dc:description>Apache OpenOffice logo</dc:description>
        <dc:contributor>
          <cc:Agent>
            <dc:title>Michael Carrazo, Alexandro Colorado</dc:title>
          </cc:Agent>
        </dc:contributor>
        <cc:license
           rdf:resource="http://creativecommons.org/licenses/by-nc-sa/3.0/" />
      </cc:Work>
      <cc:License
         rdf:about="http://creativecommons.org/licenses/by-nc-sa/3.0/">
        <cc:permits
           rdf:resource="http://creativecommons.org/ns#Reproduction" />
        <cc:permits
           rdf:resource="http://creativecommons.org/ns#Distribution" />
        <cc:requires
           rdf:resource="http://creativecommons.org/ns#Notice" />
        <cc:requires
           rdf:resource="http://creativecommons.org/ns#Attribution" />
        <cc:prohibits
           rdf:resource="http://creativecommons.org/ns#CommercialUse" />
        <cc:permits
           rdf:resource="http://creativecommons.org/ns#DerivativeWorks" />
        <cc:requires
           rdf:resource="http://creativecommons.org/ns#ShareAlike" />
      </cc:License>
    </rdf:RDF>
  </metadata>
  <g
     inkscape:groupmode="layer"
     id="layer2"
     inkscape:label="Logo"
     style="display:inline"
     transform="translate(254.29163,-791.6422)">
    <path
       inkscape:connector-curvature="0"
       id="path3043"
       style="font-size:134.95753479px;font-style:normal;font-variant:normal;font-weight:normal;font-stretch:normal;line-height:125%;letter-spacing:0px;word-spacing:0px;fill:#0e85cf;fill-opacity:1;stroke:none;font-family:Verdana;-inkscape-font-specification:Verdana"
       d="m 156.12938,938.16966 c 3.99767,4.39323 7.05091,9.77484 9.15971,16.14482 2.15255,6.37014 3.22887,13.59686 3.22897,21.68019 -1e-4,8.08344 -1.09839,15.33213 -3.29486,21.74609 -2.15274,6.37004 -5.18401,11.68584 -9.09382,15.94714 -4.04178,4.4371 -8.83031,7.7759 -14.3656,10.0164 -5.4915,2.2405 -11.7737,3.3607 -18.84661,3.3607 -6.89729,0 -13.17949,-1.1422 -18.84661,-3.4266 -5.623257,-2.2845 -10.411784,-5.6013 -14.365595,-9.9505 -3.95385,-4.3492 -7.007085,-9.6869 -9.159715,-16.01304 -2.10872,-6.3261 -3.163075,-13.55282 -3.163067,-21.68019 -8e-6,-7.99547 1.054347,-15.15629 3.163067,-21.48249 2.108699,-6.36999 5.1839,-11.81749 9.225613,-16.34252 3.865947,-4.30519 8.654474,-7.60005 14.365597,-9.88458 5.75498,-2.28434 12.01522,-3.42656 18.78071,-3.42666 7.02898,10e-5 13.33314,1.16428 18.91251,3.49255 5.62315,2.28454 10.38971,5.55743 14.2997,9.81869 m -1.18615,37.82501 c -9e-5,-12.74007 -2.85563,-22.55874 -8.56664,-29.45606 -5.71117,-6.94109 -13.509,-10.41167 -23.39352,-10.41176 -9.97249,9e-5 -17.81426,3.47067 -23.525314,10.41176 -5.667186,6.89732 -8.500764,16.71599 -8.500743,29.45606 -2.1e-5,12.87197 2.899454,22.73458 8.698435,29.58783 5.798922,6.8094 13.574782,10.2141 23.327622,10.2141 9.75273,0 17.50663,-3.4047 23.26172,-10.2141 5.79888,-6.85325 8.69835,-16.71586 8.69844,-29.58783" />
    <path
       inkscape:connector-curvature="0"
       id="path3045"
       style="font-size:134.95753479px;font-style:normal;font-variant:normal;font-weight:normal;font-stretch:normal;line-height:125%;letter-spacing:0px;word-spacing:0px;fill:#0e85cf;fill-opacity:1;stroke:none;font-family:Verdana;-inkscape-font-specification:Verdana"
       d="m 252.99831,987.329 c -8e-5,5.97471 -0.85674,11.44418 -2.56999,16.4084 -1.7134,4.9204 -4.12963,9.0938 -7.2487,12.5205 -2.89954,3.2509 -6.32619,5.777 -10.27997,7.5782 -3.90995,1.7572 -8.06147,2.6359 -12.45457,2.6359 -3.82208,0 -7.29267,-0.4174 -10.41177,-1.2521 -3.07523,-0.8347 -6.21633,-2.1307 -9.4233,-3.8879 l 0,30.8399 -12.38868,0 0,-100.75689 12.38868,0 0,7.70997 c 3.29483,-2.76761 6.98508,-5.07401 11.07074,-6.91921 4.12952,-1.88898 8.52266,-2.8335 13.17944,-2.83358 8.87411,8e-5 15.77134,3.36083 20.69173,10.08228 4.96419,6.67764 7.44631,15.96915 7.44639,27.87453 m -12.78406,0.32949 c -7e-5,-8.87412 -1.5157,-15.50777 -4.54691,-19.90097 -3.03133,-4.39309 -7.68806,-6.58966 -13.97021,-6.58972 -3.5585,6e-5 -7.13891,0.76886 -10.74125,2.3064 -3.60242,1.53766 -7.05104,3.55851 -10.34587,6.06255 l 0,41.71295 c 3.51449,1.5815 6.5238,2.6579 9.02792,3.229 2.54799,0.5711 5.4255,0.8566 8.63254,0.8566 6.89719,0 12.2788,-2.3283 16.14482,-6.9851 3.86591,-4.6567 5.79889,-11.55394 5.79896,-20.69171" />
    <path
       inkscape:connector-curvature="0"
       id="path3047"
       style="font-size:134.95753479px;font-style:normal;font-variant:normal;font-weight:normal;font-stretch:normal;line-height:125%;letter-spacing:0px;word-spacing:0px;fill:#0e85cf;fill-opacity:1;stroke:none;font-family:Verdana;-inkscape-font-specification:Verdana"
       d="m 333.92012,989.50361 -54.23342,0 c -2e-5,4.52497 0.68092,8.4788 2.04281,11.86149 1.36185,3.3388 3.22894,6.0845 5.60127,8.2372 2.2844,2.1087 4.98619,3.6902 8.10536,4.7446 3.16303,1.0543 6.63361,1.5815 10.41176,1.5815 5.00814,0 10.03829,-0.9884 15.09047,-2.9654 5.09598,-2.0208 8.72033,-3.9977 10.87304,-5.9307 l 0.65897,0 0,13.5089 c -4.17356,1.7573 -8.43491,3.229 -12.78406,4.4151 -4.34927,1.1862 -8.91814,1.7792 -13.70663,1.7792 -12.21298,0 -21.74611,-3.2948 -28.5994,-9.8845 -6.85332,-6.6337 -10.27997,-16.035 -10.27996,-28.20406 -10e-6,-12.03718 3.27288,-21.59227 9.81868,-28.66529 6.5897,-7.0729 15.2442,-10.60938 25.96351,-10.60946 9.92847,8e-5 17.57254,2.89955 22.93224,8.69844 5.4035,5.79901 8.10529,14.03616 8.10536,24.71146 l 0,6.72152 m -12.05919,-9.4892 c -0.044,-6.50181 -1.69143,-11.53196 -4.9423,-15.09047 -3.20705,-3.55839 -8.1054,-5.33761 -14.69508,-5.33768 -6.63369,7e-5 -11.92743,1.95502 -15.88123,5.86486 -3.90993,3.90996 -6.12846,8.76438 -6.65562,14.56329 l 42.17423,0" />
    <path
       inkscape:connector-curvature="0"
       id="path3049"
       style="font-size:134.95753479px;font-style:normal;font-variant:normal;font-weight:normal;font-stretch:normal;line-height:125%;letter-spacing:0px;word-spacing:0px;fill:#0e85cf;fill-opacity:1;stroke:none;font-family:Verdana;-inkscape-font-specification:Verdana"
       d="m 414.24885,1025.0222 -12.38868,0 0,-41.91062 c -6e-5,-3.38268 -0.19776,-6.54575 -0.59308,-9.48921 -0.39544,-2.98728 -1.12031,-5.31565 -2.17461,-6.9851 -1.09834,-1.84506 -2.67987,-3.20694 -4.7446,-4.08563 -2.06483,-0.9225 -4.74465,-1.38378 -8.03946,-1.38384 -3.38277,6e-5 -6.91925,0.83476 -10.60946,2.50409 -3.69027,1.66946 -7.22675,3.80013 -10.60945,6.39203 l 0,54.95828 -12.38868,0 0,-73.60719 12.38868,0 0,8.17125 c 3.86594,-3.20693 7.8637,-5.71102 11.9933,-7.51228 4.12952,-1.80112 8.3689,-2.70171 12.71816,-2.70179 7.95155,8e-5 14.01408,2.39434 18.18764,7.1828 4.17342,4.7886 6.26016,11.68583 6.26024,20.69173 l 0,47.77548" />
    <g
       id="g7773"
       transform="matrix(0.04831166,0,0,0.04831166,551.85414,897.6733)">
      <path
         inkscape:export-ydpi="100"
         inkscape:export-xdpi="100"
         inkscape:export-filename="/home/guest/Pictures/gull3D.png"
         transform="matrix(31.786912,0,0,31.786912,-16479.371,-2242.0369)"
         d="m 161,187.42708 c 0,6.90356 -29.10149,12.5 -65,12.5 -35.898509,0 -65,-5.59644 -65,-12.5 0,-6.90356 29.101491,-12.5 65,-12.5 35.89851,0 65,5.59644 65,12.5 z"
         sodipodi:ry="12.5"
         sodipodi:rx="65"
         sodipodi:cy="187.42708"
         sodipodi:cx="96"
         id="path7915"
         style="color:#000000;fill:url(#radialGradient8025);fill-opacity:1;fill-rule:nonzero;marker:none;visibility:visible;display:inline;overflow:visible;enable-background:accumulate"
         sodipodi:type="arc" />
      <path
         transform="matrix(31.786912,0,0,31.786912,-16479.371,-1987.7417)"
         d="m 183.53899,91.696571 c 0,50.563079 -41.08661,91.552539 -91.769497,91.552539 C 41.086602,183.24911 0,142.25965 0,91.696571 0,41.133498 41.086602,0.14402771 91.769493,0.14402771 c 50.682887,0 91.769497,40.98947029 91.769497,91.55254329 z"
         sodipodi:ry="91.552544"
         sodipodi:rx="91.769493"
         sodipodi:cy="91.696571"
         sodipodi:cx="91.769493"
         id="path3024"
         style="color:#000000;fill:#ffffff;fill-opacity:1;fill-rule:evenodd;marker:none;visibility:visible;display:inline;overflow:visible;enable-background:accumulate"
         sodipodi:type="arc" />
      <path
         inkscape:export-ydpi="100"
         inkscape:export-xdpi="100"
         inkscape:export-filename="/home/guest/Pictures/gull3D.png"
         inkscape:connector-curvature="0"
         id="OOoLogo"
         d="m -13555.969,-1987.7417 c -1614.459,0 -2923.402,1308.94337 -2923.402,2923.40258 0,215.46272 23.305,425.59712 67.547,627.79152 2.684,-3.4826 5.626,-7.2083 8.94,-9.9334 408.161,-207.7516 1098.564,-364.4907 2028.402,18.8735 749.588,-520.9659 1791.695,-671.78209 2718.775,-313.8958 35.876,23.3332 56.731,64.2439 -3.974,85.4274 -90.93,-6.7166 -164.993,-11.5514 -261.248,-11.9202 -947.727,0 -1799.036,348.7502 -2315.478,1054.9282 -18.373,25.838 -46.068,62.9654 -84.434,38.7403 -1.272,-1.1761 -2.766,-2.0598 -3.974,-2.9785 -508.495,-478.2976 -1187.257,-664.5782 -1940.988,-657.5916 -7.097,0.063 -94.368,0 -94.368,0 357.5,1210.6007 1477.791,2093.9628 2804.202,2093.9628 1614.46,0 2923.403,-1308.9435 2923.403,-2923.40263 0,-1614.4608 -1308.943,-2923.40417 -2923.403,-2923.40417 z m 1696.626,1555.57202 c 255.66,-2.93043 516.223,47.7854 759.907,156.94788 21.247,15.47229 32.949,41.62115 -4.967,52.64708 -55.55,-7.06497 -100.906,-12.55424 -159.928,-15.89346 -581.244,-30.69027 -1114.648,154.793679 -1454.251,571.17108 -12.105,15.25136 -30.895,37.95293 -53.64,21.8535 -0.744,-0.76289 -1.279,-1.38274 -1.988,-1.98668 -296.372,-309.807961 -704.479,-442.334591 -1169.162,-466.87028 -174.792,-9.22901 -344.879,8.20643 -506.603,47.680379 -36.788,5.22957 -56.365,-20.02894 -18.874,-47.680379 493.39,-289.22783 1133.801,-321.85011 1691.659,-56.62044 268.085,-166.07052 589.144,-257.48098 917.847,-261.24868 z"
         style="opacity:0.98706863;color:#000000;fill:url(#radialGradient8027);fill-opacity:1;fill-rule:nonzero;stroke:none;stroke-width:2.5;marker:none;visibility:visible;display:inline;overflow:visible;enable-background:accumulate" />
      <path
         inkscape:export-ydpi="100"
         inkscape:export-xdpi="100"
         inkscape:export-filename="/home/guest/Pictures/gull3D.png"
         transform="matrix(32.757506,0,0,31.786912,-17027.756,-2369.1847)"
         d="m 172,61.927078 c 0,25.957383 -29.32535,47.000002 -65.5,47.000002 -36.174651,0 -65.5,-21.042619 -65.5,-47.000002 0,-25.957383 29.325349,-47 65.5,-47 36.17465,0 65.5,21.042617 65.5,47 z"
         sodipodi:ry="47"
         sodipodi:rx="65.5"
         sodipodi:cy="61.927078"
         sodipodi:cx="106.5"
         id="path7905"
         style="color:#000000;fill:url(#linearGradient8029);fill-opacity:1;fill-rule:nonzero;marker:none;visibility:visible;display:inline;overflow:visible;enable-background:accumulate"
         sodipodi:type="arc" />
    </g>
    <path
       inkscape:connector-curvature="0"
       style="fill:#000000;stroke:#000000;stroke-width:0.04831166px;stroke-linecap:butt;stroke-linejoin:miter;stroke-opacity:1"
       d="m 121.90915,842.68217 -18.16972,51.60289 7.99407,-0.24307 5.57245,-14.53577 19.13897,0.24307 5.32937,13.56652 8.72177,0.48463 -18.41278,-50.63364 -10.17413,-0.48463 z m 4.84475,10.17564 7.50944,20.10822 -14.53577,-0.48462 7.02633,-19.6236 z"
       id="path7785" />
    <path
       inkscape:connector-curvature="0"
       style="fill:#000000;stroke:#000000;stroke-width:0.04831166px;stroke-linecap:butt;stroke-linejoin:miter;stroke-opacity:1"
       d="m 175.33731,854.03239 c -6.41437,0.0799 -9.82236,3.91325 -9.82236,3.91325 l -0.24156,-3.87702 -8.23714,0 0.24307,1.21233 0.48462,52.086 7.50945,0 0,-14.77883 c 0,0 13.08202,2.66568 17.20046,0.24306 4.11844,-2.42261 10.17564,-11.14424 10.17564,-18.65434 0,-7.51009 -2.68601,-19.22131 -15.98965,-20.10822 -0.45424,-0.0303 -0.8949,-0.0416 -1.32253,-0.0362 z m 0.11172,7.54719 c 6.54554,0 8.72026,3.6329 8.72026,12.83882 0,9.20593 -7.02494,12.84034 -11.14339,12.84034 -4.11844,0 -7.51095,-2.18007 -7.51095,-2.18007 l 0,-19.86515 c 0,0 3.39303,-3.63394 9.93408,-3.63394 z"
       id="path7787" />
    <path
       inkscape:connector-curvature="0"
       style="fill:#000000;stroke:#000000;stroke-width:0.04831166px;stroke-linecap:butt;stroke-linejoin:miter;stroke-opacity:1"
       d="m 215.90552,853.584 c -7.02558,0 -13.56652,2.18006 -13.56652,2.18006 l 0.48463,8.48021 c 0,0 6.29897,-2.90706 11.38645,-3.14932 5.08748,-0.24226 5.57146,-0.48491 7.99407,1.69544 2.42261,2.18035 1.69695,4.84475 1.69695,4.84475 0,0 -25.4376,0.96974 -25.4376,13.80959 0,12.83984 10.65917,13.32345 12.59726,13.32345 1.93809,0 13.80959,-3.8755 13.80959,-3.8755 l 0.24156,3.39238 6.78326,0 0.24156,-29.31461 c 0,0 7.7e-4,-3.63396 -3.39088,-7.26788 -3.39165,-3.63392 -5.81475,-4.11857 -12.84033,-4.11857 z m 5.9061,20.71362 c 1.72611,0 2.81566,0.12078 2.81566,0.12078 l -0.24156,8.72177 c 0,0 -3.63529,4.36012 -9.93408,4.36012 -6.29879,0 -7.50945,-1.93702 -7.50945,-5.57093 0,-3.63392 3.14966,-6.05729 8.23714,-7.02633 2.54374,-0.48452 4.90618,-0.60541 6.63229,-0.60541 z"
       id="path7797" />
    <path
       style="fill:#000000;stroke:#000000;stroke-width:0.04831166px;stroke-linecap:butt;stroke-linejoin:miter;stroke-opacity:1"
       d="m 273.32186,857.70288 0,7.99462 c 0,0 -7.26784,-4.84523 -12.83984,-4.60297 -5.57201,0.24226 -10.6595,3.63392 -10.41723,12.59759 0.24226,8.96366 4.84522,13.80888 8.96366,14.05115 4.11844,0.24226 13.0821,-5.08749 13.0821,-5.08749 l 0.24227,8.7214 c 0,0 -5.57201,3.39166 -12.11306,3.1494 -6.54106,-0.24226 -18.65411,-2.42261 -19.13864,-20.10768 -0.48452,-17.68507 13.80889,-20.5922 18.41185,-20.83446 4.60297,-0.24226 13.80889,4.11844 13.80889,4.11844 z"
       id="path7800"
       inkscape:connector-curvature="0" />
    <path
       style="fill:#000000;stroke:#000000;stroke-width:0.04831166px;stroke-linecap:butt;stroke-linejoin:miter;stroke-opacity:1"
       d="m 281.31648,840.26007 0,53.0552 8.96367,0 0,-27.86003 c 0,0 3.87617,-3.63392 8.23688,-3.87618 4.3607,-0.24227 7.75235,2.42261 7.75235,2.42261 l 0.96905,2.18035 0,27.86004 7.75236,0.24226 -0.48453,-30.52491 c 0,0 -2.90713,-9.44819 -11.14401,-9.44819 -8.23688,0 -13.80889,3.87618 -13.80889,3.87618 l 0,-17.44281 z"
       id="path7802"
       inkscape:connector-curvature="0" />
    <path
       inkscape:connector-curvature="0"
       style="fill:#000000;stroke:#000000;stroke-width:0.04831166px;stroke-linecap:butt;stroke-linejoin:miter;stroke-opacity:1"
       d="m 342.8746,854.13354 c -15.32791,0.0952 -19.04074,12.66265 -19.13595,20.0886 -0.0952,7.42594 6.18866,19.99196 20.18371,19.99196 13.99504,0 14.75619,-3.33199 14.75619,-3.33199 l -0.19023,-8.0922 c 0,0 -5.33159,4.18934 -14.09039,4.37975 -8.75881,0.19041 -12.66219,-9.52042 -12.66219,-9.52042 l 0.19023,-1.99889 27.32326,0 -0.28534,-10.09261 c 0,0 -0.76139,-11.5194 -16.08929,-11.4242 z m -0.40461,6.66399 c 0.10241,-0.001 0.20537,-0.001 0.3095,0 6.6643,0.0952 7.99708,5.23729 7.99708,5.23729 l 0,2.85492 -18.08818,0.0951 0.28534,-2.56958 c 0,0 3.04435,-5.53557 9.49626,-5.61774 z"
       id="path7804" />
    <rect
       style="color:#000000;fill:#000000;fill-opacity:1;fill-rule:evenodd;stroke:none;marker:none;visibility:visible;display:inline;overflow:visible;enable-background:accumulate"
       id="rect7987"
       width="22.087336"
       height="2.8764904"
       x="810.41791"
       y="912.34991" />
    <rect
       style="color:#000000;fill:#000000;fill-opacity:1;fill-rule:evenodd;stroke:none;marker:none;visibility:visible;display:inline;overflow:visible;enable-background:accumulate"
       id="rect7989"
       width="3.9038081"
       height="21.984604"
       x="819.97198"
       y="915.12366" />
    <path
       style="color:#000000;fill:#000000;fill-opacity:1;fill-rule:evenodd;stroke:none;marker:none;visibility:visible;display:inline;overflow:visible;enable-background:accumulate"
       d="m 836.10155,912.14487 0,24.75822 3.69734,0 0,-18.89137 5.75362,12.21379 2.46544,0 6.2669,-12.02054 0.20532,-1.11872 0,19.9195 3.69739,0 0,-24.45023 -3.69739,0 c -0.81207,0.11005 -1.11107,0.28273 -1.43877,0.61598 l -6.26694,11.60838 -5.15162,-12.10428 c -0.61418,-0.2118 -1.22523,-0.30329 -1.83395,-0.53073 z"
       id="rect7991"
       inkscape:connector-curvature="0"
       sodipodi:nodetypes="ccccccccccccccccc" />
    <path
       inkscape:connector-curvature="0"
       id="path3030"
       style="font-size:134.95753479px;font-style:normal;font-variant:normal;font-weight:normal;font-stretch:normal;line-height:125%;letter-spacing:0px;word-spacing:0px;fill:#000000;fill-opacity:1;stroke:none;font-family:Verdana;-inkscape-font-specification:Verdana"
       d="m 512.12939,938.16966 c 3.99768,4.39323 7.05091,9.77484 9.15972,16.14482 2.15254,6.37014 3.22886,13.59686 3.22896,21.68019 -10e-5,8.08344 -1.09838,15.33213 -3.29486,21.74609 -2.15274,6.37004 -5.18401,11.68584 -9.09382,15.94714 -4.04178,4.4371 -8.8303,7.7759 -14.36559,10.0164 -5.49151,2.2405 -11.7737,3.3607 -18.84661,3.3607 -6.89729,0 -13.17949,-1.1422 -18.84661,-3.4266 -5.62326,-2.2845 -10.41179,-5.6013 -14.3656,-9.9505 -3.95385,-4.3492 -7.00708,-9.6869 -9.15971,-16.01304 -2.10872,-6.3261 -3.16308,-13.55282 -3.16307,-21.68019 -1e-5,-7.99547 1.05435,-15.15629 3.16307,-21.48249 2.10869,-6.36999 5.1839,-11.81749 9.22561,-16.34252 3.86595,-4.30519 8.65447,-7.60005 14.36559,-9.88458 5.75499,-2.28434 12.01522,-3.42656 18.78072,-3.42666 7.02897,10e-5 13.33314,1.16428 18.9125,3.49255 5.62316,2.28454 10.38972,5.55743 14.2997,9.81869 m -1.18615,37.82501 c -8e-5,-12.74007 -2.85563,-22.55874 -8.56664,-29.45606 -5.71116,-6.94109 -13.50899,-10.41167 -23.39352,-10.41176 -9.97249,9e-5 -17.81425,3.47067 -23.52531,10.41176 -5.66718,6.89732 -8.50076,16.71599 -8.50074,29.45606 -2e-5,12.87197 2.89945,22.73458 8.69843,29.58783 5.79892,6.8094 13.57479,10.2141 23.32762,10.2141 9.75273,0 17.50663,-3.4047 23.26173,-10.2141 5.79887,-6.85325 8.69835,-16.71586 8.69843,-29.58783" />
    <path
       inkscape:connector-curvature="0"
       id="path3032"
       style="font-size:134.95753479px;font-style:normal;font-variant:normal;font-weight:normal;font-stretch:normal;line-height:125%;letter-spacing:0px;word-spacing:0px;fill:#000000;fill-opacity:1;stroke:none;font-family:Verdana;-inkscape-font-specification:Verdana"
       d="m 583.82558,934.47942 -0.65897,0 c -1.36193,-0.39529 -3.14115,-0.79068 -5.33768,-1.18615 -2.19661,-0.43923 -4.1296,-0.65888 -5.79895,-0.65897 -5.31575,9e-5 -9.18171,1.18624 -11.59791,3.55845 -2.37233,2.32845 -3.55848,6.56784 -3.55846,12.71816 l 0,2.5041 22.33917,0 0,10.41176 -21.94378,0 0,63.19543 -12.38868,0 0,-63.19543 -8.36895,0 0,-10.41176 8.36895,0 0,-2.4382 c -10e-6,-8.74228 2.17459,-15.44183 6.52382,-20.09866 4.3492,-4.70057 10.63139,-7.0509 18.84661,-7.051 2.76765,1e-4 5.24977,0.1319 7.44639,0.39538 2.24046,0.26369 4.28327,0.57121 6.12844,0.92256 l 0,11.33433" />
    <path
       inkscape:connector-curvature="0"
       id="path3034"
       style="font-size:134.95753479px;font-style:normal;font-variant:normal;font-weight:normal;font-stretch:normal;line-height:125%;letter-spacing:0px;word-spacing:0px;fill:#000000;fill-opacity:1;stroke:none;font-family:Verdana;-inkscape-font-specification:Verdana"
       d="m 631.27159,934.47942 -0.65897,0 c -1.36193,-0.39529 -3.14115,-0.79068 -5.33768,-1.18615 -2.19662,-0.43923 -4.1296,-0.65888 -5.79895,-0.65897 -5.31575,9e-5 -9.18172,1.18624 -11.59792,3.55845 -2.37232,2.32845 -3.55847,6.56784 -3.55845,12.71816 l 0,2.5041 22.33916,0 0,10.41176 -21.94378,0 0,63.19543 -12.38868,0 0,-63.19543 -8.36894,0 0,-10.41176 8.36894,0 0,-2.4382 c -10e-6,-8.74228 2.1746,-15.44183 6.52383,-20.09866 4.34919,-4.70057 10.63139,-7.0509 18.84661,-7.051 2.76764,1e-4 5.24977,0.1319 7.44639,0.39538 2.24046,0.26369 4.28327,0.57121 6.12844,0.92256 l 0,11.33433" />
    <path
       inkscape:connector-curvature="0"
       id="path3036"
       style="font-size:134.95753479px;font-style:normal;font-variant:normal;font-weight:normal;font-stretch:normal;line-height:125%;letter-spacing:0px;word-spacing:0px;fill:#000000;fill-opacity:1;stroke:none;font-family:Verdana;-inkscape-font-specification:Verdana"
       d="m 652.42459,939.09222 -13.97021,0 0,-12.84996 13.97021,0 0,12.84996 m -0.79076,85.92998 -12.38868,0 0,-73.60719 12.38868,0 0,73.60719" />
    <path
       inkscape:connector-curvature="0"
       id="path3038"
       style="font-size:134.95753479px;font-style:normal;font-variant:normal;font-weight:normal;font-stretch:normal;line-height:125%;letter-spacing:0px;word-spacing:0px;fill:#000000;fill-opacity:1;stroke:none;font-family:Verdana;-inkscape-font-specification:Verdana"
       d="m 730.71051,1020.4094 c -4.12962,1.9769 -8.06148,3.5145 -11.7956,4.6128 -3.6903,1.0983 -7.62216,1.6474 -11.79561,1.6474 -5.31574,0 -10.19214,-0.7688 -14.62918,-2.3064 -4.43711,-1.5815 -8.23718,-3.9538 -11.40022,-7.1169 -3.20702,-3.163 -5.68914,-7.1608 -7.44639,-11.9933 -1.75727,-4.8324 -2.6359,-10.47758 -2.63589,-16.93554 -10e-6,-12.03718 3.29485,-21.48244 9.88458,-28.33581 6.63364,-6.85324 15.37599,-10.2799 26.2271,-10.27997 4.21738,7e-5 8.34693,0.59315 12.38868,1.77922 4.08557,1.18623 7.81974,2.63596 11.20253,4.34922 l 0,13.77252 -0.65897,0 c -3.77817,-2.94335 -7.68807,-5.20582 -11.72971,-6.78741 -3.99781,-1.58147 -7.90771,-2.37224 -11.7297,-2.3723 -7.02908,6e-5 -12.58641,2.37236 -16.672,7.1169 -4.04172,4.70072 -6.06257,11.61992 -6.06255,20.75763 -2e-5,8.87419 1.97689,15.70554 5.93075,20.49404 3.99774,4.7446 9.599,7.1169 16.8038,7.1169 2.50405,0 5.05207,-0.3295 7.64407,-0.9885 2.59191,-0.6589 4.92028,-1.5156 6.98511,-2.57 1.80113,-0.9225 3.49249,-1.889 5.07409,-2.8994 1.58147,-1.0544 2.83351,-1.955 3.75614,-2.7018 l 0.65897,0 0,13.6407" />
    <path
       inkscape:connector-curvature="0"
       id="path3040"
       style="font-size:134.95753479px;font-style:normal;font-variant:normal;font-weight:normal;font-stretch:normal;line-height:125%;letter-spacing:0px;word-spacing:0px;fill:#000000;fill-opacity:1;stroke:none;font-family:Verdana;-inkscape-font-specification:Verdana"
       d="m 808.27155,989.50361 -54.23343,0 c -2e-5,4.52497 0.68092,8.4788 2.04282,11.86149 1.36185,3.3388 3.22894,6.0845 5.60126,8.2372 2.28441,2.1087 4.98619,3.6902 8.10536,4.7446 3.16303,1.0543 6.63361,1.5815 10.41176,1.5815 5.00814,0 10.03829,-0.9884 15.09047,-2.9654 5.09599,-2.0208 8.72033,-3.9977 10.87304,-5.9307 l 0.65898,0 0,13.5089 c -4.17356,1.7573 -8.43491,3.229 -12.78407,4.4151 -4.34927,1.1862 -8.91814,1.7792 -13.70662,1.7792 -12.21299,0 -21.74611,-3.2948 -28.5994,-9.8845 -6.85332,-6.6337 -10.27998,-16.035 -10.27997,-28.20406 -10e-6,-12.03718 3.27289,-21.59227 9.81869,-28.66529 6.5897,-7.0729 15.24419,-10.60938 25.96351,-10.60946 9.92846,8e-5 17.57253,2.89955 22.93224,8.69844 5.4035,5.79901 8.10528,14.03616 8.10536,24.71146 l 0,6.72152 m -12.0592,-9.4892 c -0.044,-6.50181 -1.69142,-11.53196 -4.94229,-15.09047 -3.20705,-3.55839 -8.10541,-5.33761 -14.69508,-5.33768 -6.63369,7e-5 -11.92743,1.95502 -15.88124,5.86486 -3.90992,3.90996 -6.12846,8.76438 -6.65562,14.56329 l 42.17423,0" />
  </g>
</svg>
