<?xml version="1.0" encoding="UTF-8" standalone="no"?>
<!-- Created with Sodipodi ("http://www.sodipodi.com/") -->
<svg
   xmlns:dc="http://purl.org/dc/elements/1.1/"
   xmlns:cc="http://web.resource.org/cc/"
   xmlns:rdf="http://www.w3.org/1999/02/22-rdf-syntax-ns#"
   xmlns:svg="http://www.w3.org/2000/svg"
   xmlns="http://www.w3.org/2000/svg"
   xmlns:sodipodi="http://inkscape.sourceforge.net/DTD/sodipodi-0.dtd"
   xmlns:inkscape="http://www.inkscape.org/namespaces/inkscape"
   height="140mm"
   id="svg577"
   sodipodi:docbase="/home/sanavia/CVS/openoffice/it/www/linguistico/images"
   sodipodi:docname="flagworld.svg"
   sodipodi:version="0.32"
   width="210mm"
   inkscape:version="0.42">
  <metadata
     id="metadata3">
    <rdf:RDF>
      <cc:Work
         rdf:about="">
        <dc:title>Clipart by Tobias Jakobs - Flags of the World</dc:title>
        <dc:description />
        <dc:subject>
          <rdf:Bag>
            <rdf:li>miscellany</rdf:li>
            <rdf:li />
            <rdf:li>organizations</rdf:li>
            <rdf:li>flag</rdf:li>
            <rdf:li>sign</rdf:li>
          </rdf:Bag>
        </dc:subject>
        <dc:publisher>
          <cc:Agent
             rdf:about="http://www.openclipart.org">
            <dc:title>Tobias Jakobs</dc:title>
          </cc:Agent>
        </dc:publisher>
        <dc:creator>
          <cc:Agent>
            <dc:title>Tobias Jakobs</dc:title>
          </cc:Agent>
        </dc:creator>
        <dc:rights>
          <cc:Agent>
            <dc:title>Tobias Jakobs</dc:title>
          </cc:Agent>
        </dc:rights>
        <dc:date />
        <dc:format>image/svg+xml</dc:format>
        <dc:type
           rdf:resource="http://purl.org/dc/dcmitype/StillImage" />
        <cc:license
           rdf:resource="http://web.resource.org/cc/PublicDomain" />
        <dc:language>en</dc:language>
      </cc:Work>
      <cc:License
         rdf:about="http://web.resource.org/cc/PublicDomain">
        <cc:permits
           rdf:resource="http://web.resource.org/cc/Reproduction" />
        <cc:permits
           rdf:resource="http://web.resource.org/cc/Distribution" />
        <cc:permits
           rdf:resource="http://web.resource.org/cc/DerivativeWorks" />
      </cc:License>
    </rdf:RDF>
  </metadata>
  <defs
     id="defs579" />
  <sodipodi:namedview
     id="base"
     inkscape:zoom="0.74788889"
     inkscape:cx="324.28252"
     inkscape:cy="356.86663"
     inkscape:window-width="875"
     inkscape:window-height="543"
     inkscape:window-x="5"
     inkscape:window-y="73"
     inkscape:current-layer="svg577" />
  <rect
     height="496.0632"
     id="rect588"
     style="font-size:12.000;fill:#ffffff;fill-rule:evenodd;stroke-width:1;fill-opacity:1.0000;"
     width="194.8819"
     x="-2.261502e-13"
     y="-1.340787e-4" />
  <rect
     height="496.0632"
     id="rect587"
     style="font-size:12.000;fill:#0000bd;fill-rule:evenodd;stroke-width:1;fill-opacity:1.0000;"
     width="549.2127"
     x="194.8819"
     y="-1.645963e-4" />
  <polygon
     id="polygon581"
     points="82.65855,52.74876 71.31644,45.29119 60.10659,52.94613 63.69426,39.85463 52.94995,31.55893 66.50936,30.92551 71.07886,18.14355 75.87137,30.84358 89.43979,31.23959 78.84232,39.72206 82.65855,52.74876 "
     sodipodi:arg1="0.93372643"
     sodipodi:arg2="1.56204498"
     sodipodi:cx="71.2467499"
     sodipodi:cy="37.3273926"
     sodipodi:r1="19.1845760"
     sodipodi:r2="7.96410608"
     sodipodi:sides="5"
     sodipodi:type="star"
     style="font-size:12.000;fill:#00be00;fill-rule:evenodd;fill-opacity:1.0000;"
     transform="matrix(2.752568,0,0,2.752568,0.848969,-1.525879e-5)" />
  <polygon
     id="polygon582"
     points="82.65855,52.74876 71.31644,45.29119 60.10659,52.94613 63.69426,39.85463 52.94995,31.55893 66.50936,30.92551 71.07886,18.14355 75.87137,30.84358 89.43979,31.23959 78.84232,39.72206 82.65855,52.74876 "
     sodipodi:arg1="0.93372643"
     sodipodi:arg2="1.56204498"
     sodipodi:cx="71.2467499"
     sodipodi:cy="37.3273926"
     sodipodi:r1="19.1845760"
     sodipodi:r2="7.96410608"
     sodipodi:sides="5"
     sodipodi:type="star"
     style="font-size:12.000;fill:#ffffff;fill-rule:evenodd;fill-opacity:1.0000;"
     transform="matrix(2.752444,2.616797e-2,-2.616797e-2,2.752444,81.59091,58.41814)" />
  <polygon
     id="polygon583"
     points="82.65855,52.74876 71.31644,45.29119 60.10659,52.94613 63.69426,39.85463 52.94995,31.55893 66.50936,30.92551 71.07886,18.14355 75.87137,30.84358 89.43979,31.23959 78.84232,39.72206 82.65855,52.74876 "
     sodipodi:arg1="0.93372643"
     sodipodi:arg2="1.56204498"
     sodipodi:cx="71.2467499"
     sodipodi:cy="37.3273926"
     sodipodi:r1="19.1845760"
     sodipodi:r2="7.96410608"
     sodipodi:sides="5"
     sodipodi:type="star"
     style="font-size:12.000;fill:#ffff00;fill-rule:evenodd;fill-opacity:1.0000;"
     transform="matrix(2.752444,2.616797e-2,-2.616797e-2,2.752444,50.17910,156.0495)" />
  <polygon
     id="polygon584"
     points="82.65855,52.74876 71.31644,45.29119 60.10659,52.94613 63.69426,39.85463 52.94995,31.55893 66.50936,30.92551 71.07886,18.14355 75.87137,30.84358 89.43979,31.23959 78.84232,39.72206 82.65855,52.74876 "
     sodipodi:arg1="0.93372643"
     sodipodi:arg2="1.56204498"
     sodipodi:cx="71.2467499"
     sodipodi:cy="37.3273926"
     sodipodi:r1="19.1845760"
     sodipodi:r2="7.96410608"
     sodipodi:sides="5"
     sodipodi:type="star"
     style="font-size:12.000;fill:#d60000;fill-rule:evenodd;fill-opacity:1.0000;"
     transform="matrix(2.752444,2.616797e-2,-2.616797e-2,2.752444,-49.15010,156.8986)" />
  <polygon
     id="polygon585"
     points="82.65855,52.74876 71.31644,45.29119 60.10659,52.94613 63.69426,39.85463 52.94995,31.55893 66.50936,30.92551 71.07886,18.14355 75.87137,30.84358 89.43979,31.23959 78.84232,39.72206 82.65855,52.74876 "
     sodipodi:arg1="0.93372643"
     sodipodi:arg2="1.56204498"
     sodipodi:cx="71.2467499"
     sodipodi:cy="37.3273926"
     sodipodi:r1="19.1845760"
     sodipodi:r2="7.96410608"
     sodipodi:sides="5"
     sodipodi:type="star"
     style="font-size:12.000;fill:#0000bd;fill-rule:evenodd;fill-opacity:1.0000;"
     transform="matrix(2.752444,2.616797e-2,-2.616797e-2,2.752444,-80.56191,57.56930)" />
  <polygon
     id="polygon586"
     points="82.65855,52.74876 71.31644,45.29119 60.10659,52.94613 63.69426,39.85463 52.94995,31.55893 66.50936,30.92551 71.07886,18.14355 75.87137,30.84358 89.43979,31.23959 78.84232,39.72206 82.65855,52.74876 "
     sodipodi:arg1="0.93372643"
     sodipodi:arg2="1.56204498"
     sodipodi:cx="71.2467499"
     sodipodi:cy="37.3273926"
     sodipodi:r1="19.1845760"
     sodipodi:r2="7.96410608"
     sodipodi:sides="5"
     sodipodi:type="star"
     style="font-size:12.000;fill:#000000;fill-rule:evenodd;fill-opacity:1.0000;"
     transform="matrix(2.752444,-2.616797e-2,-2.616797e-2,-2.752444,1.787950,294.0720)" />
</svg>
