<?xml version="1.0" encoding="UTF-8" standalone="no"?>
<!-- Created with Inkscape (http://www.inkscape.org/) -->
<svg
   xmlns:dc="http://purl.org/dc/elements/1.1/"
   xmlns:cc="http://web.resource.org/cc/"
   xmlns:rdf="http://www.w3.org/1999/02/22-rdf-syntax-ns#"
   xmlns:svg="http://www.w3.org/2000/svg"
   xmlns="http://www.w3.org/2000/svg"
   xmlns:sodipodi="http://inkscape.sourceforge.net/DTD/sodipodi-0.dtd"
   xmlns:inkscape="http://www.inkscape.org/namespaces/inkscape"
   sodipodi:docname="Municipality_Trieste.svg"
   sodipodi:docbase="/Users/ryo"
   inkscape:version="0.41"
   sodipodi:version="0.32"
   id="svg1540"
   height="297mm"
   width="210mm">
  <defs
     id="defs3" />
  <sodipodi:namedview
     inkscape:window-y="42"
     inkscape:window-x="16"
     inkscape:window-height="536"
     inkscape:window-width="925"
     inkscape:current-layer="layer1"
     inkscape:document-units="px"
     inkscape:cy="960.86451"
     inkscape:cx="135.55985"
     inkscape:zoom="2.0314767"
     inkscape:pageshadow="2"
     inkscape:pageopacity="0.0"
     borderopacity="1.0"
     bordercolor="#666666"
     pagecolor="#ffffff"
     id="base" />
  <metadata
     id="metadata4">
    <rdf:RDF
       id="RDF5">
      <cc:Work
         id="Work6"
         rdf:about="">
        <dc:format
           id="format7">image/svg+xml</dc:format>
        <dc:type
           rdf:resource="http://purl.org/dc/dcmitype/StillImage"
           id="type9" />
      </cc:Work>
    </rdf:RDF>
  </metadata>
  <g
     id="layer1"
     inkscape:groupmode="layer"
     inkscape:label="Layer 1">
    <path
       transform="matrix(1.249968,0.000000,0.000000,1.249968,1.332829e-2,0.000000)"
       style="stroke-linejoin:bevel;stroke-linecap:butt;stroke-width:0.28;stroke:none;fill-rule:evenodd;fill:#000000"
       d="M 71.00 138.54 C 70.64 138.00 70.28 137.64 69.74 137.46 C 69.38 137.10 68.84 137.10 68.30 137.10   C 67.40 137.10 66.68 137.28 66.14 138.00 C 65.42 138.72 65.06 139.44 65.06 140.34 C 65.06 141.24 65.42 142.14 66.14 142.68   C 66.68 143.40 67.40 143.76 68.30 143.76 C 68.84 143.76 69.38 143.58 69.74 143.40 C 70.28 143.22 70.64 142.86 71.00 142.32   L 71.90 142.32 C 71.54 143.04 71.00 143.58 70.46 143.94 C 69.74 144.30 69.20 144.48 68.30 144.48   C 67.22 144.48 66.32 144.12 65.42 143.22 C 64.70 142.50 64.34 141.42 64.34 140.34 C 64.34 139.80 64.52 139.26 64.70 138.72   C 64.88 138.18 65.24 137.82 65.60 137.46 C 65.96 137.10 66.32 136.74 66.86 136.56 C 67.22 136.38 67.76 136.20 68.30 136.20   C 69.20 136.20 69.74 136.38 70.46 136.92 C 71.00 137.28 71.54 137.82 71.90 138.54 L 71.00 138.54 Z M 73.34 141.24 C 73.34 141.96 73.70 142.50 74.06 143.04 C 74.42 143.58 74.96 143.76 75.68 143.76   C 76.40 143.76 76.94 143.58 77.30 143.04 C 77.66 142.50 78.02 141.96 78.02 141.24 C 78.02 140.52 77.66 139.98 77.30 139.62   C 76.76 139.08 76.22 138.90 75.68 138.90 C 74.96 138.90 74.42 139.08 74.06 139.62 C 73.70 139.98 73.34 140.70 73.34 141.24 Z M 72.62 141.24 C 72.62 140.52 72.98 139.80 73.52 139.08 C 74.06 138.54 74.78 138.18 75.68 138.18   C 76.40 138.18 77.30 138.54 77.84 139.08 C 78.38 139.62 78.74 140.34 78.74 141.24 C 78.74 142.14 78.38 142.86 77.84 143.58   C 77.30 144.12 76.58 144.48 75.68 144.48 C 74.78 144.48 74.06 144.12 73.52 143.58 C 72.98 142.86 72.62 142.14 72.62 141.24 Z M 84.32 139.26 C 84.50 138.90 84.86 138.72 85.22 138.54 C 85.58 138.36 85.94 138.18 86.48 138.18   C 87.20 138.18 87.74 138.54 88.10 138.90 C 88.46 139.44 88.64 140.16 88.64 141.24 L 88.64 144.30   L 87.92 144.30 L 87.92 141.06 C 87.92 140.34 87.92 139.80 87.56 139.44   C 87.38 139.08 86.84 138.90 86.30 138.90 C 85.94 138.90 85.76 139.08 85.40 139.26 C 85.22 139.26 85.04 139.44 84.86 139.80   C 84.68 139.98 84.68 140.16 84.68 140.34 C 84.50 140.52 84.50 140.88 84.50 141.42 L 84.50 144.30   L 83.78 144.30 L 83.78 140.88 C 83.78 140.34 83.78 139.80 83.42 139.44   C 83.06 139.08 82.70 138.90 82.16 138.90 C 81.80 138.90 81.44 139.08 81.26 139.26 C 80.90 139.26 80.72 139.44 80.54 139.80   C 80.54 139.98 80.54 140.16 80.36 140.34 C 80.36 140.52 80.36 140.88 80.36 141.42 L 80.36 144.30   L 79.64 144.30 L 79.64 138.36 L 80.36 138.36   L 80.36 139.08 C 80.54 138.72 80.90 138.54 81.08 138.36 C 81.44 138.36 81.80 138.18 82.16 138.18   C 82.70 138.18 83.06 138.36 83.42 138.54 C 83.78 138.72 84.14 138.90 84.32 139.26 Z M 89.90 138.36 L 90.62 138.36 L 90.62 141.42   C 90.62 142.32 90.80 142.86 90.98 143.22 C 91.34 143.58 91.70 143.76 92.42 143.76 C 92.60 143.76 92.96 143.58 93.32 143.58   C 93.50 143.40 93.68 143.22 93.86 142.86 C 94.04 142.68 94.04 142.50 94.04 142.32 C 94.04 142.14 94.04 141.78 94.04 141.24   L 94.04 138.36 L 94.94 138.36 L 94.94 144.30   L 94.04 144.30 L 94.04 143.58 C 93.86 143.94 93.68 144.12 93.32 144.30   C 93.14 144.30 92.78 144.48 92.24 144.48 C 91.52 144.48 90.80 144.30 90.44 143.76 C 90.08 143.22 89.90 142.50 89.90 141.42   L 89.90 138.36 Z M 96.02 138.36 L 96.92 138.36 L 96.92 139.08   C 97.10 138.72 97.28 138.54 97.64 138.36 C 98.00 138.36 98.36 138.18 98.72 138.18 C 99.08 138.18 99.62 138.36 99.80 138.54   C 100.16 138.72 100.52 138.90 100.70 139.26 C 100.88 139.44 100.88 139.62 101.06 139.98 C 101.06 140.16 101.06 140.70 101.06 141.24   L 101.06 144.30 L 100.34 144.30 L 100.34 140.88   C 100.34 140.34 100.16 139.80 99.98 139.44 C 99.62 139.08 99.26 138.90 98.54 138.90 C 98.36 138.90 98.00 139.08 97.64 139.26   C 97.46 139.26 97.28 139.44 97.10 139.80 C 96.92 139.98 96.92 140.16 96.92 140.34 C 96.92 140.52 96.92 140.88 96.92 141.42   L 96.92 144.30 L 96.02 144.30 L 96.02 138.36 Z M 108.08 141.60 L 102.68 141.60 C 102.86 142.14 103.04 142.68 103.40 143.22   C 103.94 143.58 104.30 143.76 105.02 143.76 C 105.38 143.76 105.92 143.58 106.28 143.40 C 106.64 143.22 106.82 142.86 107.00 142.50   L 107.90 142.50 C 107.72 143.04 107.18 143.58 106.82 143.94 C 106.28 144.30 105.74 144.48 105.02 144.48   C 104.12 144.48 103.40 144.12 102.86 143.58 C 102.32 142.86 101.96 142.14 101.96 141.24 C 101.96 140.34 102.32 139.62 102.86 139.08   C 103.40 138.54 104.12 138.18 105.02 138.18 C 105.92 138.18 106.64 138.54 107.18 139.08 C 107.90 139.80 108.08 140.52 108.08 141.60   L 108.08 141.60 Z M 107.18 140.88 C 107.18 140.34 106.82 139.80 106.46 139.44 C 106.10 139.08 105.56 138.90 105.02 138.90   C 104.30 138.90 103.94 139.08 103.58 139.44 C 103.04 139.80 102.86 140.34 102.68 140.88 L 107.18 140.88 Z M 117.08 141.42 C 117.08 140.70 116.90 140.16 116.36 139.62 C 116.00 139.26 115.46 138.90 114.92 138.90   C 114.20 138.90 113.66 139.08 113.30 139.62 C 112.76 139.98 112.58 140.70 112.58 141.24 C 112.58 141.96 112.76 142.50 113.30 143.04   C 113.66 143.58 114.20 143.76 114.92 143.76 C 115.46 143.76 116.00 143.58 116.36 143.04 C 116.90 142.50 117.08 141.96 117.08 141.42 Z M 117.08 139.26 L 117.08 138.00 L 117.08 136.38   L 117.80 136.38 L 117.80 144.30 L 117.08 144.30   L 117.08 143.40 C 116.90 143.76 116.54 143.94 116.18 144.12 C 115.64 144.30 115.28 144.48 114.92 144.48   C 114.02 144.48 113.30 144.12 112.76 143.58 C 112.04 142.86 111.86 142.14 111.86 141.24 C 111.86 140.52 112.04 139.80 112.58 139.08   C 113.30 138.54 114.02 138.18 114.92 138.18 C 115.28 138.18 115.82 138.36 116.18 138.54 C 116.54 138.72 116.90 138.90 117.08 139.26 Z M 119.78 137.64 L 119.06 137.64 L 119.06 136.38   L 119.78 136.38 L 119.78 137.64 Z M 119.06 144.30 L 119.06 138.36 L 119.78 138.36   L 119.78 144.30 L 119.06 144.30 Z M 125.90 144.30 L 125.18 144.30 L 125.18 137.28   L 123.56 137.28 L 123.56 136.38 L 127.52 136.38   L 127.52 137.28 L 125.90 137.28 L 125.90 144.30 Z M 128.78 144.30 L 128.06 144.30 L 128.06 138.36   L 128.78 138.36 L 128.78 139.08 C 128.96 138.72 129.14 138.54 129.32 138.54   C 129.50 138.36 129.86 138.36 130.04 138.18 L 130.04 139.08 C 129.68 139.08 129.32 139.26 129.14 139.44   C 128.78 139.80 128.78 140.16 128.78 140.70 L 128.78 144.30 Z M 131.48 137.64 L 130.76 137.64 L 130.76 136.38   L 131.48 136.38 L 131.48 137.64 Z M 130.76 144.30 L 130.76 138.36 L 131.48 138.36   L 131.48 144.30 L 130.76 144.30 Z M 138.50 141.60 L 133.28 141.60 C 133.28 142.14 133.46 142.68 134.00 143.22   C 134.36 143.58 134.90 143.76 135.44 143.76 C 135.98 143.76 136.34 143.58 136.70 143.40 C 137.06 143.22 137.42 142.86 137.60 142.50   L 138.32 142.50 C 138.14 143.04 137.78 143.58 137.24 143.94 C 136.70 144.30 136.16 144.48 135.44 144.48   C 134.72 144.48 134.00 144.12 133.28 143.58 C 132.74 142.86 132.38 142.14 132.38 141.24 C 132.38 140.34 132.74 139.62 133.28 139.08   C 133.82 138.54 134.72 138.18 135.62 138.18 C 136.52 138.18 137.24 138.54 137.78 139.08 C 138.32 139.80 138.50 140.52 138.50 141.60   L 138.50 141.60 Z M 137.78 140.88 C 137.60 140.34 137.42 139.80 136.88 139.44 C 136.52 139.08 135.98 138.90 135.44 138.90   C 134.90 138.90 134.36 139.08 134.00 139.44 C 133.64 139.80 133.28 140.34 133.28 140.88 L 137.78 140.88 Z M 139.04 142.50 L 139.94 142.50 L 139.94 142.50   C 139.94 142.86 139.94 143.04 140.12 143.40 C 140.48 143.58 140.66 143.76 141.02 143.76 C 141.20 143.76 141.56 143.58 141.74 143.40   C 141.92 143.22 142.10 143.04 142.10 142.68 C 142.10 142.50 141.92 142.32 141.74 142.14 C 141.56 141.96 141.38 141.78 141.02 141.60   C 140.30 141.42 139.76 141.06 139.58 140.88 C 139.40 140.52 139.40 140.34 139.40 139.80 C 139.40 139.44 139.58 139.08 139.76 138.72   C 140.12 138.36 140.66 138.18 141.02 138.18 C 141.56 138.18 141.92 138.36 142.28 138.72 C 142.64 138.90 142.82 139.26 142.82 139.80   L 141.92 139.80 C 141.92 139.62 141.92 139.26 141.74 139.26 C 141.56 139.08 141.38 138.90 141.02 138.90   C 140.84 138.90 140.48 139.08 140.48 139.26 C 140.30 139.44 140.12 139.62 140.12 139.80 C 140.12 139.98 140.12 140.16 140.30 140.34   C 140.30 140.34 140.48 140.52 140.66 140.52 C 140.66 140.70 141.02 140.70 141.20 140.88 C 141.56 140.88 141.74 141.06 141.74 141.06   C 142.10 141.24 142.46 141.42 142.64 141.60 C 142.82 141.96 142.82 142.32 142.82 142.68 C 142.82 143.22 142.64 143.58 142.28 143.94   C 141.92 144.30 141.56 144.48 141.02 144.48 C 140.48 144.48 139.94 144.30 139.58 143.94 C 139.22 143.58 139.04 143.04 139.04 142.50 Z M 144.26 144.30 L 144.26 139.08 L 143.18 139.08   L 143.18 138.36 L 144.26 138.36 L 144.26 136.38   L 144.98 136.38 L 144.98 138.36 L 146.24 138.36   L 146.24 139.08 L 144.98 139.08 L 144.98 144.30   L 144.26 144.30 Z M 152.54 141.60 L 147.32 141.60 C 147.32 142.14 147.50 142.68 148.04 143.22   C 148.40 143.58 148.94 143.76 149.48 143.76 C 150.02 143.76 150.38 143.58 150.74 143.40 C 151.10 143.22 151.28 142.86 151.64 142.50   L 152.36 142.50 C 152.18 143.04 151.82 143.58 151.28 143.94 C 150.74 144.30 150.20 144.48 149.48 144.48   C 148.76 144.48 148.04 144.12 147.32 143.58 C 146.78 142.86 146.42 142.14 146.42 141.24 C 146.42 140.34 146.78 139.62 147.32 139.08   C 147.86 138.54 148.76 138.18 149.66 138.18 C 150.56 138.18 151.28 138.54 151.82 139.08 C 152.36 139.80 152.54 140.52 152.54 141.60   L 152.54 141.60 Z M 151.82 140.88 C 151.64 140.34 151.28 139.80 150.92 139.44 C 150.56 139.08 150.02 138.90 149.48 138.90   C 148.94 138.90 148.40 139.08 148.04 139.44 C 147.68 139.80 147.32 140.34 147.32 140.88 L 151.82 140.88 Z"
       id="path1454" />
    <path
       transform="matrix(1.249968,0.000000,0.000000,1.249968,1.332829e-2,0.000000)"
       style="stroke-linejoin:bevel;stroke-linecap:butt;stroke-width:0.28;stroke:none;fill-rule:evenodd;fill:#FF0000"
       d="M 80.72 6.24 L 80.72 8.40 L 79.10 8.40   L 79.10 6.24 L 77.12 6.24 L 77.12 8.40   L 75.50 8.40 L 75.50 6.24 L 73.70 6.24   L 73.70 9.66 C 73.70 10.74 74.60 12.00 75.50 12.00 L 80.72 12.00   C 81.62 12.00 82.34 10.74 82.34 10.02 L 82.34 6.24 L 80.72 6.24 Z M 94.04 4.08 L 94.04 6.06 L 92.42 6.06   L 92.42 4.08 L 90.44 4.08 L 90.44 6.06   L 88.82 6.06 L 88.82 4.08 L 87.20 4.08   L 87.20 7.50 C 87.20 8.40 87.92 9.66 88.82 9.66 L 94.04 9.66   C 94.94 9.66 95.66 8.58 95.84 7.68 L 95.84 4.08 L 94.04 4.08 Z M 109.88 1.92 L 109.88 4.08 L 108.08 4.08   L 108.08 1.92 L 106.10 1.92 L 106.10 4.08   L 104.12 4.08 L 104.12 1.92 L 102.32 1.92   L 102.32 5.52 C 102.32 6.60 103.22 7.86 104.12 7.86 L 109.88 7.86   C 110.78 7.86 111.50 6.78 111.68 5.88 L 111.68 1.92 L 109.88 1.92 Z M 133.46 6.24 L 133.46 8.40 L 135.08 8.40   L 135.08 6.24 L 137.06 6.24 L 137.06 8.40   L 138.68 8.40 L 138.68 6.24 L 140.30 6.24   L 140.30 9.66 C 140.30 10.74 139.58 12.00 138.68 12.00 L 133.46 12.00   C 132.56 12.00 131.84 10.74 131.84 10.02 L 131.84 6.24 L 133.46 6.24 Z M 120.14 4.08 L 120.14 6.06 L 121.76 6.06   L 121.76 4.08 L 123.56 4.08 L 123.56 6.06   L 125.36 6.06 L 125.36 4.08 L 126.98 4.08   L 126.98 7.50 C 126.98 8.40 126.26 9.66 125.36 9.66 L 120.14 9.66   C 119.24 9.66 118.52 8.58 118.34 7.68 L 118.34 4.08 L 120.14 4.08 Z M 125.72 11.10 L 119.78 11.10 L 119.78 20.28   L 125.72 20.28 L 125.72 11.10 Z M 104.12 9.30 L 110.06 9.30 L 110.06 20.28   L 104.12 20.28 L 104.12 9.30 Z M 88.46 11.10 L 94.40 11.10 L 94.40 20.28   L 88.46 20.28 L 88.46 11.10 Z M 75.68 13.62 L 80.54 13.62 L 80.54 20.28   L 75.68 20.28 L 75.68 13.62 Z M 138.50 13.62 L 133.64 13.62 L 133.64 20.28   L 138.50 20.28 L 138.50 13.62 Z M 96.38 13.62 L 102.14 13.62 L 102.14 20.28   L 96.38 20.28 L 96.38 13.62 Z M 117.80 13.62 L 111.86 13.62 L 111.86 20.28   L 117.80 20.28 L 117.80 13.62 Z M 82.16 14.52 L 86.66 14.52 L 86.66 20.28   L 82.16 20.28 L 82.16 14.52 Z M 132.02 14.52 L 127.52 14.52 L 127.52 20.28   L 132.02 20.28 L 132.02 14.52 Z M 94.04 30.36 L 94.04 35.58 L 88.82 35.58   L 88.82 30.36 C 88.82 28.92 89.90 27.84 91.34 27.84 C 92.78 27.84 94.04 28.92 94.04 30.36 Z M 77.66 31.08 L 80.36 31.08 L 80.36 35.58   L 77.66 35.58 L 77.66 31.08 Z M 81.98 31.08 L 86.84 31.08 L 86.84 35.58   L 81.98 35.58 L 81.98 31.08 Z M 95.30 31.08 L 102.50 31.08 L 102.50 35.58   L 95.30 35.58 L 95.30 31.08 Z M 76.94 24.96 L 84.50 24.96 L 84.50 29.64   L 76.94 29.64 L 76.94 24.96 Z M 95.30 29.64 C 94.94 27.84 93.32 26.40 91.34 26.40 C 89.54 26.40 87.92 27.84 87.56 29.64   L 86.30 29.64 L 86.30 24.96 L 97.46 24.96   L 97.46 29.64 L 95.30 29.64 Z M 119.96 30.36 L 119.96 35.58 L 125.18 35.58   L 125.18 30.36 C 125.00 28.92 123.92 27.84 122.48 27.84 C 121.04 27.84 119.96 28.92 119.96 30.36 Z M 107.00 35.58 L 109.70 35.58 L 109.70 29.64   C 109.70 30.00 109.70 30.00 109.70 29.64 C 109.70 28.02 108.44 26.76 107.00 26.76 C 105.38 26.76 104.12 28.02 104.12 29.64   C 104.12 30.00 104.12 30.00 104.12 29.64 L 104.12 35.58 L 107.00 35.58 Z M 136.34 31.08 L 133.46 31.08 L 133.46 35.58   L 136.34 35.58 L 136.34 31.08 Z M 132.02 31.08 L 126.98 31.08 L 126.98 35.58   L 132.02 35.58 L 132.02 31.08 Z M 118.52 31.08 L 111.50 31.08 L 111.50 35.58   L 118.52 35.58 L 118.52 31.08 Z M 136.88 24.96 L 129.32 24.96 L 129.32 29.64   L 136.88 29.64 L 136.88 24.96 Z M 118.70 29.64 C 119.06 27.84 120.68 26.40 122.48 26.40 C 124.46 26.40 125.90 27.84 126.44 29.64   L 127.70 29.64 L 127.70 24.96 L 116.36 24.96   L 116.36 29.64 L 118.70 29.64 Z M 107.00 25.68 C 109.16 25.68 110.96 27.48 110.96 29.64 L 114.74 29.64   L 114.74 24.96 L 107.00 24.96 L 99.26 24.96   L 99.26 29.64 L 103.04 29.64 C 103.04 27.48 104.84 25.68 107.00 25.68 Z M 107.00 38.46 L 136.88 38.46 L 136.88 37.02   L 107.00 37.02 L 76.94 37.02 L 76.94 38.46   L 107.00 38.46 Z M 107.00 23.52 L 138.68 23.52 L 138.68 21.90   L 107.00 21.90 L 75.14 21.90 L 75.14 23.52   L 107.00 23.52 Z M 107.00 136.92 C 116.18 131.34 123.56 124.86 130.22 116.04 C 134.00 111.18 140.12 96.78 140.12 89.76   L 140.12 44.04 L 73.70 44.04 L 73.70 89.76   C 73.70 96.78 79.82 111.18 83.60 116.04 C 90.26 124.86 97.82 131.34 107.00 136.92 Z M 108.80 124.68 L 108.80 108.48 C 110.24 107.40 110.24 105.06 108.80 103.98   C 108.80 97.50 112.58 92.28 119.42 92.28 C 125.00 92.28 128.24 96.24 130.40 101.28 C 131.30 94.98 125.90 88.50 119.42 88.50   C 114.74 88.68 111.68 89.76 108.62 94.08 L 108.62 86.34 L 110.24 83.10   L 108.80 51.96 L 107.00 50.34 L 105.02 51.96   L 103.58 83.10 L 105.20 86.34 L 105.20 94.08   C 102.14 89.76 99.26 88.68 94.40 88.50 C 88.10 88.50 82.70 94.98 83.60 101.28 C 85.58 96.24 88.82 92.28 94.40 92.28   C 101.24 92.28 105.20 97.50 105.20 103.98 C 103.76 105.06 103.76 107.40 105.20 108.48 L 105.20 124.68   L 108.80 124.68 Z"
       id="path1456" />
  </g>
</svg>
